<?xml version="1.0" encoding="utf-8"?>
<!-- Generator: Adobe Illustrator 18.1.1, SVG Export Plug-In . SVG Version: 6.00 Build 0)  -->
<svg version="1.1" xmlns="http://www.w3.org/2000/svg" xmlns:xlink="http://www.w3.org/1999/xlink" x="0px" y="0px"
	 viewBox="0 0 369.3 378" enable-background="new 0 0 369.3 378" xml:space="preserve">
<g id="Cheveux">
	<path id="Cheveux_Haut" display="none" fill="#7C3D2F" d="M141,131.7c0,0-32.7,7.6-48-13.1s-7-54-24-68.7c0,0,3.2-1.7,12,4
		c0,0-10.6-9.7-14-34.7c-3.3-25-3.7-35.3-12-42.7c0,0,9.7-0.7,19.7,8.7s7-34.3-0.7-43.7c0,0,18.3,4.7,33.7,19.7
		c0,0-1-17.7-12.7-21.7c0,0,1.7-4,23.7,8.7c0,0-7-19-6-28c0,0,3.3,12.7,13.7,23.7s-8.3-19,9.1-34.7c0,0,0.1,23,5.3,29.3
		c0,0-0.8-4.2,9.2-16.6c0,0-2.5,20.8,5.9,30.2c8.7,9.8,4.3-20.3,17.2-30.3c0,0,0,61.8,22.4,20.8c0,0-2.5,40.1,11.3,58
		c21.2,27.6,5,37,14.9,64c7.2,19.6-4.7,58.5-26.2,67.1S141,131.7,141,131.7z"/>
	<path id="Cheveux_bas_meche" fill="#7C3D2F" d="M135.2,175.4c0,0,33.3,6.8,36.8,4.3c3.5-2.5,7.5-12,7.5-12c3,2.5,6.5,9,6.5,9
		c1.6-3.1,1.2-12.3,1.2-12.3c2.2,4.5,8.2,8.2,8.2,8.2c-3.5-5.8,1-11.9,1-11.9c1.8,3.8,8.3,7.5,8.3,7.5c-2.8-7.5,3.3-15,3.3-15
		c3.3,0.3,8.5,5.5,8.5,5.5c-0.3-9.8-6.4-13.1-6.4-13.1c2.8,1.2,8.4,0,8.4,0c-4.8-4.1-4.8-11.9-4.8-11.9c2.3,1.8,7.3,0.3,7.3,0.3
		c-4-5.5-2-13.7-2-13.7c3.3,2.3,6.8,1.7,6.8,1.7c-4.5-5.5-4.8-20.8-1.5-27.9s6.3-33.4-4-57.9s-40.8-16-40.8-16s-28-18.7-55-4.7
		S89.8,56.9,85.8,69.7s-4,19.6-12.8,21.8c0,0,5.5,4.8,11.5,3.6c0,0-1.5,9.8-10.3,13.2c0,0,6,1.9,10.3,0c0,0,0.3,8-11.5,11.9
		c0,0,5.3,5,12.1,3.1c0,0-10.7,5.3-14,17.5c0,0,1.6-3.7,11.7-5.9c0,0-1.1,15.8-7.6,20.3c0,0,9.3,1.3,16.3-4c0,0-2.7,11.8-8.6,15.5
		c0,0,10.4,0.8,15-4.3c0,0-5.1,11-3.4,16c0,0,0.5-7.5,7.3-12.3c0,0-3.4,10.3,0.3,14.7c0,0,2.5-5.7,6.5-9c0,0,3.8,5,2,8.5
		c0,0,6-1.8,6.5-4.5c0,0,3,3.8,3.5,8.3S135.2,175.4,135.2,175.4z"/>
</g>
<g id="Bras_Gauche">
	<path id="Epaule_Gche" fill="#FFB292" d="M190.7,182.5c0,0,3.4,1.3,5.2,1.7c1.8,0.4,6.7,1.9,8.1,6.9s3.7,13.2,3.7,13.2l-5.3-3.8
		l-6.4-9.1L190.7,182.5z"/>
	<g id="Bras_Gauche_fruit">
		<path fill="#FFB292" d="M314.9,218c-0.4,0.1-0.9,0.1-1.3,0.1"/>
		<path id="D3" fill="#FFB292" d="M311.7,220.2c7.7-0.1,17.5-9.7,17.5-9.7s8-4.7,10.1-5.4c2.2-0.7,3.6-2.8-0.9-3
			c-4.5-0.1-14.5,6.8-14.5,6.8S311.7,218.8,311.7,220.2z"/>
		<path id="D2" fill="#FFB292" d="M345.7,209.5c-1.8,0.9-6.1,2.8-7.2,3.2c-0.4,0.1-2.3,0.9-4.8,1.8c-2.1,0.8-4.6,1.8-6.7,2.5
			c-1.7,0.6-3.1,1-3.8,1.1c-2.7,0.4-10.9,1.2-10.9,1.2c4.6-0.6,12-5.1,15.1-7.4c0,0,2.5,0,4-0.5s7.9-3.8,9.9-3.7
			C343.3,207.8,347.5,208.6,345.7,209.5z"/>
		<path id="D1" fill="#FFB292" d="M339,218.1c-1.4,2-11-1.4-11.9-1.1c2.1-0.7,4.6-1.7,6.7-2.5C333.8,214.4,340.3,216.1,339,218.1z"
			/>
		<path id="pouce" fill="#FFB292" d="M307,208.2c0,0-6.8,1.8-9.5,2.2c-6.5-1.8-15.7-3.8-24.9,1c0,0-0.3-4.1,7-5.3
			c7.3-1.3,17.9-0.3,19.1-0.6c1.2-0.3,8.7-4.7,11.2-2.1C312.3,206,307,208.2,307,208.2z"/>
		<g id="pasteque">
			<path fill="#7EA172" d="M304.2,102.9c0,0,0.1-1.3,0-3.5c-0.1-2.2,7.1-5.9,6.4-6.9c-0.7-0.9-4.8-2.8-8.3-1.5
				c-3.5,1.3-5.9,10-5.9,10c-0.2,0.7-0.2,1.6-0.1,2.4c-13.3,1.8-25.1,8-33.8,17.4c2.7,1.7,13-8.2,14.4-9.6
				c-1.9,2.1-17.1,19.7-19,23.8c-2,4.4-2,10.2-3.2,14.8c-1.1,4.6-5.4,6.1-5.4,6.1s0.9,12.2,4.1,13.5c0,0-3.8,4.1-2.2,9.1
				c0,0.1,0.1,0.2,0.1,0.3c0.1,0.2,0.1,0.4,0.2,0.6c0,0,0,0.1,0,0.1c8.1,21,28.5,34.3,52.5,34.3c31,0,54-30,56.2-54.8
				C363.3,126.8,335.3,102.9,304.2,102.9z M328.6,194.6c4.6-7.3,8.1-17.4,7.5-31v0c-1.3-5.2-10.6-6.4-10.6-6.4
				c-0.7-3,2.4-7.6,2.2-10.9c-0.2-3.3-8.5-10.2-8.5-10.2s1.1-1.3,1.1-9.1c0-7.8-8.6-18.1-8.6-18.1c1,0.8,2.1,1.8,3.4,3
				c0,0,26.8-0.6,34.1,40.4C349.6,154.4,348.7,179.5,328.6,194.6z M259.9,123.9c-2.4,3-4.4,6.2-6.1,9.7
				C262.3,129.9,259.9,123.9,259.9,123.9z"/>
			<path fill="#7EA172" d="M335.5,156.1c0,0-4.7-1.2-5.3-3.8c-0.6-2.5,3.4-6,3.4-6C334.4,149.3,335,152.6,335.5,156.1z"/>
			<path fill="#254441" d="M277.1,111.1c-1,1.2-17.2,19.7-19.2,24c-2,4.4-2,10.2-3.2,14.8c-1.1,4.6-5.4,6.1-5.4,6.1
				s0.9,12.2,4.1,13.5c0,0-3.8,4.1-2.2,9.1c-2.1-5.9-3.3-12.5-3.3-19.4c0-9.4,2.1-18.1,5.9-25.6c8.5-3.6,6.1-9.7,6.1-9.7
				c0.8-1,1.7-2,2.6-3C265.3,122.6,276.3,111.9,277.1,111.1z"/>
			<path fill="#254441" d="M355.2,158.6c-5.1,41.3-43.7,52.4-44.9,52.7c0.6-0.3,10.9-4.9,18.4-16.8c20.1-15.1,21-40.2,20.6-42.3
				c-7.3-41-34.1-40.4-34.1-40.4c-1.2-1.2-2.4-2.2-3.4-3c-2.6-2.1-4.4-3-4.4-3C322.1,105.2,360.4,116.6,355.2,158.6z"/>
			<path fill="#7C3D2F" d="M328.6,194.6c4.6-7.3,8.1-17.4,7.5-31v0c-0.1-1.7-0.2-3.4-0.4-5.1c-0.1-0.8-0.2-1.6-0.3-2.4
				c-0.5-3.5-1.1-6.8-1.8-9.8c-4.2-17.8-12.4-28.5-18.5-34.4c0,0,26.8-0.6,34.1,40.4C349.6,154.4,348.7,179.5,328.6,194.6z"/>
			<path fill="#254441" d="M291.4,107.7c0,0-4.3,5.7-4.4,9.2c-0.2,3.5-5,8.9-6.3,10c-1.3,1.1-5.9,7-4.8,8c1.1,0.9,4.1,8.1,4.1,8.1
				s7.6-7.2,11.5-9.4s2.4-5.5,2-8.2c-0.4-2.7-1.3-12.7,3.5-16c0,0-0.9,3.9,0,8.9c0.9,5-1.1,9.8,0,11.3c1.1,1.5,5.7,6.1,4.8,13.5
				c-0.9,7.4-10.9,11.5-10.9,17.6c0,6.1,4.1,11.1,4.1,11.1s-4.4,2.4-0.2,8.1c0,0-5.5,14.1-1.7,19.4c0,0-7.8-8.3-8.7-11.7
				c-0.9-3.3,4.1-6.8,3.5-9.4s-4.6,0.6-4.6-4.8c0-5.4-4.8-8.5-7.6-4.3c-2.8,4.3-2.9,8.9,0,10.7c0,0-1.5,8,1.8,13.9
				s8.9,13.7,8.7,14.8c-0.2,1.1-9.1-3-12.7-10.2c-3.6-7.2-4-20.3-4.9-21.6c-0.9-1.3-2,3-2,3s-4.4-6.8-4.4-11.1s1.5-9.6,1.5-12.2
				c0-2.6-3.7-6.5-3.7-6.5s6.8-5.5,7.6-7.8c0.7-2.2-2-9.8,0-10.2c2-0.4,8.5-3.7,9.1-4.6C277.1,126.4,283.1,107,291.4,107.7z"/>
			<path fill="#254441" d="M303,105.9c0,0,4.4,6.3,5.5,11.3c1.1,5,3,11.3,6.6,14.1c0,0-2.9,9.4-2.2,12c0.7,2.6,3.9,5.2,7.2,5.9
				c0,0-2.8,2.8-1.8,6.3c0.9,3.5,3.7,5.4,3.5,7.4c-0.2,2-5.4,6.3-5,8.5c0.4,2.2,5.7,8.3,5.9,11.8s-2.8,5.5-3.1,2.2s-2.8,3.3-1.7,5
				c1.1,1.7,3.1,6.7,2.2,8c-0.9,1.3-4.9,5.7-4.3,7.4s-5.5-1-4.6-9.1c0.2-1.7,4.3-5.4,3.8-7.6c-0.5-2.2-7-5.5-6.4-10.2
				c0.6-4.6,3.5-12.2,3.3-17.8c-0.2-5.5-3.9-9.8-4.6-9.8c0,0,3.7-4.1,3.1-7.4c-0.6-3.3-2.6-7.4-3.1-8.9s-2.2-3.9-1.7-7
				c0.6-3.1,1.1-10.4-0.4-12.8l-4.6,3.9C300.8,119.2,304.1,110.5,303,105.9z"/>
			<path fill="#254441" d="M336.2,163.5c-1.3-5.2-10.6-6.4-10.6-6.4c-0.7-3,2.4-7.6,2.2-10.9c-0.2-3.3-8.5-10.2-8.5-10.2
				s1.1-1.3,1.1-9.1c0-7.8-8.6-18.1-8.6-18.1c1,0.8,2.1,1.8,3.4,3c6.1,5.9,14.2,16.6,18.5,34.4c0,0-4,3.5-3.4,6
				c0.6,2.5,5.3,3.8,5.3,3.8c0.1,0.8,0.2,1.6,0.3,2.4C336,160.2,336.1,161.9,336.2,163.5z"/>
			<path fill="none" stroke="#000000" stroke-miterlimit="10" d="M336.2,163.5L336.2,163.5C336.2,163.6,336.2,163.6,336.2,163.5"/>
			<path fill="none" stroke="#000000" stroke-miterlimit="10" d="M277.1,111.1C277.1,111.1,277.1,111.1,277.1,111.1
				C277.1,111.1,277.1,111.1,277.1,111.1"/>
			<path fill="none" stroke="#000000" stroke-miterlimit="10" d="M251.2,178.6c0,0.1,0.1,0.2,0.1,0.3c0.1,0.2,0.1,0.4,0.2,0.6
				c0,0,0,0.1,0,0.1"/>
		</g>
		<path id="D4" fill="#FFB292" d="M325.8,208.3c-4.4,4.2-10.7,8.5-11.5,9.1c-1.5,1-1.6,3.9-4.7,4.4c-3.1,0.5-21.5-1.9-26.2,2.5
			s-19.1,26.4-24.7,33.6c-5.6,7.2-20.3,23.1-20.3,23.1s-8.4,14.1-22.4,4.2c-14-9.9,8-21.8,8-21.8s17.8-14.7,22.8-18.5
			c5-3.8,18.2-21.3,18.2-21.3s1.3-9,7.6-12.3c9.2-4.8,18.4-2.9,24.9-1c3.4,1,6.1,1.9,7.7,1.9c4.7-0.1,10.2-2.3,11.7-3.1
			c1.5-0.8,11.5-9.4,13.5-8C331.2,201.7,329.1,205,325.8,208.3z"/>
	</g>
</g>
<g id="Corps">
	<path id="T-shirt_bleu" fill="#32CBFF" d="M117.5,179.8c-8.8,4.8-15.3,6.1-19.2,9.9c-12.5,12.2-10.4,61.7,4.4,69.6
		c22.8,12.1,25.7,32.7,30,40.9s2.5,23.4,1.7,33c-0.8,9.6,0,31.8,0,31.8s12.1,5.9,16.3,6.5s3.1-2.6,19.2-0.6s24.2-1.4,31.3-4.8
		c7-3.4,19.9,2.1,26.7-1.8c6.8-3.9,13.3-3,13.3-3s-4.6-16.4-10.3-26c-5.6-9.6-1.5-23.3-5.4-32.6c-3.9-9.3-0.1-17.1-0.1-17.1
		c12.9-15.8,12.2-24.4,11.5-31.4c-0.5-5-6.8-13.5-8.6-16.9c-1.8-3.2-14.8-24.2-15.9-25.8c-0.9-1.3-13.1-19.3-13.1-19.3
		s-4.9-8.8-9.7-10.2L117.5,179.8z"/>
	<path id="T-shirt_orange_1_" display="none" fill="#F3752B" d="M117.5,179.8c-8.8,4.8-15.3,6.1-19.2,9.9
		c-12.5,12.2-10.4,61.7,4.4,69.6c22.8,12.1,25.7,32.7,30,40.9s2.5,23.4,1.7,33c-0.8,9.6,0,31.8,0,31.8s12.1,5.9,16.3,6.5
		s3.1-2.6,19.2-0.6s24.2-1.4,31.3-4.8c7-3.4,19.9,2.1,26.7-1.8c6.8-3.9,13.3-3,13.3-3s-4.6-16.4-10.3-26c-5.6-9.6-1.5-23.3-5.4-32.6
		c-3.9-9.3-0.1-17.1-0.1-17.1c12.9-15.8,12.2-24.4,11.5-31.4c-0.5-5-6.8-13.5-8.6-16.9c-1.8-3.2-14.8-24.2-15.9-25.8
		c-0.9-1.3-13.1-19.3-13.1-19.3s-4.9-8.8-9.7-10.2L117.5,179.8z"/>
</g>
<g id="Bras_Dt">
	<path id="Bras_droit_Tshirt_ouvert_1_" display="none" fill="#FFB292" d="M117.8,260.7c0,0-6.8,35.7-4.8,39.3s11.7,33,14,38.3
		c2.3,5.3,21.2,41.6,21.2,41.6h-18.5c0,0-13.3-23.9-20.3-34.3c-7-10.3-17.7-37.3-17.7-37.3s-1.6-0.2-1.3-8.3c0.3-8-3.4-69-3.8-88.5
		C86.1,193,106,185.9,106,185.9s52.2,12.8,16.2,91.2c0,0-2.4-1.6-5.6-4.4C113.5,269.8,117.8,260.7,117.8,260.7z"/>
	<path id="Aiselles" display="none" fill="#F59D76" d="M115.8,271.9c0,0,2.1-25.7,1.5-31.7s3.9,0.3,4.3,2.9c0.3,2.7-1.7,0.4-1.7,0.4
		L115.8,271.9z"/>
	<g id="Bras_haltere">
		<path fill="#FFB292" d="M125.7,275.6c0,0,1.8,25.6-0.7,31.6c0,0-0.1,13.5-9.1,23.6c0,0-3.8,2.5-6.8,0c-3-2.5-31.6-31.4-40.9-72.3
			c0,0-5.2-21-13.1-29.5s-11.5-13.4-11.2-20.5c0.3-7.1,0.2-12.6,1-14.5c0.8-1.8,2.6-4.4,6-4.1c3.5,0.3,3.8,2.7,3.8,2.7
			s1.2-1.3,4.6-0.8s4.6,2.9,4.6,2.9s4.6-1.4,7.4,2.3c0,0,3.1-1.2,6.1,2.4c3.1,3.6,0.9,8.4,0.9,8.4s1.4,1.2,2.7,9.7
			c1.2,8.5-1.1,9.1,1.5,18.3c2.7,9.2,8.2,20.6,13.9,26.6c0,0-4.7-9.6-2.5-21.4c0,0-11.7-24.5-4.5-41.1s22.7-10.7,22.7-10.7
			s5.1,1.9,8.8,5c3.7,3.1,13.2,17.9,14.2,36.2C136,246.5,125.7,275.6,125.7,275.6z"/>
		<path fill="#FFB292" d="M125.7,275.6c0,0,1.8,25.6-0.7,31.6c0,0-0.1,13.5-9.1,23.6c0,0-3.8,2.5-6.8,0c-3-2.5-31.6-31.4-40.9-72.3
			c0,0-5.2-21-13.1-29.5s-11.5-13.4-11.2-20.5c0.3-7.1,0.2-12.6,1-14.5c0.8-1.8,2.6-4.4,6-4.1c3.5,0.3,3.8,2.7,3.8,2.7
			s1.2-1.3,4.6-0.8s4.6,2.9,4.6,2.9s4.6-1.4,7.4,2.3c0,0,3.1-1.2,6.1,2.4c3.1,3.6,0.9,8.4,0.9,8.4s1.4,1.2,2.7,9.7
			c1.2,8.5-1.1,9.1,1.5,18.3c2.7,9.2,8.2,20.6,13.9,26.6c0,0-4.7-9.6-2.5-21.4c0,0-11.7-24.5-4.5-41.1s22.7-10.7,22.7-10.7
			s5.1,1.9,8.8,5c3.7,3.1,13.2,17.9,14.2,36.2C136,246.5,125.7,275.6,125.7,275.6z"/>
		<path fill="#F59D76" d="M125.7,275.6c0,0,1.1-16.6-1.2-28.5c-2.3-11.9-3.7-18.8-2.4-23.2c1.5-4.9,7.7-2.9,11.3,2.4
			c0,0-7.5-5.1-10,0c0,0-0.2,2.8,2.1,20.5S126.5,271.4,125.7,275.6z"/>
		<path fill="#F59D76" d="M96.4,262.6c0,0,1,3.3,3.9,5.7s5.3,3.9,8.1,7.4s10.4,20.6,11.5,28.8c0,0-0.4-12.5-6-23.8
			s-10.3-11.8-12.6-13.5S96.4,262.6,96.4,262.6z"/>
	</g>
	<g id="Haletre">
		<path d="M92.3,188.1l-3.9-1.1l-3.2,3.8l-2.7,8.3L80.9,217c0.3,1.7,0.5,3.8,0.5,5.8c0,4.5-0.2,6.5,0.1,8.7c0.2,1.3,0.7,3.1,0.7,3.1
			l2,0.8l1.7-1.9l4.3-17.7l2.8-20L92.3,188.1z"/>
		<path fill="#42B3A3" d="M78.3,207.7c0,0,1.4,1.2,2.7,9.7c0.1,0.7,0.2,1.3,0.2,1.9c1.4,0.3,2.2,0.5,2.2,0.5s2.4,1.1,3.7-7.4
			c0-1.8,0.1-3.7,0.4-5.5c-0.2-4-1.7-4.3-1.7-4.3c-2.1,0-4.5-0.2-7-0.4C79.4,205.1,78.3,207.7,78.3,207.7z"/>
		<path fill="#42B3A3" d="M44.4,213.6c-1.7-0.2-3.4-0.3-5-0.4l-0.2,0c-1-0.1-2-0.1-2.9-0.1c-0.6,0-1.3,0-1.9,0c0,0-2.5-0.9-1.6-9
			c1-8,4-8.2,4-8.2s0.6,0.1,1.7,0.3l2.7,0.5c0.2,0,0.3,0.1,0.5,0.1v0c0.8,0.1,1.6,0.3,2.5,0.5c-0.2,2.7-0.2,6.7-0.4,11.3
			C43.8,210.3,44,212,44.4,213.6z"/>
		<path d="M38.8,190.6c0,1.4-0.4,5.6-0.4,5.6c-1.1-0.2-1.7-0.3-1.7-0.3s-3,0.2-4,8.2c-1,8,1.6,9,1.6,9c0.6,0,1.2,0,1.9,0
			c0,0-0.8,4-1.1,5c-0.8,3.2-2.5,9.5-4.5,9.2c-2.8-0.4-1.1-15.6-0.3-23.6c0.8-8,4.6-23.1,6.7-22.8C38.6,181.1,38.8,187.1,38.8,190.6
			z"/>
		<path fill="#42B3A3" d="M42.1,190.7c0,0.9-0.3,5.1-0.4,6.1v0l-0.5-0.1l-2.7-0.5c0,0,0.4-4.2,0.4-5.6c0-3.5-0.2-9.5-1.8-9.7
			c-2.2-0.3-5.9,14.8-6.7,22.8c-0.8,8-2.5,23.2,0.3,23.6c2.1,0.3,3.8-6,4.5-9.2c0.3-1.1,1.1-5,1.1-5l2.9,0.1l0.2,0c0,0-0.7,4-0.9,5
			c-0.8,4-3.2,13.8-8.4,14.8l-10-1.4c0,0-3.1,0.3-3.8-9.4c-0.3-4.4-0.1-10.8,1.1-20.3c1.3-10.3,3.1-16.8,4.8-20.9
			c3.3-8.1,6.5-7,6.5-7l9.5,1.3C38.2,175.2,42.6,175.9,42.1,190.7z"/>
		<g>
			<path fill="#42B3A3" d="M81.6,232.5c0,0.1,0.1,0.3,0.1,0.4c0-0.2-0.1-0.3-0.1-0.5C81.6,232.4,81.6,232.5,81.6,232.5z"/>
			<path fill="#42B3A3" d="M99.5,183.9l-9.5-1.3c0,0-4.7-0.6-8.4,15.3c-0.1,0.4-0.6,4.2-0.7,4.6l3.1,0.2c0,0,0.7-3.5,0.8-4.1
				c0.7-2.7,2.9-10.5,4.7-10.3c2.2,0.3,1.7,15.8,0.2,23.8s-4,23-6.7,22.6c-0.6-0.1-1.1-0.8-1.4-1.8c0.7,2.7,2.3,7.7,2.3,7.7l8,1.1
				c0,0,6.2,2.4,10.7-27.9C107.3,183.6,99.5,183.9,99.5,183.9z"/>
		</g>
		<path fill="#42B3A3" d="M22.4,181c0,0-5.8,12.8-5.8,41.3l-3.9-0.5c0,0-4.8-0.4-1.9-21.3s7.6-19.9,7.6-19.9L22.4,181z"/>
		<path fill="#42B3A3" d="M103.7,193.3c0,0,2.1,13.9-5.8,41.3l3.9,0.5c0,0,4.7,0.9,7.7-20c3-20.9-1.8-21.2-1.8-21.2L103.7,193.3z"/>
	</g>
</g>
<g id="Tete">
	<g id="Visage">
		<path id="Visage_1_" fill="#FFB292" d="M100.4,97.8c0,0,59.7-4.7,91.6-49.3c0,0,19.3,26.7,17.7,55c-0.6,11.3-5.6,21.5-9.9,30
			c-6.6,12.8-10.8,21.3-22.3,21.7c0,0-14.2,16.7,12,27c0,0,40.5,60.7,7.9,60.7c-31.8,0-47.4-54.7-78.7-62.7c0,0,17.1-1.8,17.4-38.4
			c0,0-17.1-14.6-19.3-24.9C116.8,116.8,99.7,119.4,100.4,97.8z"/>
		<path id="ombre" fill="#F59D76" d="M177.5,155.1C177.5,155.1,177.5,155.1,177.5,155.1C177.4,155.1,177.4,155.2,177.5,155.1
			c-0.4,0.5-1.7,2.2-2.7,4.8c0,0.1,0,0.1-0.1,0.2c-0.1,0.1-0.1,0.3-0.2,0.4c0,0,0,0.1,0,0.1c0,0,0,0,0,0c-0.6,0.2-25.2,9.9-43.7,8.7
			c2.9-5.7,5.2-14.4,5.3-27.6c0,0-0.9-0.8-2.3-2c-0.9-0.9-2.1-2-3.4-3.2c-0.2-0.2-0.5-0.5-0.7-0.7c-0.3-0.3-0.7-0.7-1-1
			c-0.2-0.2-0.4-0.5-0.6-0.7c-0.3-0.3-0.6-0.6-0.9-0.9c-0.3-0.3-0.6-0.6-0.9-0.9c-1.6-1.8-3.1-3.6-4.6-5.6c-0.1-0.2-0.3-0.3-0.4-0.5
			c-0.3-0.4-0.5-0.7-0.7-1.1c-0.1-0.2-0.2-0.4-0.4-0.5c-0.2-0.3-0.5-0.7-0.7-1.1c-0.5-0.9-1-1.8-1.5-2.6c-0.1-0.2-0.2-0.3-0.2-0.5
			c-0.3-0.6-0.5-1.1-0.7-1.7c0-0.1-0.1-0.3-0.1-0.4c0-0.1,0-0.1-0.1-0.2c-0.1-0.2-0.1-0.3-0.2-0.5c-0.1-0.3-0.1-0.5-0.2-0.8
			c0,0-17.1,2.7-16.4-19c0,0,0.6,0,1.8-0.2c0.1,0,0.2,0,0.3,0c0.1,0,0.2,0,0.3,0c0.1,0,0.2,0,0.3,0c0.1,0,0.2,0,0.4,0
			c0.2,0,0.4,0,0.6-0.1c0.6-0.1,1.2-0.2,1.8-0.3c0.4-0.1,0.7-0.1,1.1-0.2c0.1,0,0.1,0,0.2,0c0.3,0,0.6-0.1,0.9-0.2
			c0.2,0,0.3-0.1,0.5-0.1c0.3,0,0.6-0.1,0.9-0.2c0.3,0,0.5-0.1,0.8-0.1c0.4-0.1,0.7-0.1,1.1-0.2c0.2,0,0.4-0.1,0.6-0.1
			c0.6-0.1,1.2-0.3,1.9-0.4c0.2,0,0.4-0.1,0.7-0.1c0.4-0.1,0.9-0.2,1.3-0.3c1.5-0.3,3-0.7,4.6-1.1
			C120.4,94.1,124.9,152.8,177.5,155.1z"/>
	</g>
	<g id="Yeux">
		<path id="Oeil_droit_fermé" d="M141.8,94.2c0,0,4,3.7,10.5,3.5c6.5-0.2,11.3-2.8,12.3-2.3s-5.2,6.1-12.5,5.8
			c-7.4-0.3-11.4-1.6-14.5-3.5C137.5,97.7,136.8,95.9,141.8,94.2z"/>
		<path id="Oeil_gauche_fermé" d="M203.6,91.5c0,0-3.1,3.1-8,3.6c-4.9,0.4-11.4-2-12.4-0.9c-1.5,1.5,6.7,4.6,12.3,4.6
			s12-4.4,12.5-5.3C208,93.5,205.4,91.4,203.6,91.5z"/>
		<g id="Oeil_Dt" display="none">
			<path display="inline" fill="#FFFFFF" d="M146.2,97.1c-2.4-1-3.9-1.9-3.9-1.9c0.3-1.6,1-2.9,1.9-3.9
				C144.2,91.3,144.6,95,146.2,97.1z"/>
			<path display="inline" fill="#FFFFFF" d="M148.8,94.7c0.1,0.5-0.2,1-0.7,1.1c-0.5,0.1-1-0.3-1-0.7c-0.1-0.5,0.2-1,0.7-1.1
				C148.3,93.8,148.7,94.2,148.8,94.7z"/>
			<path display="inline" fill="none" d="M153.5,95.6c-1.8,0.3-4-0.9-4.6-2.8c-1,0-1.9-0.7-2.1-1.7c-0.2-1.1,0.5-2.1,1.6-2.3
				c0.5-0.1,0.9,0,1.3,0.2c0.7-0.8,1.6-1.4,2.6-1.6c2-0.3,4.3,1.4,4.6,3.5C157.2,93.1,155.5,95.3,153.5,95.6z"/>
			<path display="inline" fill="#FFFFFF" d="M165.3,97.9C165.3,97.9,165.3,97.9,165.3,97.9c0,0.1,0,0.1,0,0.2c0,0.1,0,0.2,0,0.3
				c0,0.1,0,0.1,0,0.1c0,0,0,0,0,0c-3,1.1-6.1,1.4-9,1.1c0,0,0,0,0,0c-0.3,0-0.6-0.1-1-0.1c1.2-0.6,6.7-3.9,5.3-9.7
				C164.3,92.6,165.1,96.4,165.3,97.9z"/>
			<path display="inline" d="M165.3,97.9c-0.2-1.5-1-5.4-4.6-8c-1.7-1.3-4.2-2.3-7.5-2.6c0,0-0.4,0-1,0.1c-1.8,0.3-5.6,1.1-8,3.8
				c-0.9,1-1.6,2.3-1.9,3.9c0,0,1.5,0.9,3.9,1.9c0,0,0,0,0,0c2.4,1,5.6,2.1,9.2,2.5c-0.1,0.1-0.2,0.1-0.2,0.1
				c-14.4,0-22.2-5.5-22.2-5.5c2.1,0.3,5.7-0.4,5.7-0.4c-5.7-1.6-5.7-3.9-5.7-3.9s1.5,1,3.2,0.7c1.7-0.3,6-4.5,11.9-5.2
				c5.8-0.7,10.4-0.4,13.8,3C164.4,91.4,165.1,96.1,165.3,97.9z"/>
			<path display="inline" fill="#087527" d="M160.7,90c-1.7-1.3-4.2-2.3-7.5-2.6c0,0-0.4,0-1,0.1c2-0.3,4.3,1.4,4.6,3.5
				c0.4,2.1-1.4,4.3-3.4,4.6c-1.8,0.3-4-0.9-4.6-2.8c-1,0-1.9-0.7-2.1-1.7c-0.2-1.1,0.5-2.1,1.6-2.3c0.5-0.1,0.9,0,1.3,0.2
				c0.7-0.8,1.6-1.4,2.6-1.6c-1.8,0.3-5.6,1.1-8,3.8c0,0,0.4,3.7,1.9,5.8c0,0,0,0,0,0c2.4,1,5.6,2.1,9.2,2.5
				C156.6,99,162.1,95.7,160.7,90z M148.1,95.7c-0.5,0.1-1-0.3-1-0.7c-0.1-0.5,0.2-1,0.7-1.1c0.5-0.1,1,0.2,1.1,0.7
				C148.9,95.2,148.6,95.6,148.1,95.7z"/>
			<path display="inline" d="M156.9,91c0.4,2.1-1.4,4.3-3.4,4.6c-1.8,0.3-4-0.9-4.6-2.8c-0.1-0.2-0.1-0.4-0.2-0.6
				c-0.2-1.1,0.3-2.3,1-3.2c0.7-0.8,1.6-1.4,2.6-1.6C154.2,87.1,156.5,88.9,156.9,91z"/>
			<path display="inline" fill="#FFFFFF" d="M150.7,90.5c0.2,1.1-0.5,2.1-1.6,2.3c-0.1,0-0.2,0-0.3,0c-1,0-1.9-0.7-2.1-1.7
				c-0.2-1.1,0.5-2.1,1.6-2.3c0.5-0.1,0.9,0,1.3,0.2C150.2,89.4,150.6,89.9,150.7,90.5z"/>
			<path display="inline" fill="#FFFFFF" d="M148.8,94.7c0.1,0.5-0.2,1-0.7,1.1c-0.5,0.1-1-0.3-1-0.7c-0.1-0.5,0.2-1,0.7-1.1
				C148.3,93.8,148.7,94.2,148.8,94.7z"/>
		</g>
		<g id="Oeil_Gche" display="none">
			<path display="inline" d="M182.5,96.2c-0.4-2.5,0-11.6,8.2-13.3c8.2-1.7,16.1,5.4,16.1,5.4c4.1,0.1,5.5-1.5,5.5-1.5
				s0,2.2-5.3,3.7c0,0,1.7,0.8,5.6-0.1c0,0-1.9,3.5-20.9,6"/>
			<path display="inline" fill="#FFFFFF" d="M187.3,96.8c-1.9,0.1-3.6-0.1-4.8-0.6c0,0,0.1-2.7,1.4-5.4
				C183.8,90.9,183.9,94.2,187.3,96.8z"/>
			<path display="inline" fill="#087527" d="M199,87.2c-2.6-1.4-5.9-2.3-9.3-1.6c-3.1,0.7-4.9,3-5.9,5.2c0,0.1,0,3.3,3.4,6
				c3.2-0.1,6.8-1,9.9-1.9C197.2,94.9,200.1,92.3,199,87.2z M192.2,93.6c-1.3,0.1-2.5-0.4-3.3-1.3c0,0.1,0,0.1,0,0.2
				c0,0.4-0.3,0.8-0.7,0.9c-0.4,0-0.8-0.3-0.8-0.7c0-0.4,0.3-0.8,0.7-0.9c0.2,0,0.3,0,0.5,0.1c-0.3-0.4-0.5-0.9-0.6-1.4
				c-0.7-0.2-1.2-0.8-1.3-1.7c-0.1-1.1,0.6-2.2,1.6-2.3c0.3,0,0.6,0,0.9,0.1c0.6-0.6,1.3-1,2.2-1c2.1-0.2,4,1.4,4.2,3.6
				C195.8,91.4,194.3,93.4,192.2,93.6z"/>
			<path display="inline" fill="none" d="M195.6,89.2c0.2,2.2-1.3,4.2-3.5,4.4c-1.3,0.1-2.5-0.4-3.3-1.3c0,0.1,0,0.1,0,0.2
				c0,0.4-0.3,0.8-0.7,0.9c-0.4,0-0.8-0.3-0.8-0.7c0-0.4,0.3-0.8,0.7-0.9c0.2,0,0.3,0,0.5,0.1c-0.3-0.4-0.5-0.9-0.6-1.4
				c-0.7-0.2-1.2-0.8-1.3-1.7c-0.1-1.1,0.6-2.2,1.6-2.3c0.3,0,0.6,0,0.9,0.1c0.6-0.6,1.3-1,2.2-1C193.5,85.3,195.4,87,195.6,89.2z"
				/>
			<path display="inline" fill="#FFFFFF" d="M203.5,91.7c0.1,0.7-2.7,2.1-6.3,3.2c0,0,3-2.6,1.8-7.7
				C201.6,88.6,203.4,90.6,203.5,91.7z"/>
			<path display="inline" d="M195.6,89.2c0.2,2.2-1.3,4.2-3.5,4.4c-1.3,0.1-2.5-0.4-3.3-1.3c-0.1-0.1-0.2-0.3-0.3-0.4
				c-0.3-0.4-0.5-0.9-0.6-1.4c0-0.1-0.1-0.3-0.1-0.4c-0.1-1.3,0.4-2.6,1.3-3.4c0.6-0.6,1.3-1,2.2-1C193.5,85.3,195.4,87,195.6,89.2z
				"/>
			<path display="inline" fill="#FFFFFF" d="M188.7,90.5c-0.3,0-0.5,0-0.7-0.1c-0.7-0.2-1.2-0.8-1.3-1.7c-0.1-1.1,0.6-2.2,1.6-2.3
				c0.3,0,0.6,0,0.9,0.1c0.6,0.3,1.1,0.9,1.2,1.7C190.5,89.5,189.8,90.4,188.7,90.5z"/>
			<path display="inline" fill="#FFFFFF" d="M189,92.5c0,0.4-0.3,0.8-0.7,0.9c-0.4,0-0.8-0.3-0.8-0.7c0-0.4,0.3-0.8,0.7-0.9
				c0.2,0,0.3,0,0.5,0.1c0.1,0.1,0.3,0.2,0.3,0.4C188.9,92.3,189,92.4,189,92.5z"/>
		</g>
	</g>
	<g id="Nez">
		<path id="Nez_2" fill="#F07E66" d="M180.9,102.5c0,0,1.5,3.3,2.3,4.6c1,1.5,2.6,3,2.6,3.9c0,0.9-2.3,2.6-3.2,3
			c-0.9,0.4,4.7-1.1,4.7-2.9C187.2,109.6,183.3,106.3,180.9,102.5z"/>
		<path fill="#F07E66" d="M179.5,114.1c0,0,0.3-0.2,0.5-0.6c0.3-0.4,1.1-0.9,1.5-0.7c0.4,0.2-0.2,1.1-0.7,1.2
			C180.4,114.1,179.8,113.9,179.5,114.1z"/>
		<path id="nez" display="none" fill="#F07E66" d="M177.5,99.9c0,0-9.5,9.1-4.8,14.8c1.4,1.6,7.4,1.5,12.6-6.6
			C185.4,108,179.1,103.3,177.5,99.9z"/>
	</g>
	<g id="Levres">
		<path fill="#7C3D2F" d="M182.9,122.7c0,0,1.4-1.3,2.2-2.3c0.8-1,5.6,2.1,8.9,2.3c0,0-1.2,1.8-3.3,3.5c-2.1,1.7-3.5,5.5-3.5,5.5
			s3.4,6.4-4.2,8.7c-7.6,2.3-22.1-4-23.1-7.3c-2.3-7.9-9.9-10.2-9.9-10.2s13.4,1,22,0.1c3.3-0.4,6-2.1,6.9-2.5
			C181.9,119.2,182.9,122.7,182.9,122.7z"/>
	</g>
	<path id="bouche" fill="#FFFFFF" d="M153.9,123.5c0,0,7.3,2.3,15.5,2.1s21.5-3.1,22.8-2.1s-2.5,3.9-3.9,7.1
		c-1.4,3.3-3.5,5.6-5.9,6.4s-8.5,1.4-17.7-1.6C155.5,132.4,153.4,124.5,153.9,123.5z"/>
	<g id="Sourcils">
		<path fill="#7C3D2F" d="M147.6,82.6c0,0,11.3-2,16.3-0.4c0,0,1.1-0.4,0-2.4c-1.1-2-11.9-0.8-11.9-0.8S146.4,79.5,147.6,82.6z"/>
		<path fill="#7C3D2F" d="M183.5,82c0,0,15.9-5.8,24.6-2c0,0,0-2.5-1.6-3.4c-1.6-0.9-21.7-0.5-23,1.8C182.2,80.8,183.5,82,183.5,82z
			"/>
	</g>
</g>
</svg>
