<?xml version="1.0" encoding="utf-8"?>
<!-- Generator: Adobe Illustrator 18.1.1, SVG Export Plug-In . SVG Version: 6.00 Build 0)  -->
<svg version="1.1" id="Calque_2" xmlns="http://www.w3.org/2000/svg" xmlns:xlink="http://www.w3.org/1999/xlink"
	 viewBox="0 0 91.4 100.6" enable-background="new 0 0 91.4 100.6" xml:space="preserve">
<path fill="#003249" stroke="#000000" stroke-miterlimit="10" d="M80.4,52.5c-6.3,16-4.8,37.5-29.8,45.3c-19.8,5.9-33.8-5.1-40.9-13
	c1,0.9,12.9,11.1,36.8,2c22.3-8,22.5-29.9,27.3-39c4.8-9,17-29.5,15.7-35.9C93.5,24.4,85.3,39.8,80.4,52.5z"/>
<path fill="#36b3a2" stroke="#000000" stroke-miterlimit="10" d="M73.9,47.9c-4.8,9-5,31-27.3,39c-23.9,9.1-35.8-1.1-36.8-2
	c0-0.1-0.1-0.1-0.1-0.1c-3.5-3.9-5.3-7-5.3-7c-15.5-31,25-48.3,35.8-54.8S70.9-5.5,83.9,3c2.9,2.7,4.7,5.7,5.7,8.9
	C90.9,18.4,78.7,38.8,73.9,47.9z"/>
<path fill="#7d3929" stroke="#000000" stroke-miterlimit="10" d="M20.5,67.8c-4.8-4.3-6.6-14.8,2.6-26c7.5-9.7,22.6-9.9,28.7-5.2
	s8,14.8-2,26.5C42.2,72.7,26.6,72.5,20.5,67.8z"/>
</svg>
