<?xml version="1.0" encoding="utf-8"?>
<!-- Generator: Adobe Illustrator 18.0.0, SVG Export Plug-In . SVG Version: 6.00 Build 0)  -->
<!DOCTYPE svg PUBLIC "-//W3C//DTD SVG 1.1//EN" "http://www.w3.org/Graphics/SVG/1.1/DTD/svg11.dtd">
<svg version="1.1" id="Слой_1" xmlns="http://www.w3.org/2000/svg" xmlns:xlink="http://www.w3.org/1999/xlink" x="0px" y="0px"
	 viewBox="0 0 768 1024" enable-background="new 0 0 768 1024" xml:space="preserve">
<path fill="#7D3929" d="M677.5,489.9c-70-81.9-178-126.8-317.5-131.2L359.2,224c0-9.3-5.4-17.7-13.7-21.7
	c-8.4-3.9-18.3-2.8-25.5,3.1L8.8,460.8C3.2,465.3,0,472.2,0,479.4c0,7.2,3.2,14,8.8,18.6L320,755.8c7.2,5.9,17.2,7.2,25.5,3.2
	c8.4-4,13.8-12.4,13.8-21.7l0.7-137.7c336.2-0.2,360.1,215.2,360.9,224.1c1,12.1,8.7,21.5,20.8,21.9h0.8
	c11.9-0.1,20.5-8.7,22.3-20.5C766,817,791.4,623.3,677.5,489.9z"/>
</svg>
