<?xml version="1.0" encoding="utf-8"?>
<!-- Generator: Adobe Illustrator 18.1.1, SVG Export Plug-In . SVG Version: 6.00 Build 0)  -->
<svg version="1.1" xmlns="http://www.w3.org/2000/svg" xmlns:xlink="http://www.w3.org/1999/xlink" 
	 viewBox="0 0 376 376" enable-background="new 0 0 376 376" xml:space="preserve">
<g id="Cheveux">
	<path id="Cheveux_Haut" display="none" fill="#7C3D2F" d="M146.3,131.1c0,0-32.7,7.6-48-13.1s-7-54-24-68.7c0,0,3.2-1.7,12,4
		c0,0-10.6-9.7-14-34.7c-3.3-25-3.7-35.3-12-42.7c0,0,9.7-0.7,19.7,8.7s7-34.3-0.7-43.7c0,0,18.3,4.7,33.7,19.7
		c0,0-1-17.7-12.7-21.7c0,0,1.7-4,23.7,8.7c0,0-7-19-6-28c0,0,3.3,12.7,13.7,23.7s-8.3-19,9.1-34.7c0,0,0.1,23,5.3,29.3
		c0,0-0.8-4.2,9.2-16.6c0,0-2.5,20.8,5.9,30.2c8.7,9.8,4.3-20.3,17.2-30.3c0,0,0,61.8,22.4,20.8c0,0-2.5,40.1,11.3,58
		c21.2,27.6,5,37,14.9,64c7.2,19.6-4.7,58.5-26.2,67.1S146.3,131.1,146.3,131.1z"/>
	<path id="Cheveux_bas_meche" fill="#7C3D2F" d="M140.5,174.8c0,0,33.3,6.8,36.8,4.3c3.5-2.5,7.5-12,7.5-12c3,2.5,6.5,9,6.5,9
		c1.6-3.1,1.2-12.3,1.2-12.3c2.2,4.5,8.2,8.2,8.2,8.2c-3.5-5.8,1-11.9,1-11.9c1.8,3.8,8.3,7.5,8.3,7.5c-2.8-7.5,3.3-15,3.3-15
		c3.3,0.3,8.5,5.5,8.5,5.5c-0.3-9.8-6.4-13.1-6.4-13.1c2.8,1.2,8.4,0,8.4,0c-4.8-4.1-4.8-11.9-4.8-11.9c2.3,1.8,7.3,0.3,7.3,0.3
		c-4-5.5-2-13.7-2-13.7c3.3,2.3,6.8,1.7,6.8,1.7c-4.5-5.5-4.8-20.8-1.5-27.9s6.3-33.4-4-57.9s-40.8-16-40.8-16s-28-18.7-55-4.7
		S95.1,56.3,91.1,69s-4,19.6-12.8,21.8c0,0,5.5,4.8,11.5,3.6c0,0-1.5,9.8-10.3,13.2c0,0,6,1.9,10.3,0c0,0,0.3,8-11.5,11.9
		c0,0,5.3,5,12.1,3.1c0,0-10.7,5.3-14,17.5c0,0,1.6-3.7,11.7-5.9c0,0-1.1,15.8-7.6,20.3c0,0,9.3,1.3,16.3-4c0,0-2.7,11.8-8.6,15.5
		c0,0,10.4,0.8,15-4.3c0,0-5.1,11-3.4,16c0,0,0.5-7.5,7.3-12.3c0,0-3.4,10.3,0.3,14.7c0,0,2.5-5.7,6.5-9c0,0,3.8,5,2,8.5
		c0,0,6-1.8,6.5-4.5c0,0,3,3.8,3.5,8.3S140.5,174.8,140.5,174.8z"/>
</g>
<g id="Bras_Gauche">
	<path id="Epaule_Gche" fill="#FFB292" d="M196.1,181.9c0,0,3.4,1.3,5.2,1.7c1.8,0.4,6.7,1.9,8.1,6.9c1.4,5,3.7,13.2,3.7,13.2
		l-5.3-3.8l-6.4-9.1L196.1,181.9z"/>
	<g id="Bras_Gauche_fruit">
		<path fill="#FFB292" d="M320.2,217.3c-0.4,0.1-0.9,0.1-1.3,0.1"/>
		<path id="D3" fill="#FFB292" d="M317,219.5c7.7-0.1,17.5-9.7,17.5-9.7s8-4.7,10.1-5.4c2.2-0.7,3.6-2.8-0.9-3
			c-4.4-0.1-14.5,6.8-14.5,6.8S317,218.1,317,219.5z"/>
		<path id="D2" fill="#FFB292" d="M351.1,208.8c-1.8,0.9-6.1,2.8-7.2,3.2c-0.4,0.1-2.3,0.9-4.8,1.8c-2.1,0.8-4.6,1.8-6.7,2.5
			c-1.7,0.6-3.1,1-3.8,1.1c-2.7,0.4-10.9,1.2-10.9,1.2c4.6-0.6,12-5.1,15.1-7.4c0,0,2.5,0,4-0.5s7.9-3.8,9.9-3.7
			C348.7,207.2,352.9,208,351.1,208.8z"/>
		<path id="D1" fill="#FFB292" d="M344.3,217.4c-1.4,2-11-1.4-11.9-1.1c2.1-0.7,4.6-1.7,6.7-2.5
			C339.1,213.8,345.7,215.4,344.3,217.4z"/>
		<path id="pouce" fill="#FFB292" d="M312.3,207.5c0,0-6.8,1.8-9.5,2.2c-6.5-1.8-15.7-3.8-24.9,1c0,0-0.3-4.1,7-5.3
			c7.3-1.3,17.9-0.3,19.1-0.6c1.2-0.3,8.7-4.7,11.2-2.1C317.6,205.3,312.3,207.5,312.3,207.5z"/>
		<g id="pasteque">
			<path fill="#7EA172" d="M309.6,102.3c0,0,0.1-1.3,0-3.5c-0.1-2.2,7.1-5.9,6.4-6.9c-0.7-0.9-4.8-2.8-8.3-1.5
				c-3.5,1.3-5.9,10-5.9,10c-0.2,0.7-0.2,1.6-0.1,2.4c-13.3,1.8-25.1,8-33.8,17.4c2.7,1.7,13-8.2,14.4-9.6
				c-1.9,2.1-17.1,19.7-19,23.8c-2,4.4-2,10.2-3.2,14.8c-1.1,4.6-5.4,6.1-5.4,6.1s0.9,12.2,4.1,13.5c0,0-3.8,4.1-2.2,9.1
				c0,0.1,0.1,0.2,0.1,0.3c0.1,0.2,0.1,0.4,0.2,0.6c0,0,0,0.1,0,0.1c8.1,21,28.5,34.3,52.5,34.3c31,0,54-30,56.2-54.8
				C368.6,126.1,340.6,102.3,309.6,102.3z M334,193.9c4.6-7.3,8.1-17.4,7.5-31v0c-1.3-5.2-10.6-6.4-10.6-6.4
				c-0.7-3,2.4-7.6,2.2-10.9c-0.2-3.3-8.5-10.2-8.5-10.2s1.1-1.3,1.1-9.1c0-7.8-8.6-18.1-8.6-18.1c1,0.8,2.1,1.8,3.4,3
				c0,0,26.8-0.6,34.1,40.4C355,153.7,354,178.8,334,193.9z M265.3,123.2c-2.4,3-4.4,6.2-6.1,9.7
				C267.6,129.2,265.3,123.2,265.3,123.2z"/>
			<path fill="#7EA172" d="M340.8,155.4c0,0-4.7-1.2-5.3-3.8c-0.6-2.5,3.4-6,3.4-6C339.7,148.6,340.3,151.9,340.8,155.4z"/>
			<path fill="#254441" d="M282.4,110.5c-1,1.2-17.2,19.7-19.2,24c-2,4.4-2,10.2-3.2,14.8c-1.1,4.6-5.4,6.1-5.4,6.1
				s0.9,12.2,4.1,13.5c0,0-3.8,4.1-2.2,9.1c-2.1-5.9-3.3-12.5-3.3-19.4c0-9.4,2.1-18.1,5.9-25.6c8.5-3.6,6.1-9.7,6.1-9.7
				c0.8-1,1.7-2,2.6-3C270.7,122,281.6,111.2,282.4,110.5z"/>
			<path fill="#254441" d="M360.5,158c-5.1,41.3-43.7,52.4-44.9,52.7c0.6-0.3,10.9-4.9,18.4-16.8c20.1-15.1,21-40.2,20.6-42.3
				c-7.3-41-34.1-40.4-34.1-40.4c-1.2-1.2-2.4-2.2-3.4-3c-2.6-2.1-4.4-3-4.4-3C327.4,104.5,365.7,116,360.5,158z"/>
			<path fill="#7C3D2F" d="M334,193.9c4.6-7.3,8.1-17.4,7.5-31v0c-0.1-1.7-0.2-3.4-0.4-5.1c-0.1-0.8-0.2-1.6-0.3-2.4
				c-0.5-3.5-1.1-6.8-1.8-9.8c-4.2-17.8-12.4-28.5-18.5-34.4c0,0,26.8-0.6,34.1,40.4C355,153.7,354,178.8,334,193.9z"/>
			<path fill="#254441" d="M296.7,107.1c0,0-4.3,5.7-4.4,9.2c-0.2,3.5-5,8.9-6.3,10c-1.3,1.1-5.9,7-4.8,8s4.1,8.1,4.1,8.1
				s7.6-7.2,11.5-9.4c3.9-2.2,2.4-5.5,2-8.2c-0.4-2.7-1.3-12.7,3.5-16c0,0-0.9,3.9,0,8.9c0.9,5-1.1,9.8,0,11.3
				c1.1,1.5,5.7,6.1,4.8,13.5c-0.9,7.4-10.9,11.5-10.9,17.6c0,6.1,4.1,11.1,4.1,11.1s-4.4,2.4-0.2,8.1c0,0-5.5,14.1-1.7,19.4
				c0,0-7.8-8.3-8.7-11.7c-0.9-3.3,4.1-6.8,3.5-9.4c-0.6-2.6-4.6,0.6-4.6-4.8c0-5.4-4.8-8.5-7.6-4.3c-2.8,4.3-2.9,8.9,0,10.7
				c0,0-1.5,8,1.8,13.9s8.9,13.7,8.7,14.8c-0.2,1.1-9.1-3-12.7-10.2s-4-20.3-4.9-21.6c-0.9-1.3-2,3-2,3s-4.4-6.8-4.4-11.1
				s1.5-9.6,1.5-12.2s-3.7-6.5-3.7-6.5s6.8-5.5,7.6-7.8s-2-9.8,0-10.2c2-0.4,8.5-3.7,9.1-4.6C282.5,125.8,288.4,106.3,296.7,107.1z"
				/>
			<path fill="#254441" d="M308.4,105.2c0,0,4.4,6.3,5.5,11.3s3,11.3,6.6,14.1c0,0-2.9,9.4-2.2,12c0.7,2.6,3.9,5.2,7.2,5.9
				c0,0-2.8,2.8-1.8,6.3c0.9,3.5,3.7,5.4,3.5,7.4s-5.4,6.3-5,8.5c0.4,2.2,5.7,8.3,5.9,11.8c0.2,3.5-2.8,5.5-3.1,2.2
				c-0.4-3.3-2.8,3.3-1.7,5c1.1,1.7,3.1,6.7,2.2,8c-0.9,1.3-4.9,5.7-4.3,7.4s-5.5-1-4.6-9.1c0.2-1.7,4.3-5.4,3.8-7.6
				c-0.5-2.2-7-5.5-6.4-10.2c0.6-4.6,3.5-12.2,3.3-17.8s-3.9-9.8-4.6-9.8c0,0,3.7-4.1,3.1-7.4s-2.6-7.4-3.1-8.9
				c-0.6-1.5-2.2-3.9-1.7-7c0.6-3.1,1.1-10.4-0.4-12.8l-4.6,3.9C306.1,118.5,309.5,109.8,308.4,105.2z"/>
			<path fill="#254441" d="M341.5,162.9c-1.3-5.2-10.6-6.4-10.6-6.4c-0.7-3,2.4-7.6,2.2-10.9c-0.2-3.3-8.5-10.2-8.5-10.2
				s1.1-1.3,1.1-9.1c0-7.8-8.6-18.1-8.6-18.1c1,0.8,2.1,1.8,3.4,3c6.1,5.9,14.2,16.6,18.5,34.4c0,0-4,3.5-3.4,6
				c0.6,2.5,5.3,3.8,5.3,3.8c0.1,0.8,0.2,1.6,0.3,2.4C341.3,159.5,341.4,161.2,341.5,162.9z"/>
			<path fill="none" stroke="#000000" stroke-miterlimit="10" d="M341.5,162.9L341.5,162.9C341.5,162.9,341.5,162.9,341.5,162.9"/>
			<path fill="none" stroke="#000000" stroke-miterlimit="10" d="M282.4,110.5C282.4,110.4,282.4,110.4,282.4,110.5
				C282.5,110.4,282.5,110.4,282.4,110.5"/>
			<path fill="none" stroke="#000000" stroke-miterlimit="10" d="M256.6,177.9c0,0.1,0.1,0.2,0.1,0.3c0.1,0.2,0.1,0.4,0.2,0.6
				c0,0,0,0.1,0,0.1"/>
		</g>
		<path id="D4" fill="#FFB292" d="M331.1,207.6c-4.4,4.2-10.7,8.5-11.5,9.1c-1.5,1-1.6,3.9-4.7,4.4c-3.1,0.5-21.5-1.9-26.2,2.5
			s-19.1,26.4-24.7,33.6c-5.6,7.2-20.3,23.1-20.3,23.1s-8.4,14.1-22.4,4.2c-14-9.9,8-21.8,8-21.8s17.8-14.7,22.8-18.5
			c5-3.8,18.2-21.3,18.2-21.3s1.3-9,7.6-12.3c9.2-4.8,18.4-2.9,24.9-1c3.4,1,6.1,1.9,7.7,1.9c4.7-0.1,10.2-2.3,11.7-3.1
			c1.5-0.8,11.5-9.4,13.5-8C336.5,201,334.4,204.4,331.1,207.6z"/>
	</g>
</g>
<g id="Corps">
	<path id="T-shirt_bleu" fill="#32CBFF" d="M122.8,179.1c-8.8,4.8-15.3,6.1-19.2,9.9c-12.5,12.2-10.4,61.7,4.4,69.6
		c22.8,12.1,25.7,32.7,30,40.9s2.5,23.4,1.7,33c-0.8,9.6,0,31.8,0,31.8s12.1,5.9,16.3,6.5s3.1-2.6,19.2-0.6
		c16.1,2,24.2-1.4,31.3-4.8c7-3.4,19.9,2.1,26.7-1.8c6.8-3.9,13.3-3,13.3-3s-4.6-16.4-10.3-26c-5.6-9.6-1.5-23.3-5.4-32.6
		c-3.9-9.3-0.1-17.1-0.1-17.1c12.9-15.8,12.2-24.4,11.5-31.4c-0.5-5-6.8-13.5-8.6-16.9c-1.8-3.2-14.8-24.2-15.9-25.8
		c-0.9-1.3-13.1-19.3-13.1-19.3s-4.9-8.8-9.7-10.2L122.8,179.1z"/>
	<path id="T-shirt_orange_1_" display="none" fill="#F3752B" d="M122.8,179.1c-8.8,4.8-15.3,6.1-19.2,9.9
		c-12.5,12.2-10.4,61.7,4.4,69.6c22.8,12.1,25.7,32.7,30,40.9s2.5,23.4,1.7,33c-0.8,9.6,0,31.8,0,31.8s12.1,5.9,16.3,6.5
		s3.1-2.6,19.2-0.6c16.1,2,24.2-1.4,31.3-4.8c7-3.4,19.9,2.1,26.7-1.8c6.8-3.9,13.3-3,13.3-3s-4.6-16.4-10.3-26
		c-5.6-9.6-1.5-23.3-5.4-32.6c-3.9-9.3-0.1-17.1-0.1-17.1c12.9-15.8,12.2-24.4,11.5-31.4c-0.5-5-6.8-13.5-8.6-16.9
		c-1.8-3.2-14.8-24.2-15.9-25.8c-0.9-1.3-13.1-19.3-13.1-19.3s-4.9-8.8-9.7-10.2L122.8,179.1z"/>
</g>
<g id="Bras_Dt">
	<g id="Bras_droit_vide">
		<path id="Bras_droit_Tshirt_ouvert_1_" fill="#FFB292" d="M123.1,260c0,0-6.8,35.7-4.8,39.3c2,3.7,11.7,33,14,38.3
			c2.3,5.3,19.9,38.3,19.9,38.3h-19.1c0,0-11.5-20.7-18.5-31S97,307.7,97,307.7s-1.6-0.2-1.3-8.3c0.3-8-3.4-69-3.8-88.5
			c-0.4-18.5,19.5-25.7,19.5-25.7s52.2,12.8,16.2,91.2c0,0-2.4-1.6-5.6-4.4S123.1,260,123.1,260z"/>
		<path id="Aiselles" fill="#F59D76" d="M121.1,271.2c0,0,2.1-25.7,1.5-31.7s3.9,0.3,4.3,2.9c0.3,2.7-1.7,0.4-1.7,0.4L121.1,271.2z"
			/>
	</g>
	<g id="Bras_haltere" display="none">
		<path display="inline" fill="#FFB292" d="M131,274.9c0,0,1.8,25.6-0.7,31.6c0,0-0.1,13.5-9.1,23.6c0,0-3.8,2.5-6.8,0
			c-3-2.5-31.6-31.4-40.9-72.3c0,0-5.2-21-13.1-29.5S48.9,215,49.2,207.9c0.3-7.1,0.2-12.6,1-14.5c0.8-1.8,2.6-4.4,6-4.1
			c3.5,0.3,3.8,2.7,3.8,2.7s1.2-1.3,4.6-0.8c3.4,0.5,4.6,2.9,4.6,2.9s4.6-1.4,7.4,2.3c0,0,3.1-1.2,6.1,2.4c3.1,3.6,0.9,8.4,0.9,8.4
			s1.4,1.2,2.7,9.7c1.2,8.5-1.1,9.1,1.5,18.3c2.7,9.2,8.2,20.6,13.9,26.6c0,0-4.7-9.6-2.5-21.4c0,0-11.7-24.5-4.5-41.1
			c7.2-16.6,22.7-10.7,22.7-10.7s5.1,1.9,8.8,5c3.7,3.1,13.2,17.9,14.2,36.2C141.3,245.8,131,274.9,131,274.9z"/>
		<path display="inline" fill="#FFB292" d="M131,274.9c0,0,1.8,25.6-0.7,31.6c0,0-0.1,13.5-9.1,23.6c0,0-3.8,2.5-6.8,0
			c-3-2.5-31.6-31.4-40.9-72.3c0,0-5.2-21-13.1-29.5S48.9,215,49.2,207.9c0.3-7.1,0.2-12.6,1-14.5c0.8-1.8,2.6-4.4,6-4.1
			c3.5,0.3,3.8,2.7,3.8,2.7s1.2-1.3,4.6-0.8c3.4,0.5,4.6,2.9,4.6,2.9s4.6-1.4,7.4,2.3c0,0,3.1-1.2,6.1,2.4c3.1,3.6,0.9,8.4,0.9,8.4
			s1.4,1.2,2.7,9.7c1.2,8.5-1.1,9.1,1.5,18.3c2.7,9.2,8.2,20.6,13.9,26.6c0,0-4.7-9.6-2.5-21.4c0,0-11.7-24.5-4.5-41.1
			c7.2-16.6,22.7-10.7,22.7-10.7s5.1,1.9,8.8,5c3.7,3.1,13.2,17.9,14.2,36.2C141.3,245.8,131,274.9,131,274.9z"/>
		<path display="inline" fill="#F59D76" d="M131,274.9c0,0,1.1-16.6-1.2-28.5c-2.2-11.9-3.7-18.8-2.4-23.2c1.5-4.9,7.7-2.9,11.3,2.4
			c0,0-7.5-5.1-10,0c0,0-0.2,2.8,2.1,20.5S131.8,270.7,131,274.9z"/>
		<path display="inline" fill="#F59D76" d="M101.8,261.9c0,0,1,3.3,3.9,5.7s5.3,3.9,8.1,7.4s10.4,20.6,11.5,28.8
			c0,0-0.4-12.5-6-23.8s-10.3-11.8-12.6-13.5S101.8,261.9,101.8,261.9z"/>
	</g>
	<g id="Haletre" display="none">
		<path display="inline" d="M97.6,187.4l-3.9-1.1l-3.2,3.8l-2.7,8.3l-1.6,17.9c0.3,1.7,0.5,3.8,0.5,5.8c0,4.5-0.2,6.5,0.1,8.7
			c0.2,1.3,0.7,3.1,0.7,3.1l2,0.8l1.7-1.9l4.3-17.7l2.8-20L97.6,187.4z"/>
		<path display="inline" fill="#42B3A3" d="M83.6,207c0,0,1.4,1.2,2.7,9.7c0.1,0.7,0.2,1.3,0.2,1.9c1.4,0.3,2.2,0.5,2.2,0.5
			s2.4,1.1,3.7-7.4c0-1.8,0.1-3.7,0.4-5.5c-0.2-4-1.7-4.3-1.7-4.3c-2.1,0-4.5-0.2-7-0.4C84.8,204.4,83.6,207,83.6,207z"/>
		<path display="inline" fill="#42B3A3" d="M49.7,212.9c-1.7-0.2-3.4-0.3-5-0.4l-0.2,0c-1-0.1-2-0.1-2.9-0.1c-0.6,0-1.3,0-1.9,0
			c0,0-2.5-0.9-1.6-9c1-8,4-8.2,4-8.2s0.6,0.1,1.7,0.3l2.7,0.5c0.2,0,0.3,0.1,0.5,0.1v0c0.8,0.1,1.6,0.3,2.5,0.5
			c-0.2,2.7-0.2,6.7-0.4,11.3C49.1,209.7,49.3,211.3,49.7,212.9z"/>
		<path display="inline" d="M44.2,189.9c0,1.4-0.4,5.6-0.4,5.6c-1.1-0.2-1.7-0.3-1.7-0.3s-3,0.2-4,8.2c-1,8,1.6,9,1.6,9
			c0.6,0,1.2,0,1.9,0c0,0-0.8,4-1.1,5c-0.8,3.2-2.5,9.5-4.5,9.2c-2.8-0.4-1.1-15.6-0.3-23.6c0.8-8,4.6-23.1,6.7-22.8
			C44,180.4,44.2,186.5,44.2,189.9z"/>
		<path display="inline" fill="#42B3A3" d="M47.5,190.1c0,0.9-0.3,5.1-0.4,6.1v0l-0.5-0.1l-2.7-0.5c0,0,0.4-4.2,0.4-5.6
			c0-3.5-0.2-9.5-1.8-9.7c-2.2-0.3-5.9,14.8-6.7,22.8c-0.8,8-2.5,23.2,0.3,23.6c2.1,0.3,3.8-6,4.5-9.2c0.3-1.1,1.1-5,1.1-5l2.9,0.1
			l0.2,0c0,0-0.7,4-0.9,5c-0.8,4-3.2,13.8-8.4,14.8l-10-1.4c0,0-3.1,0.3-3.8-9.4c-0.3-4.4-0.1-10.8,1.1-20.3
			c1.3-10.3,3.1-16.8,4.8-20.9c3.3-8.1,6.5-7,6.5-7l9.5,1.3C43.5,174.6,47.9,175.2,47.5,190.1z"/>
		<g display="inline">
			<path fill="#42B3A3" d="M87,231.8c0,0.1,0.1,0.3,0.1,0.4c0-0.2-0.1-0.3-0.1-0.5C87,231.8,87,231.8,87,231.8z"/>
			<path fill="#42B3A3" d="M104.9,183.2l-9.5-1.3c0,0-4.7-0.6-8.4,15.3c-0.1,0.4-0.6,4.2-0.7,4.6l3.1,0.2c0,0,0.7-3.5,0.8-4.1
				c0.7-2.7,2.9-10.5,4.7-10.3c2.2,0.3,1.7,15.8,0.2,23.8s-4,23-6.7,22.6c-0.6-0.1-1.1-0.8-1.4-1.8c0.7,2.7,2.3,7.7,2.3,7.7l8,1.1
				c0,0,6.2,2.4,10.7-27.9C112.6,183,104.9,183.2,104.9,183.2z"/>
		</g>
		<path display="inline" fill="#42B3A3" d="M27.7,180.3c0,0-5.8,12.8-5.8,41.3l-3.9-0.5c0,0-4.8-0.4-1.9-21.3s7.6-19.9,7.6-19.9
			L27.7,180.3z"/>
		<path display="inline" fill="#42B3A3" d="M109,192.7c0,0,2.1,13.9-5.8,41.3l3.9,0.5c0,0,4.7,0.9,7.7-20s-1.8-21.2-1.8-21.2
			L109,192.7z"/>
	</g>
</g>
<g id="Tete">
	<g id="Visage">
		<path id="Visage_1_" fill="#FFB292" d="M105.7,97.1c0,0,59.7-4.7,91.6-49.3c0,0,19.3,26.7,17.7,55c-0.6,11.3-5.6,21.5-9.9,30
			c-6.6,12.8-10.8,21.3-22.3,21.7c0,0-14.2,16.7,12,27c0,0,40.5,60.7,7.9,60.7c-31.8,0-47.4-54.7-78.7-62.7c0,0,17.1-1.8,17.4-38.4
			c0,0-17.1-14.6-19.3-24.9C122.1,116.1,105.1,118.8,105.7,97.1z"/>
		<path id="ombre" fill="#F59D76" d="M182.8,154.4C182.8,154.4,182.8,154.4,182.8,154.4C182.8,154.5,182.8,154.5,182.8,154.4
			c-0.4,0.5-1.7,2.2-2.7,4.8c0,0.1,0,0.1-0.1,0.2c-0.1,0.1-0.1,0.3-0.2,0.4c0,0,0,0.1,0,0.1c0,0,0,0,0,0c-0.6,0.2-25.2,9.9-43.7,8.7
			c2.9-5.7,5.2-14.4,5.3-27.6c0,0-0.9-0.8-2.3-2c-0.9-0.9-2.1-2-3.4-3.2c-0.2-0.2-0.5-0.5-0.7-0.7c-0.3-0.3-0.7-0.7-1-1
			c-0.2-0.2-0.4-0.5-0.6-0.7c-0.3-0.3-0.6-0.6-0.9-0.9c-0.3-0.3-0.6-0.6-0.9-0.9c-1.6-1.8-3.1-3.6-4.6-5.6c-0.1-0.2-0.3-0.3-0.4-0.5
			c-0.3-0.4-0.5-0.7-0.7-1.1c-0.1-0.2-0.2-0.4-0.4-0.5c-0.2-0.3-0.5-0.7-0.7-1.1c-0.5-0.9-1-1.8-1.5-2.6c-0.1-0.2-0.2-0.3-0.2-0.5
			c-0.3-0.6-0.5-1.1-0.7-1.7c0-0.1-0.1-0.3-0.1-0.4c0-0.1,0-0.1-0.1-0.2c-0.1-0.2-0.1-0.3-0.2-0.5c-0.1-0.3-0.1-0.5-0.2-0.8
			c0,0-17.1,2.7-16.4-19c0,0,0.6,0,1.8-0.2c0.1,0,0.2,0,0.3,0c0.1,0,0.2,0,0.3,0c0.1,0,0.2,0,0.3,0c0.1,0,0.2,0,0.4,0
			c0.2,0,0.4,0,0.6-0.1c0.6-0.1,1.2-0.2,1.8-0.3c0.4-0.1,0.7-0.1,1.1-0.2c0.1,0,0.1,0,0.2,0c0.3,0,0.6-0.1,0.9-0.2
			c0.2,0,0.3-0.1,0.5-0.1c0.3,0,0.6-0.1,0.9-0.2c0.3,0,0.5-0.1,0.8-0.1c0.4-0.1,0.7-0.1,1.1-0.2c0.2,0,0.4-0.1,0.6-0.1
			c0.6-0.1,1.2-0.3,1.9-0.4c0.2,0,0.4-0.1,0.7-0.1c0.4-0.1,0.9-0.2,1.3-0.3c1.5-0.3,3-0.7,4.6-1.1
			C125.8,93.4,130.2,152.1,182.8,154.4z"/>
	</g>
	<g id="Yeux">
		<path id="Oeil_droit_fermé" display="none" d="M147.2,93.5c0,0,4,3.7,10.5,3.5c6.5-0.2,11.3-2.8,12.3-2.3s-5.2,6.1-12.5,5.8
			S146,98.9,142.8,97C142.8,97,142.1,95.3,147.2,93.5z"/>
		<path id="Oeil_gauche_fermé" display="none" d="M208.9,90.8c0,0-3.1,3.1-8,3.6s-11.4-2-12.4-0.9c-1.5,1.5,6.7,4.6,12.3,4.6
			s12-4.4,12.5-5.3C213.3,92.8,210.7,90.8,208.9,90.8z"/>
		<g id="Oeil_Dt">
			<path fill="#FFFFFF" d="M151.5,96.4c-2.4-1-3.9-1.9-3.9-1.9c0.3-1.6,1-2.9,1.9-3.9C149.6,90.6,149.9,94.3,151.5,96.4z"/>
			<path fill="#FFFFFF" d="M154.2,94c0.1,0.5-0.2,1-0.7,1.1c-0.5,0.1-1-0.3-1-0.7c-0.1-0.5,0.2-1,0.7-1.1
				C153.6,93.2,154.1,93.5,154.2,94z"/>
			<path fill="none" d="M158.8,95c-1.8,0.3-4-0.9-4.6-2.8c-1,0-1.9-0.7-2.1-1.7c-0.2-1.1,0.5-2.1,1.6-2.3c0.5-0.1,0.9,0,1.3,0.2
				c0.7-0.8,1.6-1.4,2.6-1.6c2-0.3,4.3,1.4,4.6,3.5C162.6,92.4,160.8,94.6,158.8,95z"/>
			<path fill="#FFFFFF" d="M170.6,97.3C170.6,97.3,170.6,97.3,170.6,97.3c0,0.1,0,0.1,0,0.2c0,0.1,0,0.2,0,0.3c0,0.1,0,0.1,0,0.1
				c0,0,0,0,0,0c-3,1.1-6.1,1.4-9,1.1c0,0,0,0,0,0c-0.3,0-0.6-0.1-1-0.1c1.2-0.6,6.7-3.9,5.3-9.7C169.6,91.9,170.4,95.7,170.6,97.3z
				"/>
			<path d="M170.6,97.3c-0.2-1.5-1-5.4-4.6-8c-1.7-1.3-4.2-2.3-7.5-2.6c0,0-0.4,0-1,0.1c-1.8,0.3-5.6,1.1-8,3.8
				c-0.9,1-1.6,2.3-1.9,3.9c0,0,1.5,0.9,3.9,1.9c0,0,0,0,0,0c2.4,1,5.6,2.1,9.2,2.5c-0.1,0.1-0.2,0.1-0.2,0.1
				c-14.4,0-22.2-5.5-22.2-5.5c2.1,0.3,5.7-0.4,5.7-0.4c-5.7-1.6-5.7-3.9-5.7-3.9s1.5,1,3.2,0.7s6-4.5,11.9-5.2
				c5.8-0.7,10.4-0.4,13.8,3C169.8,90.7,170.5,95.5,170.6,97.3z"/>
			<path fill="#087527" d="M166,89.3c-1.7-1.3-4.2-2.3-7.5-2.6c0,0-0.4,0-1,0.1c2-0.3,4.3,1.4,4.6,3.5c0.4,2.1-1.4,4.3-3.4,4.6
				c-1.8,0.3-4-0.9-4.6-2.8c-1,0-1.9-0.7-2.1-1.7c-0.2-1.1,0.5-2.1,1.6-2.3c0.5-0.1,0.9,0,1.3,0.2c0.7-0.8,1.6-1.4,2.6-1.6
				c-1.8,0.3-5.6,1.1-8,3.8c0,0,0.4,3.7,1.9,5.8c0,0,0,0,0,0c2.4,1,5.6,2.1,9.2,2.5C161.9,98.4,167.4,95.1,166,89.3z M153.4,95.1
				c-0.5,0.1-1-0.3-1-0.7c-0.1-0.5,0.2-1,0.7-1.1c0.5-0.1,1,0.2,1.1,0.7C154.3,94.5,153.9,95,153.4,95.1z"/>
			<path d="M162.2,90.3c0.4,2.1-1.4,4.3-3.4,4.6c-1.8,0.3-4-0.9-4.6-2.8c-0.1-0.2-0.1-0.4-0.2-0.6c-0.2-1.1,0.3-2.3,1-3.2
				c0.7-0.8,1.6-1.4,2.6-1.6C159.6,86.5,161.8,88.2,162.2,90.3z"/>
			<path fill="#FFFFFF" d="M156,89.8c0.2,1.1-0.5,2.1-1.6,2.3c-0.1,0-0.2,0-0.3,0c-1,0-1.9-0.7-2.1-1.7c-0.2-1.1,0.5-2.1,1.6-2.3
				c0.5-0.1,0.9,0,1.3,0.2C155.5,88.7,155.9,89.2,156,89.8z"/>
			<path fill="#FFFFFF" d="M154.2,94c0.1,0.5-0.2,1-0.7,1.1c-0.5,0.1-1-0.3-1-0.7c-0.1-0.5,0.2-1,0.7-1.1
				C153.6,93.2,154.1,93.5,154.2,94z"/>
		</g>
		<g id="Oeil_Gche">
			<path d="M187.8,95.6c-0.4-2.5,0-11.6,8.2-13.3c8.2-1.7,16.1,5.4,16.1,5.4c4.1,0.1,5.5-1.5,5.5-1.5s0,2.2-5.3,3.7
				c0,0,1.7,0.8,5.6-0.1c0,0-1.9,3.5-20.9,6"/>
			<path fill="#FFFFFF" d="M192.6,96.2c-1.9,0.1-3.6-0.1-4.8-0.6c0,0,0.1-2.7,1.4-5.4C189.2,90.3,189.2,93.5,192.6,96.2z"/>
			<path fill="#087527" d="M204.3,86.5c-2.6-1.4-5.9-2.3-9.3-1.6c-3.1,0.7-4.9,3-5.9,5.2c0,0.1,0,3.3,3.4,6c3.2-0.1,6.8-1,9.9-1.9
				C202.5,94.3,205.5,91.7,204.3,86.5z M197.5,92.9c-1.3,0.1-2.5-0.4-3.3-1.3c0,0.1,0,0.1,0,0.2c0,0.4-0.3,0.8-0.7,0.9
				c-0.4,0-0.8-0.3-0.8-0.7c0-0.4,0.3-0.8,0.7-0.9c0.2,0,0.3,0,0.5,0.1c-0.3-0.4-0.5-0.9-0.6-1.4c-0.7-0.2-1.2-0.8-1.3-1.7
				c-0.1-1.1,0.6-2.2,1.6-2.3c0.3,0,0.6,0,0.9,0.1c0.6-0.6,1.3-1,2.2-1c2.1-0.2,4,1.4,4.2,3.6C201.2,90.7,199.6,92.7,197.5,92.9z"/>
			<path fill="none" d="M201,88.5c0.2,2.2-1.3,4.2-3.5,4.4c-1.3,0.1-2.5-0.4-3.3-1.3c0,0.1,0,0.1,0,0.2c0,0.4-0.3,0.8-0.7,0.9
				c-0.4,0-0.8-0.3-0.8-0.7c0-0.4,0.3-0.8,0.7-0.9c0.2,0,0.3,0,0.5,0.1c-0.3-0.4-0.5-0.9-0.6-1.4c-0.7-0.2-1.2-0.8-1.3-1.7
				c-0.1-1.1,0.6-2.2,1.6-2.3c0.3,0,0.6,0,0.9,0.1c0.6-0.6,1.3-1,2.2-1C198.9,84.7,200.8,86.3,201,88.5z"/>
			<path fill="#FFFFFF" d="M208.8,91c0.1,0.7-2.7,2.1-6.3,3.2c0,0,3-2.6,1.8-7.7C206.9,88,208.7,89.9,208.8,91z"/>
			<path d="M201,88.5c0.2,2.2-1.3,4.2-3.5,4.4c-1.3,0.1-2.5-0.4-3.3-1.3c-0.1-0.1-0.2-0.3-0.3-0.4c-0.3-0.4-0.5-0.9-0.6-1.4
				c0-0.1-0.1-0.3-0.1-0.4c-0.1-1.3,0.4-2.6,1.3-3.4c0.6-0.6,1.3-1,2.2-1C198.9,84.7,200.8,86.3,201,88.5z"/>
			<path fill="#FFFFFF" d="M194.1,89.8c-0.3,0-0.5,0-0.7-0.1c-0.7-0.2-1.2-0.8-1.3-1.7c-0.1-1.1,0.6-2.2,1.6-2.3
				c0.3,0,0.6,0,0.9,0.1c0.6,0.3,1.1,0.9,1.2,1.7C195.8,88.8,195.1,89.7,194.1,89.8z"/>
			<path fill="#FFFFFF" d="M194.3,91.8c0,0.4-0.3,0.8-0.7,0.9c-0.4,0-0.8-0.3-0.8-0.7c0-0.4,0.3-0.8,0.7-0.9c0.2,0,0.3,0,0.5,0.1
				c0.1,0.1,0.3,0.2,0.3,0.4C194.3,91.7,194.3,91.7,194.3,91.8z"/>
		</g>
	</g>
	<g id="Nez">
		<path id="Nez_2" fill="#F07E66" d="M186.2,101.8c0,0,1.5,3.3,2.3,4.6c1,1.5,2.6,3,2.6,3.9s-2.3,2.6-3.2,3
			c-0.9,0.4,4.7-1.1,4.7-2.9C192.6,109,188.6,105.6,186.2,101.8z"/>
		<path fill="#F07E66" d="M184.8,113.4c0,0,0.3-0.2,0.5-0.6c0.3-0.4,1.1-0.9,1.5-0.7c0.4,0.2-0.2,1.1-0.7,1.2
			S185.1,113.3,184.8,113.4z"/>
		<path id="nez" display="none" fill="#F07E66" d="M182.8,99.3c0,0-9.5,9.1-4.8,14.8c1.4,1.6,7.4,1.5,12.6-6.6
			C190.7,107.4,184.5,102.6,182.8,99.3z"/>
	</g>
	<g id="Levres">
		<path fill="#7C3D2F" d="M188.2,122c0,0,1.4-1.3,2.2-2.3s5.6,2.1,8.9,2.3c0,0-1.2,1.8-3.3,3.5c-2.1,1.7-3.5,5.5-3.5,5.5
			s3.4,6.4-4.2,8.7s-22.1-4-23.1-7.3c-2.3-7.9-9.9-10.2-9.9-10.2s13.4,1,22,0.1c3.3-0.4,6-2.1,6.9-2.5
			C187.3,118.5,188.2,122,188.2,122z"/>
	</g>
	<path id="bouche" fill="#FFFFFF" d="M159.2,122.9c0,0,7.3,2.3,15.5,2.1s21.5-3.1,22.8-2.1s-2.5,3.9-3.9,7.1s-3.5,5.6-5.9,6.4
		s-8.5,1.4-17.7-1.6C160.8,131.8,158.7,123.9,159.2,122.9z"/>
	<g id="Sourcils">
		<path fill="#7C3D2F" d="M153,82c0,0,11.3-2,16.3-0.4c0,0,1.1-0.4,0-2.4s-11.9-0.8-11.9-0.8S151.7,78.8,153,82z"/>
		<path fill="#7C3D2F" d="M188.8,81.3c0,0,15.9-5.8,24.6-2c0,0,0-2.5-1.6-3.4c-1.6-0.9-21.7-0.5-23,1.8
			C187.5,80.1,188.8,81.3,188.8,81.3z"/>
	</g>
</g>
</svg>
