<?xml version="1.0" encoding="utf-8"?>
<!-- Generator: Adobe Illustrator 18.1.1, SVG Export Plug-In . SVG Version: 6.00 Build 0)  -->
<svg version="1.1" xmlns="http://www.w3.org/2000/svg" xmlns:xlink="http://www.w3.org/1999/xlink" x="0px" y="0px"
	 viewBox="87.2 7.3 639.5 582.5" enable-background="new 87.2 7.3 639.5 582.5" xml:space="preserve">
<g id="Cercle_1_">
	<circle id="Cercle" fill="#FFFFFF" cx="378.4" cy="298.6" r="291.3"/>
</g>
<g id="Calque_3">
	<path id="Cheveux_bas_meche" fill="#7C3D2F" d="M339.5,310.5c0,0,57.4,11.7,63.4,7.4c6-4.3,12.9-20.7,12.9-20.7
		c5.2,4.3,11.2,15.5,11.2,15.5c2.8-5.3,2.1-21.2,2.1-21.2c3.8,7.8,14.1,14.1,14.1,14.1c-6-10,1.7-20.5,1.7-20.5
		c3.1,6.6,14.3,12.9,14.3,12.9c-4.8-12.9,5.7-25.9,5.7-25.9c5.7,0.5,14.7,9.5,14.7,9.5c-0.5-16.9-11-22.6-11-22.6
		c4.8,2.1,14.5,0,14.5,0c-8.3-7.1-8.3-20.5-8.3-20.5c4,3.1,12.6,0.5,12.6,0.5c-6.9-9.5-3.4-23.6-3.4-23.6c5.7,4,11.7,2.9,11.7,2.9
		c-7.8-9.5-8.3-35.9-2.6-48.1c5.7-12.2,10.9-57.6-6.9-99.8s-70.3-27.6-70.3-27.6s-48.3-32.2-94.8-8.1s-59.8,71.4-66.7,93.3
		s-6.9,33.8-22.1,37.6c0,0,9.5,8.3,19.8,6.2c0,0-2.6,16.9-17.8,22.8c0,0,10.3,3.3,17.8,0c0,0,0.5,13.8-19.8,20.5
		c0,0,9.1,8.6,20.9,5.3c0,0-18.4,9.1-24.1,30.2c0,0,2.8-6.4,20.2-10.2c0,0-1.9,27.2-13.1,35c0,0,16,2.2,28.1-6.9
		c0,0-4.7,20.3-14.8,26.7c0,0,17.9,1.4,25.9-7.4c0,0-8.8,19-5.9,27.6c0,0,0.9-12.9,12.6-21.2c0,0-5.9,17.8,0.5,25.3
		c0,0,4.3-9.8,11.2-15.5c0,0,6.6,8.6,3.4,14.7c0,0,10.3-3.1,11.2-7.8c0,0,5.2,6.6,6,14.3C315.2,333.1,339.5,310.5,339.5,310.5z"/>
	<path fill="#B347AF" d="M514.8,446.2c-0.9-8.6-11.7-23.3-14.8-29.1c-3.1-5.5-25.5-41.7-27.4-44.5c-1.6-2.2-22.6-33.3-22.6-33.3
		s-8.4-15.2-16.7-17.6L309,317.9c-15.2,8.3-26.4,10.5-33.1,17.1c-21.6,21-17.9,106.4,7.6,120c39.3,20.9,44.3,56.4,51.7,70.5
		c7.4,14.1,4.3,40.3,2.9,56.9c-0.1,1.4-0.2,3-0.3,4.6c13.3,1.9,26.8,2.8,40.6,2.8c43,0,83.8-9.3,120.6-26.1c-0.7-12,0.2-24.4-3.8-34
		c-6.7-16-0.2-29.5-0.2-29.5C517.3,473.1,516.1,458.2,514.8,446.2z"/>
	<g id="Tete">
		<g id="Visage">
			<path id="Visage_1_" fill="#FFB292" d="M279.5,176.5c0,0,102.9-8.1,157.9-85c0,0,33.3,46,30.5,94.8c-1,19.5-9.7,37.1-17.1,51.7
				c-11.4,22.1-18.6,36.7-38.4,37.4c0,0-24.5,28.8,20.7,46.6c0,0,69.8,104.7,13.6,104.7c-54.8,0-81.7-94.3-135.7-108.1
				c0,0,29.5-3.1,30-66.2c0,0-29.5-25.2-33.3-42.9C307.8,209.3,278.5,213.9,279.5,176.5z"/>
			<path id="ombre" fill="#F59D76" d="M412.4,275.3L412.4,275.3C412.4,275.5,412.4,275.5,412.4,275.3c-0.7,0.9-2.9,3.8-4.7,8.3
				c0,0.2,0,0.2-0.2,0.3c-0.2,0.2-0.2,0.5-0.3,0.7v0.2l0,0c-1,0.3-43.4,17.1-75.3,15c5-9.8,9-24.8,9.1-47.6c0,0-1.6-1.4-4-3.4
				c-1.6-1.6-3.6-3.4-5.9-5.5c-0.3-0.3-0.9-0.9-1.2-1.2c-0.5-0.5-1.2-1.2-1.7-1.7c-0.3-0.3-0.7-0.9-1-1.2c-0.5-0.5-1-1-1.6-1.6
				c-0.5-0.5-1-1-1.6-1.6c-2.8-3.1-5.3-6.2-7.9-9.7c-0.2-0.3-0.5-0.5-0.7-0.9c-0.5-0.7-0.9-1.2-1.2-1.9c-0.2-0.3-0.3-0.7-0.7-0.9
				c-0.3-0.5-0.9-1.2-1.2-1.9c-0.9-1.6-1.7-3.1-2.6-4.5c-0.2-0.3-0.3-0.5-0.3-0.9c-0.5-1-0.9-1.9-1.2-2.9c0-0.2-0.2-0.5-0.2-0.7
				s0-0.2-0.2-0.3c-0.2-0.3-0.2-0.5-0.3-0.9c-0.2-0.5-0.2-0.9-0.3-1.4c0,0-29.5,4.7-28.3-32.8c0,0,1,0,3.1-0.3c0.2,0,0.3,0,0.5,0
				c0.2,0,0.3,0,0.5,0c0.2,0,0.3,0,0.5,0c0.2,0,0.3,0,0.7,0s0.7,0,1-0.2c1-0.2,2.1-0.3,3.1-0.5c0.7-0.2,1.2-0.2,1.9-0.3
				c0.2,0,0.2,0,0.3,0c0.5,0,1-0.2,1.6-0.3c0.3,0,0.5-0.2,0.9-0.2c0.5,0,1-0.2,1.6-0.3c0.5,0,0.9-0.2,1.4-0.2
				c0.7-0.2,1.2-0.2,1.9-0.3c0.3,0,0.7-0.2,1-0.2c1-0.2,2.1-0.5,3.3-0.7c0.3,0,0.7-0.2,1.2-0.2c0.7-0.2,1.6-0.3,2.2-0.5
				c2.6-0.5,5.2-1.2,7.9-1.9C314.2,170.1,321.7,271.3,412.4,275.3z"/>
		</g>
		<g id="Yeux">
			<path id="Oeil_droit_fermé" d="M351.1,170.3c0,0,6.9,6.4,18.1,6c11.2-0.3,19.5-4.8,21.2-4c1.7,0.9-9,10.5-21.6,10
				c-12.6-0.5-19.8-2.8-25.3-6C343.5,176.3,342.3,173.4,351.1,170.3z"/>
			<path id="Oeil_gauche_fermé" d="M457.4,165.7c0,0-5.3,5.3-13.8,6.2c-8.4,0.9-19.7-3.4-21.4-1.6c-2.6,2.6,11.6,7.9,21.2,7.9
				s20.7-7.6,21.6-9.1C465,169.1,460.5,165.7,457.4,165.7z"/>
		</g>
		<g id="Nez">
			<path id="Nez_2" fill="#F07E66" d="M418.3,184.6c0,0,2.6,5.7,4,7.9c1.7,2.6,4.5,5.2,4.5,6.7c0,1.6-4,4.5-5.5,5.2s8.1-1.9,8.1-5
				C429.3,197,422.4,191.2,418.3,184.6z"/>
			<path fill="#F07E66" d="M415.9,204.6c0,0,0.5-0.3,0.9-1c0.5-0.7,1.9-1.6,2.6-1.2c0.7,0.3-0.3,1.9-1.2,2.1
				S416.4,204.4,415.9,204.6z"/>
			<path id="nez" display="none" fill="#F07E66" d="M412.4,180.3c0,0-16.4,15.7-8.3,25.5c2.4,2.8,12.8,2.6,21.7-11.4
				C426.1,194.3,415.4,186,412.4,180.3z"/>
		</g>
		<g id="Levres">
			<path fill="#7C3D2F" d="M421.7,219.4c0,0,2.4-2.2,3.8-4c1.4-1.7,9.7,3.6,15.3,4c0,0-2.1,3.1-5.7,6c-3.6,2.9-6,9.5-6,9.5
				s5.9,11-7.2,15c-13.1,4-38.1-6.9-39.8-12.6c-4-13.6-17.1-17.6-17.1-17.6s23.1,1.7,37.9,0.2c5.7-0.7,10.3-3.6,11.9-4.3
				C420.2,213.4,421.7,219.4,421.7,219.4z"/>
		</g>
		<path id="bouche" fill="#FFFFFF" d="M371.7,221c0,0,12.6,4,26.7,3.6c14.1-0.3,37.1-5.3,39.3-3.6s-4.3,6.7-6.7,12.2
			c-2.4,5.5-6,9.7-10.2,11c-4.1,1.4-14.7,2.4-30.5-2.8C374.5,236.3,370.9,222.7,371.7,221z"/>
		<g id="Sourcils">
			<path fill="#7C3D2F" d="M361.1,150.5c0,0,19.5-3.4,28.1-0.7c0,0,1.9-0.7,0-4.1c-1.9-3.4-20.5-1.4-20.5-1.4S358.8,145,361.1,150.5
				z"/>
			<path fill="#7C3D2F" d="M422.8,149.3c0,0,27.4-10,42.4-3.4c0,0,0-4.3-2.8-5.9c-2.8-1.6-37.4-0.9-39.7,3.1
				C420.5,147.2,422.8,149.3,422.8,149.3z"/>
		</g>
	</g>
	<g id="Calque_12">
		<path fill="#FFB292" d="M511.7,349.8c0,0-2.6,6.7-3.4,7.8c0,0,1.9,4.8,1,7.2c-0.9,2.4-3.8,12.4-5.2,13.4c0,0-4.1,12.9-5.3,15
			c-1.2,2.1-5.3,12.4-6.4,19.1c-1,6.7-12.4,18.4-20.3,25c-7.9,6.6-14,5.2-16.9,10c0,0-15,14.3-18.8,19c-3.8,4.7-38.4,57.4-77.4,76.6
			c0,0-6.2,11.7-11.9,6.2c0,0-10.2-11.2-17.1-16.6c-8.6-6.9-52.2-46.9-67.4-85.3c-15.2-38.6-28.6-93.1,1.9-104.5
			c0,0,12.2-7.9,15.3-8.8c3.1-0.9,51.9,17.8,49.8,76.4c0,0-0.3,30.3-5.9,38.8c0,0,12.2,16.6,15.9,22.6c3.6,6.4,12.9,27.2,12.9,27.2
			c7.6-10.5,38.1-23.4,51.4-33.3c13.3-9.8,36.6-35.7,36.6-35.7s3.4-5.9,4-7.8c0.5-1.7,2.8-17.9,4.1-19.8c1.4-1.9,1.2-9.7,2.6-14.3
			c1.6-4.7,4.7-8.3,6.9-12.4c2.2-4.1,4.5-13.4,4.1-15.7c-0.3-2.2-1.2-4.7,1.4-5c2.6-0.2,6.7,1.9,7.4,3.1c0,0,1.2-3.6,4.7-5.7
			c3.6-1.9,14.1-12.4,16-13.8c1.7-1.4,4.1-3.4,7.9-0.7c0,0,5.9-5.2,7.2-4.8s3.6,0.9,4,5.3c0,0,0.3,1.9,0.5,2.9
			C511.4,342.5,512.4,345.1,511.7,349.8z"/>
		<path fill="#F59D76" d="M453.3,383.6c-0.9,1.4-1.6,2.9-2.1,4.5c-1.4,4.7-1.2,12.4-2.6,14.3c-1.4,1.9-3.8,18.1-4.1,19.8
			c-0.2,0.9-1,2.4-1.7,4l-1.2-0.5c0,0,2.1-2.2,2.1-3.1c0-0.7,2.4-13.6,2.8-14.7c0.3-1,0.7-4.5,1.2-5.2c0.5-0.7,1.4-1.6,1.4-2.4
			s1-9.1,1-10.5c0.2-1.4,0.7-3.1,1.2-3.8s1.9-3.3,1.9-3.3L453.3,383.6z"/>
		<path fill="#F59D76" d="M323.8,449.1c0,0-10-19.8-16-28.8s-1-11.7-1-11.7s-1.4,1.9,1.4,9.1c2.6,7.1,13.4,24.7,16.7,29.8
			L323.8,449.1z"/>
		<path fill="#F59D76" d="M470.9,358.2c0,0-5.2,5.2-8.1,12.1c0,0-3.4,2.1-3.6,4.5c0,0,2.1-3.1,3.8-4.1c1.6-0.9,1.6-4.8,7.8-12.1
			v-0.3H470.9z"/>
		<path fill="#FFB292" d="M512.1,350.8c0,0,4.1,1,1,17.8c0,0,0.2,7.6,1.2,10.7c1,3.3,1.7,8.4,0.5,11c-1,2.4-5.2,7.8-6.2,10.7
			c-1,2.9-2.4,13.1-4.8,19.1c-2.4,6-4.1,10.3-6.6,13.6c-2.4,3.3-5.9,6.9-3.6,11.2c0,0,4.1,8.1,10.5,12.1l10.5,5.5
			c0,0,1-9.7,0.2-14.5c3.8,3.3,26.7,35.2,29.7,56.2c2.9,21-9.7,26.2-9.7,26.2c-1.7,8.4-8.8,2.9-8.8,2.9
			c-16.6-2.2-42.6-39.5-47.4-57.6c-4.8-18.1-13.4-37.9-13.4-37.9c-2.1-7.8,26.6-80.7,32.1-87.2C502.8,344.4,512.1,350.8,512.1,350.8
			"/>
		<path fill="#F59D76" d="M514.7,462.5c0,0,7.9,4.5,10,6.7c0,0-7.1-7.2-10-7.6"/>
		<path fill="#F59D76" d="M511.1,362.9c0,1-1,4.1-1.4,5.7c-0.5,1.6-3.3,9.1-3.8,9.5s-2.1,3.8-2.2,5.9c-0.3,2.2-3.4,10.3-4.7,12.4
			c-1.2,2.1-3.6,9.1-4.1,10.7c-0.5,1.6-0.7,5.2-0.9,6.9c-0.3,1.6-5,8.6-5,8.6s-6.9,8.1-8.3,9.5c-1.2,1.6-7.8,6.4-8.8,7.2
			c-0.9,0.7-3.1,1-4.3,1.4c1.4-0.7,2.9-1.7,4.5-3.1c7.9-6.6,19.3-18.3,20.3-25c1-6.7,5.2-17.1,6.4-19.1s5.3-15,5.3-15
			c1.4-1,4.3-11.2,5.2-13.4c0.9-2.4-1-7.2-1-7.2c0.2-0.2,0.5-0.9,0.9-1.6C509.3,356.7,511.1,362,511.1,362.9z"/>
	</g>
</g>
</svg>
