<?xml version="1.0" encoding="utf-8"?>
<!-- Generator: Adobe Illustrator 18.0.0, SVG Export Plug-In . SVG Version: 6.00 Build 0)  -->
<!DOCTYPE svg PUBLIC "-//W3C//DTD SVG 1.1//EN" "http://www.w3.org/Graphics/SVG/1.1/DTD/svg11.dtd">
<svg version="1.1" id="Calque_1" xmlns="http://www.w3.org/2000/svg" xmlns:xlink="http://www.w3.org/1999/xlink" x="0px" y="0px"
	 viewBox="0 0 678.1 609" enable-background="new 0 0 678.1 609" xml:space="preserve">
<circle fill="#FFFFFF" cx="328.4" cy="306.3" r="275.8"/>
<g id="Cheveux">
	<path id="Cheveux_Haut" display="none" fill="#7C3D2F" d="M302.5,245.4c0,0-53,12.3-77.8-21.2s-11.3-87.5-38.9-111.3
		c0,0,5.2-2.8,19.4,6.5c0,0-17.2-15.7-22.7-56.2c-5.3-40.5-6-57.2-19.4-69.2c0,0,15.7-1.1,31.9,14.1s11.3-55.6-1.1-70.8
		c0,0,29.7,7.6,54.6,31.9c0,0-1.6-28.7-20.6-35.2c0,0,2.8-6.5,38.4,14.1c0,0-11.3-30.8-9.7-45.4c0,0,5.3,20.6,22.2,38.4
		s-13.5-30.8,14.7-56.2c0,0,0.2,37.3,8.6,47.5c0,0-1.3-6.8,14.9-26.9c0,0-4.1,33.7,9.6,48.9c14.1,15.9,7-32.9,27.9-49.1
		c0,0,0,100.2,36.3,33.7c0,0-4.1,65,18.3,94c34.4,44.7,8.1,60,24.1,103.7c11.7,31.8-7.6,94.8-42.5,108.7
		C356,259.3,302.5,245.4,302.5,245.4z"/>
	<path id="Cheveux_bas_meche" fill="#7C3D2F" d="M293.1,316.2c0,0,54,11,59.6,7c5.7-4.1,12.2-19.4,12.2-19.4
		c4.9,4.1,10.5,14.6,10.5,14.6c2.6-5,1.9-19.9,1.9-19.9c3.6,7.3,13.3,13.3,13.3,13.3c-5.7-9.4,1.6-19.3,1.6-19.3
		c2.9,6.2,13.5,12.2,13.5,12.2c-4.5-12.2,5.3-24.3,5.3-24.3c5.3,0.5,13.8,8.9,13.8,8.9c-0.5-15.9-10.4-21.2-10.4-21.2
		c4.5,1.9,13.6,0,13.6,0c-7.8-6.6-7.8-19.3-7.8-19.3c3.7,2.9,11.8,0.5,11.8,0.5c-6.5-8.9-3.2-22.2-3.2-22.2c5.3,3.7,11,2.8,11,2.8
		c-7.3-8.9-7.8-33.7-2.4-45.2s10.2-54.1-6.5-93.8s-66.1-25.9-66.1-25.9s-45.4-30.3-89.1-7.6s-56.2,67.1-62.7,87.7
		s-6.5,31.8-20.7,35.3c0,0,8.9,7.8,18.6,5.8c0,0-2.4,15.9-16.7,21.4c0,0,9.7,3.1,16.7,0c0,0,0.5,13-18.6,19.3c0,0,8.6,8.1,19.6,5
		c0,0-17.3,8.6-22.7,28.4c0,0,2.6-6,19-9.6c0,0-1.8,25.6-12.3,32.9c0,0,15.1,2.1,26.4-6.5c0,0-4.4,19.1-13.9,25.1
		c0,0,16.9,1.3,24.3-7c0,0-8.3,17.8-5.5,25.9c0,0,0.8-12.2,11.8-19.9c0,0-5.5,16.7,0.5,23.8c0,0,4.1-9.2,10.5-14.6
		c0,0,6.2,8.1,3.2,13.8c0,0,9.7-2.9,10.5-7.3c0,0,4.9,6.2,5.7,13.5S293.1,316.2,293.1,316.2z"/>
</g>
<g id="Bras_Gauche">
	<path id="Epaule_Gche" fill="#FFB292" d="M383.2,327.7c0,0,5.5,2.1,8.4,2.8c2.9,0.6,10.9,3.1,13.1,11.2c2.3,8.1,6,21.4,6,21.4
		l-8.6-6.2l-10.4-14.7L383.2,327.7z"/>
	<g id="Bras_Gauche_fruit">
		<path fill="#FFB292" d="M584.4,385.1c-0.6,0.2-1.5,0.2-2.1,0.2"/>
		<path id="D3" fill="#FFB292" d="M579.2,388.7c12.5-0.2,28.4-15.7,28.4-15.7s13-7.6,16.4-8.8c3.6-1.1,5.8-4.5-1.5-4.9
			c-7.1-0.2-23.5,11-23.5,11S579.2,386.4,579.2,388.7z"/>
		<path id="D2" fill="#FFB292" d="M634.4,371.3c-2.9,1.5-9.9,4.5-11.7,5.2c-0.6,0.2-3.7,1.5-7.8,2.9c-3.4,1.3-7.5,2.9-10.9,4.1
			c-2.8,1-5,1.6-6.2,1.8c-4.4,0.6-17.7,1.9-17.7,1.9c7.5-1,19.4-8.3,24.5-12c0,0,4.1,0,6.5-0.8s12.8-6.2,16-6
			C630.6,368.7,637.4,370,634.4,371.3z"/>
		<path id="D1" fill="#FFB292" d="M623.4,385.3c-2.3,3.2-17.8-2.3-19.3-1.8c3.4-1.1,7.5-2.8,10.9-4.1
			C615,379.4,625.7,382,623.4,385.3z"/>
		<path id="pouce" fill="#FFB292" d="M571.6,369.2c0,0-11,2.9-15.4,3.6c-10.5-2.9-25.4-6.2-40.4,1.6c0,0-0.5-6.6,11.3-8.6
			c11.8-2.1,29-0.5,31-1c1.9-0.5,14.1-7.6,18.2-3.4C580.1,365.6,571.6,369.2,571.6,369.2z"/>
		<g id="pasteque">
			<path fill="#7EA172" d="M567.2,198.7c0,0,0.2-2.1,0-5.7c-0.2-3.6,11.5-9.6,10.4-11.2c-1.1-1.5-7.8-4.5-13.5-2.4
				s-9.6,16.2-9.6,16.2c-0.3,1.1-0.3,2.6-0.2,3.9c-21.6,2.9-40.7,13-54.8,28.2c4.4,2.8,21.1-13.3,23.3-15.6
				c-3.1,3.4-27.7,31.9-30.8,38.6c-3.2,7.1-3.2,16.5-5.2,24c-1.8,7.5-8.8,9.9-8.8,9.9s1.5,19.8,6.6,21.9c0,0-6.2,6.6-3.6,14.7
				c0,0.2,0.2,0.3,0.2,0.5c0.2,0.3,0.2,0.6,0.3,1v0.2c13.1,34,46.2,55.6,85.1,55.6c50.2,0,87.5-48.6,91.1-88.8
				C662.8,237.3,617.4,198.7,567.2,198.7z M606.7,347.2c7.5-11.8,13.1-28.2,12.2-50.2l0,0c-2.1-8.4-17.2-10.4-17.2-10.4
				c-1.1-4.9,3.9-12.3,3.6-17.7c-0.3-5.3-13.8-16.5-13.8-16.5s1.8-2.1,1.8-14.7c0-12.6-13.9-29.3-13.9-29.3c1.6,1.3,3.4,2.9,5.5,4.9
				c0,0,43.4-1,55.3,65.5C640.8,282,639.1,322.7,606.7,347.2z M495.4,232.6c-3.9,4.9-7.1,10-9.9,15.7
				C499.1,242.3,495.4,232.6,495.4,232.6z"/>
			<path fill="#7EA172" d="M617.7,284.8c0,0-7.6-1.9-8.6-6.2c-1-4.1,5.5-9.7,5.5-9.7C616,273.8,616.9,279.1,617.7,284.8z"/>
			<path fill="#254441" d="M523.1,212c-1.6,1.9-27.9,31.9-31.1,38.9c-3.2,7.1-3.2,16.5-5.2,24c-1.8,7.5-8.8,9.9-8.8,9.9
				s1.5,19.8,6.6,21.9c0,0-6.2,6.6-3.6,14.7c-3.4-9.6-5.3-20.3-5.3-31.4c0-15.2,3.4-29.3,9.6-41.5c13.8-5.8,9.9-15.7,9.9-15.7
				c1.3-1.6,2.8-3.2,4.2-4.9C504.1,230.6,521.8,213.1,523.1,212z"/>
			<path fill="#254441" d="M649.7,289c-8.3,66.9-70.8,84.9-72.8,85.4c1-0.5,17.7-7.9,29.8-27.2c32.6-24.5,34-65.1,33.4-68.6
				c-11.8-66.4-55.3-65.5-55.3-65.5c-1.9-1.9-3.9-3.6-5.5-4.9c-4.2-3.4-7.1-4.9-7.1-4.9C596,202.3,658.1,220.9,649.7,289z"/>
			<path fill="#7C3D2F" d="M606.7,347.2c7.5-11.8,13.1-28.2,12.2-50.2l0,0c-0.2-2.8-0.3-5.5-0.6-8.3c-0.2-1.3-0.3-2.6-0.5-3.9
				c-0.8-5.7-1.8-11-2.9-15.9c-6.8-28.8-20.1-46.2-30-55.7c0,0,43.4-1,55.3,65.5C640.8,282,639.1,322.7,606.7,347.2z"/>
			<path fill="#254441" d="M546.3,206.5c0,0-7,9.2-7.1,14.9c-0.3,5.7-8.1,14.4-10.2,16.2c-2.1,1.8-9.6,11.3-7.8,13
				c1.8,1.6,6.6,13.1,6.6,13.1s12.3-11.7,18.6-15.2s3.9-8.9,3.2-13.3c-0.6-4.4-2.1-20.6,5.7-25.9c0,0-1.5,6.3,0,14.4
				c1.5,8.1-1.8,15.9,0,18.3c1.8,2.4,9.2,9.9,7.8,21.9c-1.5,12-17.7,18.6-17.7,28.5c0,9.9,6.6,18,6.6,18s-7.1,3.9-0.3,13.1
				c0,0-8.9,22.9-2.8,31.4c0,0-12.6-13.5-14.1-19c-1.5-5.3,6.6-11,5.7-15.2c-1-4.2-7.5,1-7.5-7.8c0-8.8-7.8-13.8-12.3-7
				c-4.5,7-4.7,14.4,0,17.3c0,0-2.4,13,2.9,22.5c5.3,9.6,14.4,22.2,14.1,24c-0.3,1.8-14.7-4.9-20.6-16.5c-5.8-11.7-6.5-32.9-7.9-35
				c-1.5-2.1-3.2,4.9-3.2,4.9s-7.1-11-7.1-18c0-7,2.4-15.6,2.4-19.8c0-4.2-6-10.5-6-10.5s11-8.9,12.3-12.6c1.3-3.7-3.2-15.9,0-16.5
				c3.2-0.6,13.8-6,14.7-7.5C523.3,236.8,532.8,205.2,546.3,206.5z"/>
			<path fill="#254441" d="M565.2,203.4c0,0,7.1,10.2,8.9,18.3c1.8,8.1,4.9,18.3,10.7,22.9c0,0-4.7,15.2-3.6,19.4
				c1.1,4.2,6.3,8.4,11.7,9.6c0,0-4.5,4.5-2.9,10.2c1.5,5.7,6,8.8,5.7,12c-0.3,3.2-8.8,10.2-8.1,13.8s9.2,13.5,9.6,19.1
				c0.3,5.7-4.5,8.9-5,3.6c-0.6-5.3-4.5,5.3-2.8,8.1s5,10.9,3.6,13c-1.5,2.1-7.9,9.2-7,12c1,2.8-8.9-1.6-7.5-14.7
				c0.3-2.8,7-8.8,6.2-12.3s-11.3-8.9-10.4-16.5c1-7.5,5.7-19.8,5.3-28.8s-6.3-15.9-7.5-15.9c0,0,6-6.6,5-12c-1-5.3-4.2-12-5-14.4
				c-1-2.4-3.6-6.3-2.8-11.3c1-5,1.8-16.9-0.6-20.7l-7.5,6.3C561.5,225,567,210.9,565.2,203.4z"/>
			<path fill="#254441" d="M618.9,296.9c-2.1-8.4-17.2-10.4-17.2-10.4c-1.1-4.9,3.9-12.3,3.6-17.7c-0.3-5.3-13.8-16.5-13.8-16.5
				s1.8-2.1,1.8-14.7c0-12.6-13.9-29.3-13.9-29.3c1.6,1.3,3.4,2.9,5.5,4.9c9.9,9.6,23,26.9,30,55.7c0,0-6.5,5.7-5.5,9.7
				c1,4.1,8.6,6.2,8.6,6.2c0.2,1.3,0.3,2.6,0.5,3.9C618.6,291.4,618.7,294.2,618.9,296.9z"/>
			<path fill="none" stroke="#000000" stroke-miterlimit="10" d="M618.9,296.9L618.9,296.9L618.9,296.9"/>
			<path fill="none" stroke="#000000" stroke-miterlimit="10" d="M523.1,212C523.1,211.8,523.1,211.8,523.1,212
				C523.3,211.8,523.3,211.8,523.1,212"/>
			<path fill="none" stroke="#000000" stroke-miterlimit="10" d="M481.3,321.2c0,0.2,0.2,0.3,0.2,0.5c0.2,0.3,0.2,0.6,0.3,1v0.2"/>
		</g>
		<path id="D4" fill="#FFB292" d="M602,369.4c-7.1,6.8-17.3,13.8-18.6,14.7c-2.4,1.6-2.6,6.3-7.6,7.1c-5,0.8-34.8-3.1-42.5,4.1
			c-7.6,7.1-31,42.8-40,54.5c-9.1,11.7-32.9,37.4-32.9,37.4s-13.6,22.9-36.3,6.8c-22.7-16,13-35.3,13-35.3s28.8-23.8,36.9-30
			c8.1-6.2,29.5-34.5,29.5-34.5s2.1-14.6,12.3-19.9c14.9-7.8,29.8-4.7,40.4-1.6c5.5,1.6,9.9,3.1,12.5,3.1c7.6-0.2,16.5-3.7,19-5
			c2.4-1.3,18.6-15.2,21.9-13C610.8,358.7,607.4,364.2,602,369.4z"/>
	</g>
</g>
<path fill="#32CBFF" d="M458,443.8c-0.8-8.1-11-21.9-13.9-27.4c-2.9-5.2-24-39.2-25.8-41.8c-1.5-2.1-21.2-31.3-21.2-31.3
	s-7.9-14.3-15.7-16.5l-116.8-3.6c-14.3,7.8-24.8,9.9-31.1,16c-20.3,19.8-16.9,100,7.1,112.8c37,19.6,41.6,53,48.6,66.3
	s4.1,37.9,2.8,53.5c-0.2,2.3-0.3,4.9-0.4,7.9c12.1,1.6,24.4,2.5,37,2.5c41,0,79.9-9,114.9-25c-1.1-12.1,0.3-24.9-3.8-34.8
	c-6.3-15.1-0.2-27.7-0.2-27.7C460.2,469,459.1,455.1,458,443.8z"/>
<g id="Bras_Dt">
	<g id="Bras_droit_vide">
		<path fill="#FFB292" d="M263.2,473.7c5.2,4.5,9.1,7.1,9.1,7.1C330.6,353.8,246,333.1,246,333.1s-32.3,11.7-31.6,41.6
			c0.6,31.6,6.6,130.5,6.2,143.4c-0.5,13.1,2.1,13.5,2.1,13.5s7.1,18,15.2,35.3c13.3,4.6,27,8.2,41.1,10.8
			c-4.9-12.7-18.7-54.1-21.7-59.7c-2.1-3.7,1.7-28.7,4.7-46.2C262.1,472.5,262.6,473.2,263.2,473.7z"/>
		<path id="Aiselles" fill="#F59D76" d="M261.7,472.4c0,0,3.4-41.6,2.4-51.4c-1-9.7,6.3,0.5,7,4.7c0.5,4.4-2.8,0.6-2.8,0.6
			L261.7,472.4z"/>
	</g>
</g>
<g id="Tete">
	<g id="Visage">
		<path id="Visage_1_" fill="#FFB292" d="M236.7,190.3c0,0,96.8-7.6,148.4-79.9c0,0,31.3,43.3,28.7,89.1c-1,18.3-9.1,34.8-16,48.6
			c-10.7,20.7-17.5,34.5-36.1,35.2c0,0-23,27.1,19.4,43.8c0,0,65.6,98.4,12.8,98.4c-51.5,0-76.8-88.6-127.5-101.6
			c0,0,27.7-2.9,28.2-62.2c0,0-27.7-23.7-31.3-40.4C263.3,221.1,235.8,225.5,236.7,190.3z"/>
		<path id="ombre" fill="#F59D76" d="M361.7,283.2L361.7,283.2C361.7,283.3,361.7,283.3,361.7,283.2c-0.6,0.8-2.8,3.6-4.4,7.8
			c0,0.2,0,0.2-0.2,0.3s-0.2,0.5-0.3,0.6v0.2l0,0c-1,0.3-40.8,16-70.8,14.1c4.7-9.2,8.4-23.3,8.6-44.7c0,0-1.5-1.3-3.7-3.2
			c-1.5-1.5-3.4-3.2-5.5-5.2c-0.3-0.3-0.8-0.8-1.1-1.1c-0.5-0.5-1.1-1.1-1.6-1.6c-0.3-0.3-0.6-0.8-1-1.1c-0.5-0.5-1-1-1.5-1.5
			c-0.5-0.5-1-1-1.5-1.5c-2.6-2.9-5-5.8-7.5-9.1c-0.2-0.3-0.5-0.5-0.6-0.8c-0.5-0.6-0.8-1.1-1.1-1.8c-0.2-0.3-0.3-0.6-0.6-0.8
			c-0.3-0.5-0.8-1.1-1.1-1.8c-0.8-1.5-1.6-2.9-2.4-4.2c-0.2-0.3-0.3-0.5-0.3-0.8c-0.5-1-0.8-1.8-1.1-2.8c0-0.2-0.2-0.5-0.2-0.6
			s0-0.2-0.2-0.3c-0.2-0.3-0.2-0.5-0.3-0.8c-0.2-0.5-0.2-0.8-0.3-1.3c0,0-27.7,4.4-26.6-30.8c0,0,1,0,2.9-0.3c0.2,0,0.3,0,0.5,0
			c0.2,0,0.3,0,0.5,0c0.2,0,0.3,0,0.5,0c0.2,0,0.3,0,0.6,0s0.6,0,1-0.2c1-0.2,1.9-0.3,2.9-0.5c0.6-0.2,1.1-0.2,1.8-0.3
			c0.2,0,0.2,0,0.3,0c0.5,0,1-0.2,1.5-0.3c0.3,0,0.5-0.2,0.8-0.2c0.5,0,1-0.2,1.5-0.3c0.5,0,0.8-0.2,1.3-0.2
			c0.6-0.2,1.1-0.2,1.8-0.3c0.3,0,0.6-0.2,1-0.2c1-0.2,1.9-0.5,3.1-0.6c0.3,0,0.6-0.2,1.1-0.2c0.6-0.2,1.5-0.3,2.1-0.5
			c2.4-0.5,4.9-1.1,7.5-1.8C269.3,184.3,276.4,279.4,361.7,283.2z"/>
	</g>
	<g id="Yeux">
		<path id="Oeil_droit_fermé" display="none" d="M304,184.5c0,0,6.5,6,17,5.7s18.3-4.5,19.9-3.7c1.6,0.8-8.4,9.9-20.3,9.4
			s-18.6-2.6-23.8-5.7C296.9,190.1,295.7,187.4,304,184.5z"/>
		<path id="Oeil_gauche_fermé" display="none" d="M404,180.1c0,0-5,5-13,5.8c-7.9,0.8-18.5-3.2-20.1-1.5
			c-2.4,2.4,10.9,7.5,19.9,7.5s19.4-7.1,20.3-8.6C411.1,183.3,406.9,180.1,404,180.1z"/>
		<g id="Oeil_Dt">
			<path fill="#FFFFFF" d="M311,189.2c-3.9-1.6-6.3-3.1-6.3-3.1c0.5-2.6,1.6-4.7,3.1-6.3C307.9,179.8,308.4,185.8,311,189.2z"/>
			<path fill="#FFFFFF" d="M315.3,185.3c0.2,0.8-0.3,1.6-1.1,1.8c-0.8,0.2-1.6-0.5-1.6-1.1c-0.2-0.8,0.3-1.6,1.1-1.8
				C314.4,184,315.2,184.5,315.3,185.3z"/>
			<path fill="none" d="M322.8,186.9c-2.9,0.5-6.5-1.5-7.5-4.5c-1.6,0-3.1-1.1-3.4-2.8c-0.3-1.8,0.8-3.4,2.6-3.7
				c0.8-0.2,1.5,0,2.1,0.3c1.1-1.3,2.6-2.3,4.2-2.6c3.2-0.5,7,2.3,7.5,5.7C329,182.7,326,186.2,322.8,186.9z"/>
			<path fill="#FFFFFF" d="M341.9,190.6L341.9,190.6c0,0.2,0,0.2,0,0.3c0,0.2,0,0.3,0,0.5s0,0.2,0,0.2l0,0
				c-4.9,1.8-9.9,2.3-14.6,1.8l0,0c-0.5,0-1-0.2-1.6-0.2c1.9-1,10.9-6.3,8.6-15.7C340.3,181.9,341.6,188,341.9,190.6z"/>
			<path d="M341.9,190.6c-0.3-2.4-1.6-8.8-7.5-13c-2.8-2.1-6.8-3.7-12.2-4.2c0,0-0.6,0-1.6,0.2c-2.9,0.5-9.1,1.8-13,6.2
				c-1.5,1.6-2.6,3.7-3.1,6.3c0,0,2.4,1.5,6.3,3.1l0,0c3.9,1.6,9.1,3.4,14.9,4.1c-0.2,0.2-0.3,0.2-0.3,0.2c-23.3,0-36-8.9-36-8.9
				c3.4,0.5,9.2-0.6,9.2-0.6c-9.2-2.6-9.2-6.3-9.2-6.3s2.4,1.6,5.2,1.1s9.7-7.3,19.3-8.4c9.4-1.1,16.9-0.6,22.4,4.9
				C340.6,179.9,341.8,187.7,341.9,190.6z"/>
			<path fill="#087527" d="M334.5,177.7c-2.8-2.1-6.8-3.7-12.2-4.2c0,0-0.6,0-1.6,0.2c3.2-0.5,7,2.3,7.5,5.7c0.6,3.4-2.3,7-5.5,7.5
				c-2.9,0.5-6.5-1.5-7.5-4.5c-1.6,0-3.1-1.1-3.4-2.8c-0.3-1.8,0.8-3.4,2.6-3.7c0.8-0.2,1.5,0,2.1,0.3c1.1-1.3,2.6-2.3,4.2-2.6
				c-2.9,0.5-9.1,1.8-13,6.2c0,0,0.6,6,3.1,9.4l0,0c3.9,1.6,9.1,3.4,14.9,4.1C327.8,192.4,336.7,187.1,334.5,177.7z M314,187.1
				c-0.8,0.2-1.6-0.5-1.6-1.1c-0.2-0.8,0.3-1.6,1.1-1.8s1.6,0.3,1.8,1.1C315.5,186.1,314.9,186.9,314,187.1z"/>
			<path d="M328.3,179.3c0.6,3.4-2.3,7-5.5,7.5c-2.9,0.5-6.5-1.5-7.5-4.5c-0.2-0.3-0.2-0.6-0.3-1c-0.3-1.8,0.5-3.7,1.6-5.2
				c1.1-1.3,2.6-2.3,4.2-2.6C324.1,173.1,327.7,175.9,328.3,179.3z"/>
			<path fill="#FFFFFF" d="M318.3,178.5c0.3,1.8-0.8,3.4-2.6,3.7c-0.2,0-0.3,0-0.5,0c-1.6,0-3.1-1.1-3.4-2.8
				c-0.3-1.8,0.8-3.4,2.6-3.7c0.8-0.2,1.5,0,2.1,0.3C317.4,176.7,318.1,177.5,318.3,178.5z"/>
			<path fill="#FFFFFF" d="M315.3,185.3c0.2,0.8-0.3,1.6-1.1,1.8c-0.8,0.2-1.6-0.5-1.6-1.1c-0.2-0.8,0.3-1.6,1.1-1.8
				C314.4,184,315.2,184.5,315.3,185.3z"/>
		</g>
		<g id="Oeil_Gche">
			<path d="M369.8,187.9c-0.6-4.1,0-18.8,13.3-21.6c13.3-2.8,26.1,8.8,26.1,8.8c6.6,0.2,8.9-2.4,8.9-2.4s0,3.6-8.6,6
				c0,0,2.8,1.3,9.1-0.2c0,0-3.1,5.7-33.9,9.7"/>
			<path fill="#FFFFFF" d="M377.6,188.8c-3.1,0.2-5.8-0.2-7.8-1c0,0,0.2-4.4,2.3-8.8C372.1,179.3,372.1,184.5,377.6,188.8z"/>
			<path fill="#087527" d="M396.5,173.1c-4.2-2.3-9.6-3.7-15.1-2.6c-5,1.1-7.9,4.9-9.6,8.4c0,0.2,0,5.3,5.5,9.7
				c5.2-0.2,11-1.6,16-3.1C393.6,185.8,398.5,181.5,396.5,173.1z M385.5,183.5c-2.1,0.2-4.1-0.6-5.3-2.1c0,0.2,0,0.2,0,0.3
				c0,0.6-0.5,1.3-1.1,1.5c-0.6,0-1.3-0.5-1.3-1.1s0.5-1.3,1.1-1.5c0.3,0,0.5,0,0.8,0.2c-0.5-0.6-0.8-1.5-1-2.3
				c-1.1-0.3-1.9-1.3-2.1-2.8c-0.2-1.8,1-3.6,2.6-3.7c0.5,0,1,0,1.5,0.2c1-1,2.1-1.6,3.6-1.6c3.4-0.3,6.5,2.3,6.8,5.8
				C391.5,179.9,388.9,183.2,385.5,183.5z"/>
			<path fill="none" d="M391.2,176.4c0.3,3.6-2.1,6.8-5.7,7.1c-2.1,0.2-4.1-0.6-5.3-2.1c0,0.2,0,0.2,0,0.3c0,0.6-0.5,1.3-1.1,1.5
				c-0.6,0-1.3-0.5-1.3-1.1s0.5-1.3,1.1-1.5c0.3,0,0.5,0,0.8,0.2c-0.5-0.6-0.8-1.5-1-2.3c-1.1-0.3-1.9-1.3-2.1-2.8
				c-0.2-1.8,1-3.6,2.6-3.7c0.5,0,1,0,1.5,0.2c1-1,2.1-1.6,3.6-1.6C387.8,170.2,390.9,172.8,391.2,176.4z"/>
			<path fill="#FFFFFF" d="M403.8,180.4c0.2,1.1-4.4,3.4-10.2,5.2c0,0,4.9-4.2,2.9-12.5C400.7,175.5,403.7,178.6,403.8,180.4z"/>
			<path d="M391.2,176.4c0.3,3.6-2.1,6.8-5.7,7.1c-2.1,0.2-4.1-0.6-5.3-2.1c-0.2-0.2-0.3-0.5-0.5-0.6c-0.5-0.6-0.8-1.5-1-2.3
				c0-0.2-0.2-0.5-0.2-0.6c-0.2-2.1,0.6-4.2,2.1-5.5c1-1,2.1-1.6,3.6-1.6C387.8,170.2,390.9,172.8,391.2,176.4z"/>
			<path fill="#FFFFFF" d="M380,178.5c-0.5,0-0.8,0-1.1-0.2c-1.1-0.3-1.9-1.3-2.1-2.8c-0.2-1.8,1-3.6,2.6-3.7c0.5,0,1,0,1.5,0.2
				c1,0.5,1.8,1.5,1.9,2.8C382.8,176.8,381.6,178.3,380,178.5z"/>
			<path fill="#FFFFFF" d="M380.3,181.7c0,0.6-0.5,1.3-1.1,1.5c-0.6,0-1.3-0.5-1.3-1.1s0.5-1.3,1.1-1.5c0.3,0,0.5,0,0.8,0.2
				c0.2,0.2,0.5,0.3,0.5,0.6C380.3,181.5,380.3,181.5,380.3,181.7z"/>
		</g>
	</g>
	<g id="Nez">
		<path id="Nez_2" fill="#F07E66" d="M367.2,197.9c0,0,2.4,5.3,3.7,7.5c1.6,2.4,4.2,4.9,4.2,6.3s-3.7,4.2-5.2,4.9
			c-1.5,0.6,7.6-1.8,7.6-4.7C377.6,209.6,371.1,204.1,367.2,197.9z"/>
		<path fill="#F07E66" d="M364.9,216.7c0,0,0.5-0.3,0.8-1c0.5-0.6,1.8-1.5,2.4-1.1c0.6,0.3-0.3,1.8-1.1,1.9
			C366.2,216.7,365.4,216.5,364.9,216.7z"/>
		<path id="nez" display="none" fill="#F07E66" d="M361.7,193.9c0,0-15.4,14.7-7.8,24c2.3,2.6,12,2.4,20.4-10.7
			C374.5,207,364.4,199.2,361.7,193.9z"/>
	</g>
	<g id="Levres">
		<path fill="#7C3D2F" d="M370.4,230.6c0,0,2.3-2.1,3.6-3.7c1.3-1.6,9.1,3.4,14.4,3.7c0,0-1.9,2.9-5.3,5.7c-3.4,2.8-5.7,8.9-5.7,8.9
			s5.5,10.4-6.8,14.1s-35.8-6.5-37.4-11.8c-3.7-12.8-16-16.5-16-16.5s21.7,1.6,35.7,0.2c5.3-0.6,9.7-3.4,11.2-4.1
			C369,225,370.4,230.6,370.4,230.6z"/>
	</g>
	<path id="bouche" fill="#FFFFFF" d="M323.4,232.1c0,0,11.8,3.7,25.1,3.4s34.8-5,37-3.4c2.1,1.6-4.1,6.3-6.3,11.5
		c-2.3,5.2-5.7,9.1-9.6,10.4c-3.9,1.3-13.8,2.3-28.7-2.6C326,246.5,322.6,233.7,323.4,232.1z"/>
	<g id="Sourcils">
		<path fill="#7C3D2F" d="M313.4,165.8c0,0,18.3-3.2,26.4-0.6c0,0,1.8-0.6,0-3.9s-19.3-1.3-19.3-1.3S311.3,160.6,313.4,165.8z"/>
		<path fill="#7C3D2F" d="M371.4,164.7c0,0,25.8-9.4,39.9-3.2c0,0,0-4.1-2.6-5.5s-35.2-0.8-37.3,2.9
			C369.3,162.7,371.4,164.7,371.4,164.7z"/>
	</g>
</g>
</svg>
