<?xml version="1.0" encoding="utf-8"?>
<!-- Generator: Adobe Illustrator 18.1.1, SVG Export Plug-In . SVG Version: 6.00 Build 0)  -->
<svg version="1.1" xmlns="http://www.w3.org/2000/svg" xmlns:xlink="http://www.w3.org/1999/xlink" x="0px" y="0px"
	 viewBox="87.2 7.3 639.5 582.5" enable-background="new 87.2 7.3 639.5 582.5" xml:space="preserve">
<g id="Cercle_1_">
	<circle id="Cercle" fill="#FFFFFF" cx="378.4" cy="298.6" r="291.3"/>
</g>
<g id="Woman">
	<g id="Cheveux_1_">
		<path id="Cheveux_bas_meche_1_" fill="#7C3D2F" d="M341.2,309.7c0,0,56.9,11.7,63,7.3c6.1-4.3,12.9-20.5,12.9-20.5
			c5.1,4.3,11.1,15.3,11.1,15.3c2.7-5.3,2.1-21.1,2.1-21.1c3.8,7.7,14,14,14,14c-5.9-9.9,1.7-20.3,1.7-20.3
			c3,6.5,14.2,12.9,14.2,12.9c-4.8-12.9,5.6-25.6,5.6-25.6c5.6,0.5,14.6,9.4,14.6,9.4c-0.5-16.7-10.9-22.4-10.9-22.4
			c4.8,2.1,14.4,0,14.4,0c-8.3-7-8.3-20.4-8.3-20.4c3.9,3,12.5,0.5,12.5,0.5c-6.8-9.4-3.5-23.4-3.5-23.4c5.6,3.9,11.7,2.9,11.7,2.9
			c-7.7-9.4-8.2-35.5-2.6-47.8c5.6-12.1,10.8-57.2-6.8-99.1c-17.6-41.9-69.8-27.3-69.8-27.3s-47.9-32-94.1-8s-59.3,70.8-66.2,92.6
			c-6.8,21.7-6.8,33.5-21.9,37.3c0,0,9.4,8.2,19.7,6.2c0,0-2.6,16.7-17.6,22.6c0,0,10.3,3.2,17.6,0c0,0,0.5,13.7-19.7,20.3
			c0,0,9.1,8.5,20.7,5.3c0,0-18.3,9.1-24,29.9c0,0,2.7-6.4,20-10c0,0-1.8,27-13,34.7c0,0,15.9,2.3,27.9-6.8c0,0-4.6,20.2-14.7,26.5
			c0,0,17.8,1.4,25.6-7.3c0,0-8.8,18.8-5.8,27.3c0,0,0.9-12.9,12.5-21.1c0,0-5.8,17.6,0.5,25.2c0,0,4.3-9.7,11.1-15.3
			c0,0,6.5,8.5,3.5,14.6c0,0,10.3-3,11.1-7.7c0,0,5.1,6.5,5.9,14.2C317.1,332.2,341.2,309.7,341.2,309.7z"/>
	</g>
	<path fill="#F3752B" d="M515.4,444.5c-0.9-8.5-11.7-23.1-14.7-29c-3-5.5-25.3-41.4-27.2-44.1c-1.5-2.3-22.4-33.1-22.4-33.1
		s-8.4-15-16.6-17.4L311,317.1c-15,8.2-26.1,10.5-32.8,17c-21.4,20.9-17.8,105.6,7.6,119.1c39,20.7,44,56,51.3,70
		c7.3,14,4.3,40,2.9,56.4c-0.2,2.2-0.3,4.9-0.4,7.7c12.7,1.7,25.7,2.6,38.9,2.6c43.3,0,84.4-9.5,121.4-26.4c-1-12.5,0.4-25.8-3.9-36
		c-6.7-15.9-0.2-29.3-0.2-29.3C517.8,471.1,516.6,456.5,515.4,444.5z"/>
	<g id="Bras_Gauche_1_">
		<path id="Epaule_Gche_1_" fill="#FFB292" d="M436.4,321.9c0,0,5.8,2.3,8.9,2.9s11.5,3.2,13.8,11.8c2.4,8.5,6.4,22.6,6.4,22.6
			l-9.1-6.5l-10.9-15.6L436.4,321.9z"/>
	</g>
	<g id="Bras_Dt_1_">
		<g id="Bras_haltere">
			<path fill="#FFB292" d="M325,481c0,0,3,43.8-1.2,54c0,0-0.2,23.1-15.6,40.4c0,0-6.5,4.3-11.7,0c-5.1-4.3-54-53.7-70-123.7
				c0,0-8.9-35.9-22.4-50.5c-13.5-14.6-19.7-22.8-19.1-34.9c0.5-12.1,0.3-21.5,1.7-24.8c1.4-3,4.4-7.6,10.3-7
				c5.9,0.5,6.5,4.6,6.5,4.6s2.1-2.3,7.9-1.4c5.8,0.9,7.9,5,7.9,5s7.9-2.4,12.6,3.9c0,0,5.3-2.1,10.5,4.1c5.3,6.2,1.5,14.4,1.5,14.4
				s2.4,2.1,4.6,16.6c2.1,14.6-1.8,15.6,2.6,31.3c4.6,15.8,14,35.2,23.8,45.5c0,0-8-16.4-4.3-36.6c0,0-20-41.9-7.7-70.3
				c12.3-28.4,38.8-18.3,38.8-18.3s8.8,3.2,15,8.5c6.4,5.3,22.6,30.6,24.3,61.9C342.6,431.2,325,481,325,481z"/>
			<path fill="#FFB292" d="M325,481c0,0,3,43.8-1.2,54c0,0-0.2,23.1-15.6,40.4c0,0-6.5,4.3-11.7,0c-5.1-4.3-54-53.7-70-123.7
				c0,0-8.9-35.9-22.4-50.5c-13.5-14.6-19.7-22.8-19.1-34.9c0.5-12.1,0.3-21.5,1.7-24.8c1.4-3,4.4-7.6,10.3-7
				c5.9,0.5,6.5,4.6,6.5,4.6s2.1-2.3,7.9-1.4c5.8,0.9,7.9,5,7.9,5s7.9-2.4,12.6,3.9c0,0,5.3-2.1,10.5,4.1c5.3,6.2,1.5,14.4,1.5,14.4
				s2.4,2.1,4.6,16.6c2.1,14.6-1.8,15.6,2.6,31.3c4.6,15.8,14,35.2,23.8,45.5c0,0-8-16.4-4.3-36.6c0,0-20-41.9-7.7-70.3
				c12.3-28.4,38.8-18.3,38.8-18.3s8.8,3.2,15,8.5c6.4,5.3,22.6,30.6,24.3,61.9C342.6,431.2,325,481,325,481z"/>
			<path fill="#F59D76" d="M325,481c0,0,1.8-28.4-2.1-48.7c-3.8-20.3-6.4-32.2-4.1-39.6c2.6-8.4,13.2-5,19.3,4.1
				c0,0-12.9-8.8-17.1,0c0,0-0.3,4.8,3.6,35.1C328.6,462,326.4,473.7,325,481z"/>
			<path fill="#F59D76" d="M275.1,458.7c0,0,1.7,5.6,6.7,9.7c5,4.1,9.1,6.7,13.8,12.6c4.8,5.9,17.8,35.2,19.7,49.3
				c0,0-0.6-21.4-10.3-40.7c-9.6-19.3-17.6-20.2-21.5-23.1C279.5,463.7,275.1,458.7,275.1,458.7z"/>
		</g>
		<g id="Haletre">
			<path d="M267.9,331.3l-6.7-1.8l-5.5,6.5l-4.6,14.2l-2.7,30.6c0.5,2.9,0.9,6.5,0.9,9.9c0,7.7-0.3,11.1,0.2,14.9
				c0.3,2.3,1.2,5.3,1.2,5.3l3.5,1.4l2.9-3.2l7.3-30.3l4.8-34.2L267.9,331.3z"/>
			<path fill="#42B3A3" d="M244,364.8c0,0,2.4,2.1,4.6,16.6c0.2,1.2,0.3,2.3,0.3,3.2c2.4,0.5,3.8,0.9,3.8,0.9s4.1,1.8,6.4-12.6
				c0-3,0.2-6.4,0.6-9.4c-0.3-6.8-2.9-7.3-2.9-7.3c-3.6,0-7.7-0.3-12-0.6C246.1,360.4,244,364.8,244,364.8z"/>
			<path fill="#42B3A3" d="M186,374.9c-2.9-0.3-5.8-0.5-8.5-0.6h-0.3c-1.7-0.2-3.5-0.2-5-0.2c-1,0-2.3,0-3.2,0c0,0-4.3-1.5-2.7-15.3
				c1.7-13.7,6.8-14,6.8-14s1,0.2,2.9,0.5l4.6,0.9c0.3,0,0.5,0.2,0.9,0.2l0,0c1.4,0.2,2.7,0.5,4.3,0.9c-0.3,4.6-0.3,11.5-0.6,19.3
				C184.9,369.5,185.3,372.2,186,374.9z"/>
			<path d="M176.6,335.6c0,2.4-0.6,9.6-0.6,9.6c-1.8-0.3-2.9-0.5-2.9-0.5s-5.1,0.3-6.8,14c-1.7,13.7,2.7,15.3,2.7,15.3
				c1,0,2.1,0,3.2,0c0,0-1.4,6.8-1.8,8.5c-1.4,5.5-4.3,16.2-7.7,15.8c-4.8-0.6-1.8-26.7-0.5-40.4c1.4-13.7,7.9-39.5,11.5-39
				C176.3,319.4,176.6,329.7,176.6,335.6z"/>
			<path fill="#42B3A3" d="M182.2,335.9c0,1.5-0.5,8.8-0.6,10.5l0,0l-0.9-0.2l-4.6-0.9c0,0,0.6-7.1,0.6-9.6c0-5.9-0.3-16.2-3-16.6
				c-3.8-0.5-10,25.3-11.5,39c-1.4,13.7-4.3,39.6,0.5,40.4c3.6,0.5,6.5-10.3,7.7-15.8c0.5-1.8,1.8-8.5,1.8-8.5l5,0.2h0.3
				c0,0-1.2,6.8-1.5,8.5c-1.4,6.8-5.5,23.6-14.4,25.3l-17.1-2.4c0,0-5.3,0.5-6.5-16.1c-0.5-7.6-0.2-18.5,1.8-34.7
				c2.3-17.6,5.3-28.7,8.2-35.8c5.6-13.8,11.1-12,11.1-12l16.2,2.3C175.4,309.4,182.9,310.5,182.2,335.9z"/>
			<g>
				<path fill="#42B3A3" d="M249.7,407.3c0,0.2,0.2,0.5,0.2,0.6c0-0.3-0.2-0.5-0.2-0.9C249.7,407.3,249.7,407.3,249.7,407.3z"/>
				<path fill="#42B3A3" d="M280.4,324.1l-16.2-2.3c0,0-8-1-14.4,26.1c-0.2,0.6-1,7.1-1.2,7.9l5.3,0.3c0,0,1.2-5.9,1.4-7
					c1.2-4.6,5-17.9,8-17.6c3.8,0.5,2.9,27,0.3,40.7c-2.6,13.7-6.8,39.3-11.5,38.7c-1-0.2-1.8-1.4-2.4-3c1.2,4.6,3.9,13.2,3.9,13.2
					l13.7,1.8c0,0,10.6,4.1,18.3-47.8C293.6,323.8,280.4,324.1,280.4,324.1z"/>
			</g>
			<path fill="#42B3A3" d="M148.4,319.1c0,0-9.9,21.9-9.9,70.7l-6.7-0.9c0,0-8.2-0.6-3.2-36.4c5-35.8,13-34,13-34L148.4,319.1z"/>
			<path fill="#42B3A3" d="M287.4,340.4c0,0,3.6,23.8-9.9,70.7l6.7,0.9c0,0,8,1.5,13.2-34.2s-3-36.3-3-36.3L287.4,340.4z"/>
		</g>
	</g>
	<g id="Tete_1_">
		<g id="Visage_2_">
			<path id="Visage_3_" fill="#FFB292" d="M281.7,176.9c0,0,102.1-8,156.7-84.4c0,0,33.1,45.7,30.3,94.1c-1,19.3-9.6,36.7-17,51.3
				c-11.2,21.9-18.5,36.4-38.1,37.2c0,0-24.3,28.5,20.5,46.1c0,0,69.3,103.8,13.5,103.8c-54.3,0-81-93.6-134.6-107.3
				c0,0,29.3-3,29.7-65.7c0,0-29.3-25-33.1-42.6C309.8,209.4,280.7,214,281.7,176.9z"/>
			<path id="ombre_1_" fill="#F59D76" d="M413.6,274.8L413.6,274.8C413.6,275.1,413.6,275.1,413.6,274.8c-0.6,0.9-2.9,3.8-4.6,8.2
				c0,0.2,0,0.2-0.2,0.3c-0.2,0.2-0.2,0.5-0.3,0.6v0.2l0,0c-1,0.3-43.1,17-74.8,14.9c5-9.7,8.9-24.6,9.1-47.2c0,0-1.5-1.4-3.9-3.5
				c-1.5-1.5-3.6-3.5-5.8-5.5c-0.3-0.3-0.9-0.9-1.2-1.2c-0.5-0.5-1.2-1.2-1.7-1.7c-0.3-0.3-0.6-0.9-1-1.2c-0.5-0.5-1-1-1.5-1.5
				c-0.5-0.5-1-1-1.5-1.5c-2.7-3-5.3-6.2-7.9-9.6c-0.2-0.3-0.5-0.5-0.6-0.9c-0.5-0.6-0.9-1.2-1.2-1.8c-0.2-0.3-0.3-0.6-0.6-0.9
				c-0.3-0.5-0.9-1.2-1.2-1.8c-0.9-1.5-1.7-3-2.6-4.4c-0.2-0.3-0.3-0.5-0.3-0.9c-0.5-1-0.9-1.8-1.2-2.9c0-0.2-0.2-0.5-0.2-0.6
				c0-0.2,0-0.2-0.2-0.3c-0.2-0.3-0.2-0.5-0.3-0.9c-0.2-0.5-0.2-0.9-0.3-1.4c0,0-29.3,4.6-28.1-32.5c0,0,1,0,3-0.3
				c0.2,0,0.3,0,0.5,0c0.2,0,0.3,0,0.5,0c0.2,0,0.3,0,0.5,0s0.3,0,0.6,0c0.3,0,0.6,0,1-0.2c1-0.2,2.1-0.3,3-0.5
				c0.6-0.2,1.2-0.2,1.8-0.3c0.2,0,0.2,0,0.3,0c0.5,0,1-0.2,1.5-0.3c0.3,0,0.5-0.2,0.9-0.2c0.5,0,1-0.2,1.5-0.3
				c0.5,0,0.9-0.2,1.4-0.2c0.6-0.2,1.2-0.2,1.8-0.3c0.3,0,0.6-0.2,1-0.2c1-0.2,2.1-0.5,3.2-0.6c0.3,0,0.6-0.2,1.2-0.2
				c0.6-0.2,1.5-0.3,2.3-0.5c2.6-0.5,5.1-1.2,7.9-1.8C316.2,170.6,323.6,271,413.6,274.8z"/>
		</g>
		<g id="Yeux_1_">
			<g id="Oeil_Dt_1_">
				<path fill="#FFFFFF" d="M360.1,175.7c-4.1-1.7-6.7-3.2-6.7-3.2c0.5-2.7,1.7-5,3.2-6.7C356.9,165.7,357.3,172.1,360.1,175.7z"/>
				<path fill="#FFFFFF" d="M364.7,171.6c0.2,0.9-0.3,1.7-1.2,1.8c-0.9,0.2-1.7-0.5-1.7-1.2c-0.2-0.9,0.3-1.7,1.2-1.8
					C363.7,170.2,364.6,170.7,364.7,171.6z"/>
				<path fill="none" d="M372.6,173.3c-3,0.5-6.8-1.5-7.9-4.8c-1.7,0-3.2-1.2-3.6-2.9c-0.3-1.8,0.9-3.6,2.7-3.9
					c0.9-0.2,1.5,0,2.3,0.3c1.2-1.4,2.7-2.4,4.4-2.7c3.5-0.5,7.3,2.4,7.9,5.9C379,168.9,376,172.5,372.6,173.3z"/>
				<path fill="#FFFFFF" d="M392.8,177.2L392.8,177.2c0,0.2,0,0.2,0,0.3c0,0.1,0,0.3,0,0.5s0,0.2,0,0.2l0,0
					c-5.1,1.8-10.5,2.4-15.3,1.8l0,0c-0.5,0-1-0.2-1.7-0.2c2.1-1,11.5-6.7,9.1-16.6C391,168,392.4,174.5,392.8,177.2z"/>
				<path d="M392.8,177.2c-0.3-2.6-1.7-9.2-7.9-13.7c-2.9-2.3-7.1-3.9-12.9-4.4c0,0-0.6,0-1.7,0.2c-3,0.5-9.6,1.8-13.7,6.5
					c-1.5,1.7-2.7,3.9-3.2,6.7c0,0,2.6,1.5,6.7,3.2l0,0c4.1,1.7,9.6,3.6,15.8,4.3c-0.2,0.2-0.3,0.2-0.3,0.2
					c-24.6,0-37.9-9.4-37.9-9.4c3.6,0.5,9.7-0.6,9.7-0.6c-9.7-2.7-9.7-6.7-9.7-6.7s2.6,1.7,5.5,1.2c2.9-0.5,10.3-7.7,20.3-8.9
					c9.9-1.2,17.8-0.6,23.6,5.1C391.4,165.9,392.5,174.2,392.8,177.2z"/>
				<path fill="#087527" d="M384.9,163.6c-2.9-2.3-7.1-3.9-12.9-4.4c0,0-0.6,0-1.7,0.2c3.5-0.5,7.3,2.4,7.9,5.9
					c0.6,3.6-2.4,7.3-5.8,7.9c-3,0.5-6.8-1.5-7.9-4.8c-1.7,0-3.2-1.2-3.6-2.9c-0.3-1.8,0.9-3.6,2.7-3.9c0.9-0.2,1.5,0,2.3,0.3
					c1.2-1.4,2.7-2.4,4.4-2.7c-3,0.5-9.6,1.8-13.7,6.5c0,0,0.6,6.4,3.2,9.9l0,0c4.1,1.7,9.6,3.6,15.8,4.3
					C377.9,179.1,387.3,173.4,384.9,163.6z M363.4,173.4c-0.9,0.2-1.7-0.5-1.7-1.2c-0.2-0.9,0.3-1.7,1.2-1.8
					c0.9-0.1,1.7,0.3,1.8,1.2C364.9,172.4,364.2,173.3,363.4,173.4z"/>
				<path d="M378.4,165.2c0.6,3.6-2.4,7.3-5.8,7.9c-3,0.5-6.8-1.5-7.9-4.8c-0.2-0.3-0.2-0.6-0.3-1c-0.3-1.8,0.5-3.9,1.7-5.5
					c1.2-1.4,2.7-2.4,4.4-2.7C374,158.7,377.7,161.6,378.4,165.2z"/>
				<path fill="#FFFFFF" d="M367.8,164.4c0.3,1.8-0.9,3.6-2.7,3.9c-0.2,0-0.3,0-0.5,0c-1.7,0-3.2-1.2-3.6-2.9
					c-0.3-1.8,0.9-3.6,2.7-3.9c0.9-0.2,1.5,0,2.3,0.3C366.9,162.5,367.6,163.3,367.8,164.4z"/>
				<path fill="#FFFFFF" d="M364.7,171.6c0.2,0.9-0.3,1.7-1.2,1.8c-0.9,0.2-1.7-0.5-1.7-1.2c-0.2-0.9,0.3-1.7,1.2-1.8
					C363.7,170.2,364.6,170.7,364.7,171.6z"/>
			</g>
			<g id="Oeil_Gche_1_">
				<path d="M422.2,174.3c-0.6-4.3,0-19.9,14-22.8c14-2.9,27.5,9.2,27.5,9.2c7,0.2,9.4-2.6,9.4-2.6s0,3.8-9.1,6.4
					c0,0,2.9,1.4,9.6-0.2c0,0-3.2,5.9-35.8,10.3"/>
				<path fill="#FFFFFF" d="M430.4,175.3c-3.2,0.2-6.2-0.2-8.2-1c0,0,0.2-4.6,2.4-9.2C424.5,165.2,424.5,170.7,430.4,175.3z"/>
				<path fill="#087527" d="M450.5,158.7c-4.4-2.4-10-3.9-15.9-2.7c-5.3,1.2-8.4,5.1-10,8.9c0,0.2,0,5.6,5.8,10.3
					c5.5-0.2,11.7-1.7,17-3.2C447.3,172.1,452.5,167.7,450.5,158.7z M438.8,169.7c-2.3,0.2-4.3-0.6-5.6-2.3c0,0.2,0,0.2,0,0.3
					c0,0.6-0.5,1.4-1.2,1.5c-0.6,0-1.4-0.5-1.4-1.2s0.5-1.4,1.2-1.5c0.3,0,0.5,0,0.9,0.2c-0.5-0.6-0.9-1.5-1-2.4
					c-1.2-0.3-2.1-1.4-2.3-2.9c-0.2-1.8,1-3.8,2.7-3.9c0.5,0,1,0,1.5,0.2c1-1,2.3-1.7,3.8-1.7c3.6-0.3,6.8,2.4,7.1,6.2
					C445.1,165.9,442.4,169.3,438.8,169.7z"/>
				<path fill="none" d="M444.7,162.2c0.3,3.8-2.3,7.1-5.9,7.6c-2.3,0.2-4.3-0.6-5.6-2.3c0,0.2,0,0.2,0,0.3c0,0.6-0.5,1.4-1.2,1.5
					c-0.6,0-1.4-0.5-1.4-1.2s0.5-1.4,1.2-1.5c0.3,0,0.5,0,0.9,0.2c-0.5-0.6-0.9-1.5-1-2.4c-1.2-0.3-2.1-1.4-2.3-2.9
					c-0.2-1.8,1-3.8,2.7-3.9c0.5,0,1,0,1.5,0.2c1-1,2.3-1.7,3.8-1.7C441.2,155.7,444.4,158.4,444.7,162.2z"/>
				<path fill="#FFFFFF" d="M458.1,166.5c0.2,1.2-4.6,3.6-10.8,5.5c0,0,5.1-4.4,3-13.2C454.9,161.3,457.9,164.5,458.1,166.5z"/>
				<path d="M444.7,162.2c0.3,3.8-2.3,7.1-5.9,7.6c-2.3,0.2-4.3-0.6-5.6-2.3c-0.2-0.2-0.3-0.5-0.5-0.6c-0.5-0.6-0.9-1.5-1-2.4
					c0-0.2-0.2-0.5-0.2-0.6c-0.2-2.3,0.6-4.4,2.3-5.8c1-1,2.3-1.7,3.8-1.7C441.2,155.7,444.4,158.4,444.7,162.2z"/>
				<path fill="#FFFFFF" d="M433,164.4c-0.5,0-0.9,0-1.2-0.2c-1.2-0.3-2.1-1.4-2.3-2.9c-0.2-1.8,1-3.8,2.7-3.9c0.5,0,1,0,1.5,0.2
					c1,0.5,1.8,1.5,2.1,2.9C435.9,162.7,434.7,164.2,433,164.4z"/>
				<path fill="#FFFFFF" d="M433.3,167.8c0,0.6-0.5,1.4-1.2,1.5c-0.6,0-1.4-0.5-1.4-1.2s0.5-1.4,1.2-1.5c0.3,0,0.5,0,0.9,0.2
					c0.2,0.2,0.5,0.3,0.5,0.6C433.3,167.7,433.3,167.7,433.3,167.8z"/>
			</g>
		</g>
		<g id="Nez_1_">
			<path id="Nez_2_1_" fill="#F07E66" d="M419.4,184.8c0,0,2.6,5.6,3.9,7.9c1.7,2.6,4.4,5.1,4.4,6.7c0,1.5-3.9,4.4-5.5,5.1
				c-1.5,0.6,8-1.8,8-5C430.4,197.2,423.6,191.4,419.4,184.8z"/>
			<path fill="#F07E66" d="M417.1,204.7c0,0,0.5-0.3,0.9-1c0.5-0.6,1.8-1.5,2.6-1.2c0.6,0.3-0.3,1.8-1.2,2.1
				C418.4,204.7,417.6,204.6,417.1,204.7z"/>
			<path id="nez_1_" display="none" fill="#F07E66" d="M413.6,180.6c0,0-16.2,15.6-8.2,25.3c2.4,2.7,12.6,2.6,21.5-11.2
				C427.1,194.5,416.5,186.3,413.6,180.6z"/>
		</g>
		<g id="Levres_1_">
			<path fill="#7C3D2F" d="M422.9,219.4c0,0,2.4-2.3,3.8-3.9c1.4-1.6,9.6,3.6,15.2,3.9c0,0-2.1,3-5.6,5.9s-5.9,9.4-5.9,9.4
				s5.8,10.9-7.1,14.9c-13,3.9-37.8-6.8-39.5-12.5c-3.9-13.5-17-17.4-17-17.4s22.9,1.7,37.6,0.2c5.6-0.6,10.3-3.6,11.8-4.3
				C421.3,213.5,422.9,219.4,422.9,219.4z"/>
		</g>
		<path id="bouche_1_" fill="#FFFFFF" d="M373.2,221c0,0,12.5,3.9,26.5,3.6c14-0.3,36.7-5.3,39-3.6c2.3,1.7-4.3,6.7-6.7,12.1
			c-2.4,5.5-5.9,9.6-10,10.9c-4.1,1.4-14.6,2.4-30.3-2.7C376,236.2,372.5,222.7,373.2,221z"/>
		<g id="Sourcils_1_">
			<path fill="#7C3D2F" d="M362.6,151c0,0,19.3-3.5,27.9-0.6c0,0,1.8-0.6,0-4.1c-1.8-3.5-20.3-1.4-20.3-1.4S360.5,145.5,362.6,151z"
				/>
			<path fill="#7C3D2F" d="M423.9,149.8c0,0,27.2-9.9,42-3.5c0,0,0-4.3-2.7-5.8c-2.7-1.5-37.2-0.9-39.3,3
				C421.7,147.8,423.9,149.8,423.9,149.8z"/>
		</g>
	</g>
</g>
</svg>
