<?xml version="1.0" encoding="utf-8"?>
<!-- Generator: Adobe Illustrator 18.1.1, SVG Export Plug-In . SVG Version: 6.00 Build 0)  -->
<svg version="1.1" xmlns="http://www.w3.org/2000/svg" xmlns:xlink="http://www.w3.org/1999/xlink" x="0px" y="0px"
	 viewBox="87.2 7.3 639.5 582.5" enable-background="new 87.2 7.3 639.5 582.5" xml:space="preserve">
<g id="Cercle_1_">
	<circle id="Cercle" fill="#FFFFFF" cx="378.4" cy="298.6" r="291.3"/>
</g>
<g id="Woman">
	<g id="Calque_1_1_">
		<g id="Cheveux">
			<path id="Cheveux_bas_meche" fill="#7C3D2F" d="M341.2,309.1c0,0,57,11.7,63,7.3c6.1-4.3,12.9-20.5,12.9-20.5
				c5.2,4.3,11.1,15.4,11.1,15.4c2.7-5.3,2.1-21.1,2.1-21.1c3.8,7.7,14,14,14,14c-6.1-9.9,1.7-20.4,1.7-20.4
				c3,6.6,14.3,12.9,14.3,12.9c-4.8-12.9,5.6-25.7,5.6-25.7c5.6,0.5,14.6,9.4,14.6,9.4c-0.5-16.7-11-22.4-11-22.4
				c4.8,2.1,14.4,0,14.4,0c-8.2-7-8.2-20.4-8.2-20.4c3.9,3,12.4,0.5,12.4,0.5c-6.9-9.4-3.3-23.4-3.3-23.4c5.6,3.9,11.7,2.9,11.7,2.9
				c-7.7-9.4-8.2-35.5-2.5-47.8c5.7-12.1,10.8-57.2-6.9-99.1c-17.7-41.9-69.8-27.3-69.8-27.3s-48-32-94.1-8s-59.3,70.9-66.2,92.6
				c-6.9,21.7-6.9,33.6-21.8,37.3c0,0,9.4,8.2,19.7,6.2c0,0-2.5,16.7-17.6,22.6c0,0,10.3,3.2,17.6,0c0,0,0.5,13.7-19.7,20.4
				c0,0,9.1,8.5,20.7,5.3c0,0-18.3,9.1-24,30c0,0,2.7-6.4,20.1-10.2c0,0-1.9,27-13,34.8c0,0,16,2.3,27.9-6.9c0,0-4.6,20.2-14.7,26.5
				c0,0,17.8,1.4,25.7-7.3c0,0-8.8,18.8-5.8,27.3c0,0,0.9-12.9,12.4-21.1c0,0-5.8,17.6,0.5,25.2c0,0,4.3-9.7,11.1-15.4
				c0,0,6.6,8.5,3.3,14.6c0,0,10.3-3,11.1-7.7c0,0,5.2,6.6,6.1,14.3C317,331.7,341.2,309.1,341.2,309.1z"/>
		</g>
		<g id="Bras_Gauche">
			<path id="Epaule_Gche" fill="#FFB292" d="M436.4,321.2c0,0,5.8,2.3,8.9,2.9c3,0.6,11.6,3.2,13.8,11.8c2.4,8.5,6.4,22.6,6.4,22.6
				l-9.1-6.6l-11-15.6L436.4,321.2z"/>
			<g id="Bras_Gauche_fruit">
				<path fill="#FFB292" d="M648.9,381.8c-0.6,0.2-1.6,0.2-2.3,0.2"/>
				<path id="D3" fill="#FFB292" d="M643.3,385.5c13.2-0.2,30-16.5,30-16.5s13.7-8,17.3-9.3c3.8-1.2,6.2-4.8-1.6-5.2
					c-7.5-0.2-24.8,11.7-24.8,11.7S643.3,383.2,643.3,385.5z"/>
				<path id="D2" fill="#FFB292" d="M701.6,367.2c-3,1.6-10.5,4.8-12.3,5.5c-0.6,0.2-3.9,1.6-8.2,3c-3.6,1.4-7.9,3-11.6,4.3
					c-2.9,1.1-5.3,1.7-6.6,1.9c-4.6,0.6-18.7,2.1-18.7,2.1c7.9-1.1,20.5-8.8,25.8-12.6c0,0,4.3,0,6.9-0.9c2.5-0.9,13.5-6.6,16.9-6.4
					C697.6,364.5,704.8,365.9,701.6,367.2z"/>
				<path id="D1" fill="#FFB292" d="M690,382c-2.4,3.3-18.8-2.4-20.4-1.9c3.6-1.2,7.9-2.9,11.6-4.3C681.2,375.8,692.4,378.5,690,382
					z"/>
				<path id="pouce" fill="#FFB292" d="M635.4,365c0,0-11.7,3-16.3,3.8c-11.1-3-26.8-6.6-42.7,1.7c0,0-0.5-7,11.9-9.1
					c12.4-2.3,30.6-0.5,32.7-1.1c2.1-0.5,14.9-8,19.2-3.6C644.3,361.2,635.4,365,635.4,365z"/>
				<g id="pasteque">
					<path fill="#7EA172" d="M630.7,184.9c0,0,0.2-2.3,0-6.1c-0.2-3.8,12.1-10.2,11-11.8c-1.2-1.6-8.2-4.8-14.3-2.5
						c-6,2.3-10.2,17.1-10.2,17.1c-0.3,1.2-0.3,2.7-0.2,4.1c-22.8,3-43,13.7-57.9,29.8c4.6,2.9,22.3-14,24.6-16.4
						c-3.2,3.6-29.3,33.7-32.5,40.7c-3.3,7.5-3.3,17.4-5.5,25.4c-1.9,7.9-9.3,10.5-9.3,10.5s1.6,21,7,23.1c0,0-6.6,7-3.8,15.6
						c0,0.2,0.2,0.3,0.2,0.5c0.2,0.3,0.2,0.6,0.3,1.1v0.2c13.8,35.9,48.8,58.7,89.9,58.7c53,0,92.4-51.3,96.2-93.8
						C731.6,225.8,683.6,184.9,630.7,184.9z M672.4,341.8c7.9-12.4,13.8-29.8,12.9-53l0,0c-2.3-8.9-18.2-11-18.2-11
						c-1.2-5.2,4.1-13,3.8-18.7c-0.3-5.6-14.6-17.4-14.6-17.4s1.9-2.3,1.9-15.6c0-13.3-14.7-30.9-14.7-30.9c1.7,1.4,3.6,3,5.8,5.2
						c0,0,45.8-1.1,58.4,69.1C708.4,272.9,706.6,315.9,672.4,341.8z M554.9,220.8c-4.1,5.2-7.5,10.6-10.5,16.5
						C558.8,230.9,554.9,220.8,554.9,220.8z"/>
					<path fill="#7EA172" d="M684,275.9c0,0-8-2.1-9.1-6.6c-1.1-4.3,5.8-10.3,5.8-10.3C682.2,264.2,683.1,269.8,684,275.9z"/>
					<path fill="#254441" d="M584,199c-1.7,2.1-29.5,33.7-32.8,41.1c-3.3,7.5-3.3,17.4-5.5,25.4c-1.9,7.9-9.3,10.5-9.3,10.5
						s1.6,21,7,23.1c0,0-6.6,7-3.8,15.6c-3.6-10.2-5.6-21.4-5.6-33.2c0-16.1,3.6-30.9,10.2-43.9c14.6-6.2,10.5-16.5,10.5-16.5
						c1.4-1.7,2.9-3.3,4.4-5.2C564.1,218.6,582.7,200.2,584,199z"/>
					<path fill="#254441" d="M717.8,280.3C709,351,643,370,640.9,370.5c1.1-0.5,18.7-8.3,31.4-28.7c34.5-25.8,35.9-68.7,35.2-72.5
						c-12.4-70.1-58.4-69.1-58.4-69.1c-2.1-2.1-4.1-3.8-5.8-5.2c-4.4-3.6-7.5-5.2-7.5-5.2C661.1,188.7,726.6,208.4,717.8,280.3z"/>
					<path fill="#7C3D2F" d="M672.4,341.8c7.9-12.4,13.8-29.8,12.9-53l0,0c-0.2-2.9-0.3-5.8-0.6-8.8c-0.2-1.4-0.3-2.7-0.5-4.1
						c-0.9-6.1-1.9-11.7-3-16.7c-7.1-30.5-21.2-48.8-31.7-58.8c0,0,45.8-1.1,58.4,69.1C708.4,272.9,706.6,315.9,672.4,341.8z"/>
					<path fill="#254441" d="M608.6,193.1c0,0-7.3,9.7-7.5,15.8c-0.3,6.1-8.5,15.2-10.8,17.1c-2.3,1.9-10.2,11.9-8.2,13.7
						c1.9,1.7,7,13.8,7,13.8s13-12.3,19.7-16.1c6.7-3.7,4.1-9.4,3.3-14c-0.6-4.6-2.3-21.7,6.1-27.3c0,0-1.6,6.7,0,15.2
						c1.6,8.5-1.9,16.7,0,19.3s9.7,10.5,8.2,23.1c-1.6,12.6-18.7,19.7-18.7,30.1c0,10.5,7,19,7,19s-7.5,4.1-0.3,13.8
						c0,0-9.4,24.2-2.9,33.2c0,0-13.3-14.3-14.9-20.1c-1.6-5.6,7-11.7,6-16.1c-1.1-4.4-7.9,1.1-7.9-8.2c0-9.3-8.2-14.6-13-7.3
						c-4.8,7.3-5,15.2,0,18.3c0,0-2.5,13.7,3,23.8c5.6,10.2,15.2,23.4,14.9,25.4s-15.6-5.2-21.7-17.4c-6.2-12.3-6.9-34.8-8.3-36.9
						c-1.6-2.3-3.3,5.2-3.3,5.2s-7.5-11.7-7.5-19s2.5-16.4,2.5-21c0-4.4-6.4-11.1-6.4-11.1s11.7-9.4,13-13.3
						c1.4-3.9-3.3-16.7,0-17.4c3.3-0.6,14.6-6.4,15.6-7.9C584.3,225.2,594.3,191.8,608.6,193.1z"/>
					<path fill="#254441" d="M628.5,189.9c0,0,7.5,10.8,9.4,19.3s5.2,19.3,11.3,24.2c0,0-5,16.1-3.8,20.5c1.2,4.4,6.7,8.9,12.3,10.2
						c0,0-4.8,4.8-3,10.8c1.6,6.1,6.4,9.3,6,12.6c-0.3,3.3-9.3,10.8-8.5,14.6c0.8,3.8,9.7,14.3,10.2,20.2c0.3,6.1-4.8,9.4-5.3,3.8
						c-0.6-5.6-4.8,5.6-2.9,8.5c1.8,2.9,5.3,11.6,3.8,13.7c-1.6,2.3-8.3,9.7-7.3,12.6c1.1,2.9-9.4-1.7-7.9-15.6
						c0.3-2.9,7.3-9.3,6.6-13c-0.8-3.7-11.9-9.4-11-17.4c1.1-7.9,6.1-21,5.6-30.5c-0.4-9.5-6.7-16.7-7.9-16.7c0,0,6.4-7,5.3-12.6
						c-1.1-5.6-4.4-12.6-5.3-15.2c-1.1-2.5-3.8-6.7-2.9-11.9c1.1-5.3,1.9-17.8-0.6-21.8l-7.9,6.7
						C624.7,212.7,630.5,197.8,628.5,189.9z"/>
					<path fill="#254441" d="M685.3,288.6c-2.3-8.9-18.2-11-18.2-11c-1.2-5.2,4.1-13,3.8-18.7c-0.3-5.6-14.6-17.4-14.6-17.4
						s1.9-2.3,1.9-15.6c0-13.3-14.7-30.9-14.7-30.9c1.7,1.4,3.6,3,5.8,5.2c10.5,10.2,24.3,28.4,31.7,58.8c0,0-6.9,6.1-5.8,10.3
						c1.1,4.3,9.1,6.6,9.1,6.6c0.2,1.4,0.3,2.7,0.5,4.1C684.9,282.8,685.1,285.8,685.3,288.6z"/>
					<path fill="none" stroke="#000000" stroke-miterlimit="10" d="M685.3,288.6L685.3,288.6L685.3,288.6"/>
					<path fill="none" stroke="#000000" stroke-miterlimit="10" d="M584,199C584,198.8,584,198.8,584,199
						C584.3,198.8,584.3,198.8,584,199"/>
					<path fill="none" stroke="#000000" stroke-miterlimit="10" d="M540,314.3c0,0.2,0.2,0.3,0.2,0.5c0.2,0.3,0.2,0.6,0.3,1.1v0.2"
						/>
				</g>
				<path id="D4" fill="#FFB292" d="M667.4,365.2c-7.5,7.1-18.3,14.6-19.7,15.6c-2.5,1.7-2.7,6.7-8,7.5c-5.3,0.9-36.7-3.2-44.8,4.3
					c-8,7.5-32.7,45.2-42.2,57.6c-9.6,12.3-34.8,39.5-34.8,39.5s-14.4,24.2-38.4,7.1c-24-16.9,13.7-37.3,13.7-37.3
					s30.5-25.2,39-31.7c8.5-6.6,31.1-36.4,31.1-36.4s2.3-15.4,13-21.1c15.8-8.2,31.4-5,42.7-1.7c5.8,1.7,10.5,3.2,13.2,3.2
					c8-0.2,17.4-3.9,20.1-5.3c2.5-1.4,19.7-16.1,23.1-13.7C676.7,353.9,673.1,359.7,667.4,365.2z"/>
			</g>
		</g>
		<path fill="#32CBFF" d="M515.3,443.8c-0.9-8.5-11.7-23.1-14.7-29c-3-5.5-25.4-41.4-27.2-44.2c-1.6-2.3-22.4-33.1-22.4-33.1
			s-8.3-15.1-16.5-17.4l-123.4-3.8c-15.1,8.2-26.1,10.5-32.8,16.9c-21.4,21-17.8,105.6,7.5,119.2c39.1,20.7,44,56,51.3,70
			c7.3,14,4.3,40,2.9,56.5c-0.2,2.4-0.3,5.2-0.4,8.3c12.7,1.7,25.8,2.6,39.1,2.6c43.3,0,84.4-9.5,121.3-26.4
			c-1.2-12.7,0.3-26.3-4-36.7c-6.7-16-0.2-29.3-0.2-29.3C517.7,470.4,516.5,455.7,515.3,443.8z"/>
		<g id="Bras_Dt">
			<g id="Bras_droit_vide">
				<path fill="#FFB292" d="M309.6,475.3c5.5,4.8,9.6,7.5,9.6,7.5c61.6-134.1-27.8-156-27.8-156s-34.1,12.3-33.4,44
					c0.6,33.4,7,137.9,6.6,151.5c-0.5,13.8,2.3,14.3,2.3,14.3s7.5,19,16.1,37.3c14,4.9,28.5,8.6,43.4,11.5
					c-5.2-13.4-19.8-57.2-22.9-63.1c-2.3-3.9,1.8-30.4,5-48.8C308.4,474.1,309,474.8,309.6,475.3z"/>
				<path id="Aiselles" fill="#F59D76" d="M308,474c0,0,3.6-44,2.5-54.2c-1.1-10.3,6.7,0.5,7.3,5c0.5,4.6-2.9,0.6-2.9,0.6L308,474z"
					/>
			</g>
		</g>
		<g id="Tete">
			<g id="Visage">
				<path id="Visage_1_" fill="#FFB292" d="M281.6,176.1c0,0,102.2-8,156.8-84.4c0,0,33.1,45.7,30.4,94.1
					c-1.1,19.3-9.6,36.7-16.9,51.3c-11.3,21.8-18.5,36.4-38.1,37.2c0,0-24.3,28.6,20.5,46.2c0,0,69.3,103.9,13.5,103.9
					c-54.3,0-81.1-93.6-134.6-107.3c0,0,29.3-3,29.8-65.7c0,0-29.3-25.1-33.1-42.7C309.7,208.6,280.7,213.2,281.6,176.1z"/>
				<path id="ombre" fill="#F59D76" d="M413.7,274.2L413.7,274.2C413.7,274.3,413.7,274.3,413.7,274.2c-0.6,0.9-2.9,3.8-4.6,8.2
					c0,0.2,0,0.2-0.2,0.3c-0.2,0.1-0.2,0.5-0.3,0.6v0.2l0,0c-1.1,0.3-43.1,16.9-74.8,14.9c5-9.7,8.9-24.6,9.1-47.2
					c0,0-1.6-1.4-3.9-3.3c-1.6-1.6-3.6-3.3-5.8-5.5c-0.3-0.3-0.9-0.9-1.2-1.2c-0.5-0.5-1.2-1.2-1.7-1.7c-0.3-0.3-0.6-0.9-1.1-1.2
					c-0.5-0.5-1.1-1.1-1.6-1.6c-0.5-0.5-1.1-1.1-1.6-1.6c-2.7-3-5.3-6.2-7.9-9.6c-0.2-0.3-0.5-0.5-0.6-0.9c-0.5-0.6-0.9-1.2-1.2-1.9
					c-0.2-0.3-0.3-0.6-0.6-0.9c-0.3-0.5-0.9-1.2-1.2-1.9c-0.9-1.6-1.7-3-2.5-4.4c-0.2-0.3-0.3-0.5-0.3-0.9c-0.5-1.1-0.9-1.9-1.2-2.9
					c0-0.2-0.2-0.5-0.2-0.6c0-0.1,0-0.2-0.2-0.3c-0.2-0.3-0.2-0.5-0.3-0.9c-0.2-0.5-0.2-0.9-0.3-1.4c0,0-29.3,4.6-28.1-32.5
					c0,0,1.1,0,3-0.3c0.2,0,0.3,0,0.5,0c0.2,0,0.3,0,0.5,0s0.3,0,0.5,0c0.2,0,0.3,0,0.6,0s0.6,0,1.1-0.2c1.1-0.2,2.1-0.3,3-0.5
					c0.6-0.2,1.2-0.2,1.9-0.3c0.2,0,0.2,0,0.3,0c0.5,0,1.1-0.2,1.6-0.3c0.3,0,0.5-0.2,0.9-0.2c0.5,0,1.1-0.2,1.6-0.3
					c0.5,0,0.9-0.2,1.4-0.2c0.6-0.2,1.2-0.2,1.9-0.3c0.3,0,0.6-0.2,1.1-0.2c1.1-0.2,2.1-0.5,3.2-0.6c0.3,0,0.6-0.2,1.2-0.2
					c0.6-0.2,1.6-0.3,2.3-0.5c2.5-0.5,5.2-1.2,7.9-1.9C316.1,169.7,323.6,270.2,413.7,274.2z"/>
			</g>
			<g id="Yeux">
				<path id="Oeil_droit_fermé" display="none" d="M352.7,169.9c0,0,6.9,6.4,17.9,6.1c11-0.3,19.3-4.8,21.1-3.9s-8.9,10.5-21.4,9.9
					c-12.5-0.5-19.7-2.7-25.2-6.1C345.2,175.8,344,173,352.7,169.9z"/>
				<path id="Oeil_gauche_fermé" display="none" d="M458.3,165.3c0,0-5.3,5.3-13.7,6.2c-8.3,0.9-19.6-3.3-21.2-1.6
					c-2.5,2.5,11.6,7.9,21.1,7.9c9.5,0,20.5-7.5,21.4-9.1C465.8,168.7,461.4,165.3,458.3,165.3z"/>
				<g id="Oeil_Dt">
					<path fill="#FFFFFF" d="M360.1,174.9c-4.1-1.7-6.7-3.2-6.7-3.2c0.5-2.7,1.7-5,3.2-6.7C356.8,164.9,357.4,171.3,360.1,174.9z"/>
					<path fill="#FFFFFF" d="M364.6,170.8c0.2,0.9-0.3,1.7-1.2,1.9c-0.9,0.2-1.7-0.5-1.7-1.2c-0.2-0.9,0.3-1.7,1.2-1.9
						C363.8,169.5,364.5,169.9,364.6,170.8z"/>
					<path fill="none" d="M372.6,172.5c-3,0.5-6.9-1.6-7.9-4.8c-1.7,0-3.2-1.2-3.6-2.9c-0.3-1.9,0.9-3.6,2.7-3.9
						c0.9-0.2,1.6,0,2.3,0.3c1.2-1.4,2.7-2.4,4.4-2.7c3.3-0.5,7.3,2.4,7.9,6.1C379.1,168.1,376,171.7,372.6,172.5z"/>
					<path fill="#FFFFFF" d="M392.7,176.4L392.7,176.4c0,0.2,0,0.2,0,0.3c0,0.2,0,0.3,0,0.5c0,0.2,0,0.2,0,0.2l0,0
						c-5.2,1.9-10.5,2.4-15.4,1.9l0,0c-0.5,0-1.1-0.2-1.7-0.2c2.1-1.1,11.6-6.7,9.1-16.5C391.1,167.2,392.4,173.7,392.7,176.4z"/>
					<path d="M392.7,176.4c-0.3-2.5-1.7-9.3-7.9-13.7c-2.9-2.3-7.1-3.9-12.9-4.4c0,0-0.6,0-1.7,0.2c-3,0.5-9.6,1.9-13.7,6.6
						c-1.6,1.7-2.7,3.9-3.2,6.7c0,0,2.5,1.6,6.7,3.2l0,0c4.1,1.7,9.6,3.6,15.8,4.3c-0.2,0.2-0.3,0.2-0.3,0.2c-24.6,0-38-9.4-38-9.4
						c3.6,0.5,9.7-0.6,9.7-0.6c-9.7-2.7-9.7-6.7-9.7-6.7s2.5,1.7,5.5,1.2c2.9-0.5,10.3-7.7,20.4-8.9c9.9-1.2,17.8-0.6,23.7,5.2
						C391.4,165,392.6,173.4,392.7,176.4z"/>
					<path fill="#087527" d="M384.9,162.8c-2.9-2.3-7.1-3.9-12.9-4.4c0,0-0.6,0-1.7,0.2c3.3-0.5,7.3,2.4,7.9,6.1
						c0.6,3.6-2.4,7.3-5.8,7.9c-3,0.5-6.9-1.6-7.9-4.8c-1.7,0-3.2-1.2-3.6-2.9c-0.3-1.9,0.9-3.6,2.7-3.9c0.9-0.2,1.6,0,2.3,0.3
						c1.2-1.4,2.7-2.4,4.4-2.7c-3,0.5-9.6,1.9-13.7,6.6c0,0,0.6,6.4,3.2,9.9l0,0c4.1,1.7,9.6,3.6,15.8,4.3
						C377.8,178.3,387.2,172.7,384.9,162.8z M363.3,172.7c-0.9,0.2-1.7-0.5-1.7-1.2c-0.2-0.9,0.3-1.7,1.2-1.9
						c0.9-0.2,1.7,0.3,1.9,1.2C364.8,171.6,364.2,172.5,363.3,172.7z"/>
					<path d="M378.3,164.5c0.6,3.6-2.4,7.3-5.8,7.9c-3,0.5-6.9-1.6-7.9-4.8c-0.2-0.3-0.2-0.6-0.3-1.1c-0.3-1.9,0.5-3.9,1.7-5.5
						c1.2-1.4,2.7-2.4,4.4-2.7C373.9,157.9,377.8,160.8,378.3,164.5z"/>
					<path fill="#FFFFFF" d="M367.9,163.6c0.3,1.9-0.9,3.6-2.7,3.9c-0.2,0-0.3,0-0.5,0c-1.7,0-3.2-1.2-3.6-2.9
						c-0.3-1.9,0.9-3.6,2.7-3.9c0.9-0.2,1.6,0,2.3,0.3C366.9,161.7,367.6,162.6,367.9,163.6z"/>
					<path fill="#FFFFFF" d="M364.6,170.8c0.2,0.9-0.3,1.7-1.2,1.9c-0.9,0.2-1.7-0.5-1.7-1.2c-0.2-0.9,0.3-1.7,1.2-1.9
						C363.8,169.5,364.5,169.9,364.6,170.8z"/>
				</g>
				<g id="Oeil_Gche">
					<path d="M422.2,173.6c-0.6-4.3,0-19.9,14-22.8c14-2.9,27.5,9.3,27.5,9.3c7,0.2,9.4-2.5,9.4-2.5s0,3.8-9.1,6.4
						c0,0,2.9,1.4,9.6-0.2c0,0-3.2,6.1-35.8,10.3"/>
					<path fill="#FFFFFF" d="M430.4,174.4c-3.2,0.2-6.2-0.2-8.2-1.1c0,0,0.2-4.6,2.4-9.3C424.7,164.5,424.7,169.9,430.4,174.4z"/>
					<path fill="#087527" d="M450.4,157.9c-4.4-2.4-10.2-3.9-16-2.7c-5.3,1.2-8.3,5.2-10.2,8.9c0,0.2,0,5.6,5.8,10.3
						c5.5-0.2,11.7-1.7,16.9-3.2C447.4,171.3,452.6,166.8,450.4,157.9z M438.7,168.9c-2.3,0.2-4.3-0.6-5.6-2.3c0,0.2,0,0.2,0,0.3
						c0,0.6-0.5,1.4-1.2,1.6c-0.6,0-1.4-0.5-1.4-1.2s0.5-1.4,1.2-1.6c0.3,0,0.5,0,0.9,0.2c-0.5-0.6-0.9-1.6-1.1-2.4
						c-1.2-0.3-2.1-1.4-2.3-2.9c-0.2-1.9,1.1-3.8,2.7-3.9c0.5,0,1.1,0,1.6,0.2c1.1-1.1,2.3-1.7,3.8-1.7c3.6-0.3,6.9,2.4,7.1,6.2
						C445.1,165,442.4,168.6,438.7,168.9z"/>
					<path fill="none" d="M444.8,161.4c0.3,3.8-2.3,7.1-6.1,7.5c-2.3,0.2-4.3-0.6-5.6-2.3c0,0.2,0,0.2,0,0.3c0,0.6-0.5,1.4-1.2,1.6
						c-0.6,0-1.4-0.5-1.4-1.2s0.5-1.4,1.2-1.6c0.3,0,0.5,0,0.9,0.2c-0.5-0.6-0.9-1.6-1.1-2.4c-1.2-0.3-2.1-1.4-2.3-2.9
						c-0.2-1.9,1.1-3.8,2.7-3.9c0.5,0,1.1,0,1.6,0.2c1.1-1.1,2.3-1.7,3.8-1.7C441.2,154.9,444.5,157.6,444.8,161.4z"/>
					<path fill="#FFFFFF" d="M458.1,165.6c0.2,1.2-4.6,3.6-10.8,5.5c0,0,5.2-4.4,3-13.2C454.8,160.4,458,163.7,458.1,165.6z"/>
					<path d="M444.8,161.4c0.3,3.8-2.3,7.1-6.1,7.5c-2.3,0.2-4.3-0.6-5.6-2.3c-0.2-0.2-0.3-0.5-0.5-0.6c-0.5-0.6-0.9-1.6-1.1-2.4
						c0-0.2-0.2-0.5-0.2-0.6c-0.2-2.3,0.6-4.4,2.3-5.8c1.1-1.1,2.3-1.7,3.8-1.7C441.2,154.9,444.5,157.6,444.8,161.4z"/>
					<path fill="#FFFFFF" d="M433,163.6c-0.5,0-0.9,0-1.2-0.2c-1.2-0.3-2.1-1.4-2.3-2.9c-0.2-1.9,1.1-3.8,2.7-3.9
						c0.5,0,1.1,0,1.6,0.2c1.1,0.5,1.9,1.6,2.1,2.9C435.9,161.8,434.6,163.4,433,163.6z"/>
					<path fill="#FFFFFF" d="M433.3,167c0,0.6-0.5,1.4-1.2,1.6c-0.6,0-1.4-0.5-1.4-1.2s0.5-1.4,1.2-1.6c0.3,0,0.5,0,0.9,0.2
						c0.2,0.2,0.5,0.3,0.5,0.6C433.3,166.8,433.3,166.8,433.3,167z"/>
				</g>
			</g>
			<g id="Nez">
				<path id="Nez_2" fill="#F07E66" d="M419.5,184.1c0,0,2.5,5.6,3.9,7.9c1.7,2.5,4.4,5.2,4.4,6.7c0,1.5-3.9,4.4-5.5,5.2
					c-1.6,0.6,8-1.9,8-5C430.4,196.5,423.6,190.6,419.5,184.1z"/>
				<path fill="#F07E66" d="M417,203.9c0,0,0.5-0.3,0.9-1.1c0.5-0.6,1.9-1.6,2.5-1.2c0.6,0.3-0.3,1.9-1.2,2.1
					C418.4,203.9,417.6,203.7,417,203.9z"/>
				<path id="nez" display="none" fill="#F07E66" d="M413.7,179.8c0,0-16.3,15.6-8.2,25.4c2.4,2.7,12.6,2.5,21.5-11.3
					C427.2,193.7,416.5,185.5,413.7,179.8z"/>
			</g>
			<g id="Levres">
				<path fill="#7C3D2F" d="M422.8,218.6c0,0,2.4-2.3,3.8-3.9c1.4-1.7,9.6,3.6,15.2,3.9c0,0-2.1,3-5.6,6.1c-3.6,3-6.1,9.4-6.1,9.4
					s5.8,11-7.1,14.9c-13,3.9-37.8-6.9-39.5-12.4c-3.9-13.5-16.9-17.4-16.9-17.4s22.9,1.7,37.7,0.2c5.6-0.6,10.3-3.6,11.8-4.3
					C421.3,212.7,422.8,218.6,422.8,218.6z"/>
			</g>
			<path id="bouche" fill="#FFFFFF" d="M373.2,220.3c0,0,12.4,3.9,26.5,3.6c14-0.3,36.7-5.3,39.1-3.6c2.3,1.7-4.3,6.7-6.7,12.1
				c-2.4,5.5-6.1,9.6-10.2,11c-4.1,1.4-14.6,2.4-30.4-2.7C376,235.4,372.4,221.9,373.2,220.3z"/>
			<g id="Sourcils">
				<path fill="#7C3D2F" d="M362.7,150.2c0,0,19.3-3.3,27.9-0.6c0,0,1.9-0.6,0-4.1c-1.9-3.5-20.4-1.4-20.4-1.4
					S360.4,144.7,362.7,150.2z"/>
				<path fill="#7C3D2F" d="M423.9,149.1c0,0,27.2-9.9,42.1-3.3c0,0,0-4.3-2.7-5.8c-2.7-1.5-37.2-0.9-39.4,3
					C421.7,146.9,423.9,149.1,423.9,149.1z"/>
			</g>
		</g>
	</g>
</g>
</svg>
