<?xml version="1.0" encoding="utf-8"?>
<!-- Generator: Adobe Illustrator 18.1.1, SVG Export Plug-In . SVG Version: 6.00 Build 0)  -->
<svg version="1.1" xmlns="http://www.w3.org/2000/svg" xmlns:xlink="http://www.w3.org/1999/xlink" x="0px" y="0px"
	 viewBox="0 0 376 376" enable-background="new 0 0 376 376" xml:space="preserve">
<g id="Cheveux">
	<path id="Cheveux_Haut" display="none" fill="#7C3D2F" d="M146.3,131.1c0,0-32.7,7.6-48-13.1s-7-54-24-68.7c0,0,3.2-1.7,12,4
		c0,0-10.6-9.7-14-34.7c-3.3-25-3.7-35.3-12-42.7c0,0,9.7-0.7,19.7,8.7s7-34.3-0.7-43.7c0,0,18.3,4.7,33.7,19.7
		c0,0-1-17.7-12.7-21.7c0,0,1.7-4,23.7,8.7c0,0-7-19-6-28c0,0,3.3,12.7,13.7,23.7s-8.3-19,9.1-34.7c0,0,0.1,23,5.3,29.3
		c0,0-0.8-4.2,9.2-16.6c0,0-2.5,20.8,5.9,30.2c8.7,9.8,4.3-20.3,17.2-30.3c0,0,0,61.8,22.4,20.8c0,0-2.5,40.1,11.3,58
		c21.2,27.6,5,37,14.9,64c7.2,19.6-4.7,58.5-26.2,67.1S146.3,131.1,146.3,131.1z"/>
	<path id="Cheveux_bas_meche" fill="#7C3D2F" d="M140.5,174.8c0,0,33.3,6.8,36.8,4.3c3.5-2.5,7.5-12,7.5-12c3,2.5,6.5,9,6.5,9
		c1.6-3.1,1.2-12.3,1.2-12.3c2.2,4.5,8.2,8.2,8.2,8.2c-3.5-5.8,1-11.9,1-11.9c1.8,3.8,8.3,7.5,8.3,7.5c-2.8-7.5,3.3-15,3.3-15
		c3.3,0.3,8.5,5.5,8.5,5.5c-0.3-9.8-6.4-13.1-6.4-13.1c2.8,1.2,8.4,0,8.4,0c-4.8-4.1-4.8-11.9-4.8-11.9c2.3,1.8,7.3,0.3,7.3,0.3
		c-4-5.5-2-13.7-2-13.7c3.3,2.3,6.8,1.7,6.8,1.7c-4.5-5.5-4.8-20.8-1.5-27.9s6.3-33.4-4-57.9s-40.8-16-40.8-16s-28-18.7-55-4.7
		S95.1,56.3,91.1,69s-4,19.6-12.8,21.8c0,0,5.5,4.8,11.5,3.6c0,0-1.5,9.8-10.3,13.2c0,0,6,1.9,10.3,0c0,0,0.3,8-11.5,11.9
		c0,0,5.3,5,12.1,3.1c0,0-10.7,5.3-14,17.5c0,0,1.6-3.7,11.7-5.9c0,0-1.1,15.8-7.6,20.3c0,0,9.3,1.3,16.3-4c0,0-2.7,11.8-8.6,15.5
		c0,0,10.4,0.8,15-4.3c0,0-5.1,11-3.4,16c0,0,0.5-7.5,7.3-12.3c0,0-3.4,10.3,0.3,14.7c0,0,2.5-5.7,6.5-9c0,0,3.8,5,2,8.5
		c0,0,6-1.8,6.5-4.5c0,0,3,3.8,3.5,8.3S140.5,174.8,140.5,174.8z"/>
</g>
<g id="Corps">
	<path id="T-shirt_bleu" fill="#B347AF" d="M122.8,179.1c-8.8,4.8-15.3,6.1-19.2,9.9c-12.5,12.2-10.4,61.7,4.4,69.6
		c22.8,12.1,25.7,32.7,30,40.9s2.5,23.4,1.7,33c-0.8,9.6,0,31.8,0,31.8s12.1,5.9,16.3,6.5s3.1-2.6,19.2-0.6
		c16.1,2,24.2-1.4,31.3-4.8c7-3.4,19.9,2.1,26.7-1.8c6.8-3.9,13.3-3,13.3-3s-4.6-16.4-10.3-26c-5.6-9.6-1.5-23.3-5.4-32.6
		c-3.9-9.3-0.1-17.1-0.1-17.1c12.9-15.8,12.2-24.4,11.5-31.4c-0.5-5-6.8-13.5-8.6-16.9c-1.8-3.2-14.8-24.2-15.9-25.8
		c-0.9-1.3-13.1-19.3-13.1-19.3s-4.9-8.8-9.7-10.2L122.8,179.1z"/>
</g>
<g id="Tete">
	<g id="Visage">
		<path id="Visage_1_" fill="#FFB292" d="M105.7,97.1c0,0,59.7-4.7,91.6-49.3c0,0,19.3,26.7,17.7,55c-0.6,11.3-5.6,21.5-9.9,30
			c-6.6,12.8-10.8,21.3-22.3,21.7c0,0-14.2,16.7,12,27c0,0,40.5,60.7,7.9,60.7c-31.8,0-47.4-54.7-78.7-62.7c0,0,17.1-1.8,17.4-38.4
			c0,0-17.1-14.6-19.3-24.9C122.1,116.1,105.1,118.8,105.7,97.1z"/>
		<path id="ombre" fill="#F59D76" d="M182.8,154.4C182.8,154.4,182.8,154.4,182.8,154.4C182.8,154.5,182.8,154.5,182.8,154.4
			c-0.4,0.5-1.7,2.2-2.7,4.8c0,0.1,0,0.1-0.1,0.2c-0.1,0.1-0.1,0.3-0.2,0.4c0,0,0,0.1,0,0.1c0,0,0,0,0,0c-0.6,0.2-25.2,9.9-43.7,8.7
			c2.9-5.7,5.2-14.4,5.3-27.6c0,0-0.9-0.8-2.3-2c-0.9-0.9-2.1-2-3.4-3.2c-0.2-0.2-0.5-0.5-0.7-0.7c-0.3-0.3-0.7-0.7-1-1
			c-0.2-0.2-0.4-0.5-0.6-0.7c-0.3-0.3-0.6-0.6-0.9-0.9c-0.3-0.3-0.6-0.6-0.9-0.9c-1.6-1.8-3.1-3.6-4.6-5.6c-0.1-0.2-0.3-0.3-0.4-0.5
			c-0.3-0.4-0.5-0.7-0.7-1.1c-0.1-0.2-0.2-0.4-0.4-0.5c-0.2-0.3-0.5-0.7-0.7-1.1c-0.5-0.9-1-1.8-1.5-2.6c-0.1-0.2-0.2-0.3-0.2-0.5
			c-0.3-0.6-0.5-1.1-0.7-1.7c0-0.1-0.1-0.3-0.1-0.4c0-0.1,0-0.1-0.1-0.2c-0.1-0.2-0.1-0.3-0.2-0.5c-0.1-0.3-0.1-0.5-0.2-0.8
			c0,0-17.1,2.7-16.4-19c0,0,0.6,0,1.8-0.2c0.1,0,0.2,0,0.3,0c0.1,0,0.2,0,0.3,0c0.1,0,0.2,0,0.3,0c0.1,0,0.2,0,0.4,0
			c0.2,0,0.4,0,0.6-0.1c0.6-0.1,1.2-0.2,1.8-0.3c0.4-0.1,0.7-0.1,1.1-0.2c0.1,0,0.1,0,0.2,0c0.3,0,0.6-0.1,0.9-0.2
			c0.2,0,0.3-0.1,0.5-0.1c0.3,0,0.6-0.1,0.9-0.2c0.3,0,0.5-0.1,0.8-0.1c0.4-0.1,0.7-0.1,1.1-0.2c0.2,0,0.4-0.1,0.6-0.1
			c0.6-0.1,1.2-0.3,1.9-0.4c0.2,0,0.4-0.1,0.7-0.1c0.4-0.1,0.9-0.2,1.3-0.3c1.5-0.3,3-0.7,4.6-1.1
			C125.8,93.4,130.2,152.1,182.8,154.4z"/>
	</g>
	<g id="Yeux">
		<path id="Oeil_droit_fermé" d="M147.2,93.5c0,0,4,3.7,10.5,3.5c6.5-0.2,11.3-2.8,12.3-2.3s-5.2,6.1-12.5,5.8S146,98.9,142.8,97
			C142.8,97,142.1,95.3,147.2,93.5z"/>
		<path id="Oeil_gauche_fermé" d="M208.9,90.8c0,0-3.1,3.1-8,3.6s-11.4-2-12.4-0.9c-1.5,1.5,6.7,4.6,12.3,4.6s12-4.4,12.5-5.3
			C213.3,92.8,210.7,90.8,208.9,90.8z"/>
	</g>
	<g id="Nez">
		<path id="Nez_2" fill="#F07E66" d="M186.2,101.8c0,0,1.5,3.3,2.3,4.6c1,1.5,2.6,3,2.6,3.9s-2.3,2.6-3.2,3
			c-0.9,0.4,4.7-1.1,4.7-2.9C192.6,109,188.6,105.6,186.2,101.8z"/>
		<path fill="#F07E66" d="M184.8,113.4c0,0,0.3-0.2,0.5-0.6c0.3-0.4,1.1-0.9,1.5-0.7c0.4,0.2-0.2,1.1-0.7,1.2
			S185.1,113.3,184.8,113.4z"/>
		<path id="nez" display="none" fill="#F07E66" d="M182.8,99.3c0,0-9.5,9.1-4.8,14.8c1.4,1.6,7.4,1.5,12.6-6.6
			C190.7,107.4,184.5,102.6,182.8,99.3z"/>
	</g>
	<g id="Levres">
		<path fill="#7C3D2F" d="M188.2,122c0,0,1.4-1.3,2.2-2.3s5.6,2.1,8.9,2.3c0,0-1.2,1.8-3.3,3.5c-2.1,1.7-3.5,5.5-3.5,5.5
			s3.4,6.4-4.2,8.7s-22.1-4-23.1-7.3c-2.3-7.9-9.9-10.2-9.9-10.2s13.4,1,22,0.1c3.3-0.4,6-2.1,6.9-2.5
			C187.3,118.5,188.2,122,188.2,122z"/>
	</g>
	<path id="bouche" fill="#FFFFFF" d="M159.2,122.9c0,0,7.3,2.3,15.5,2.1s21.5-3.1,22.8-2.1s-2.5,3.9-3.9,7.1s-3.5,5.6-5.9,6.4
		s-8.5,1.4-17.7-1.6C160.8,131.8,158.7,123.9,159.2,122.9z"/>
	<g id="Sourcils">
		<path fill="#7C3D2F" d="M153,82c0,0,11.3-2,16.3-0.4c0,0,1.1-0.4,0-2.4s-11.9-0.8-11.9-0.8S151.7,78.8,153,82z"/>
		<path fill="#7C3D2F" d="M188.8,81.3c0,0,15.9-5.8,24.6-2c0,0,0-2.5-1.6-3.4c-1.6-0.9-21.7-0.5-23,1.8
			C187.5,80.1,188.8,81.3,188.8,81.3z"/>
	</g>
</g>
<g id="Calque_12">
	<path fill="#FFB292" d="M240.4,197.6c0,0-1.5,3.9-2,4.5c0,0,1.1,2.8,0.6,4.2c-0.5,1.4-2.2,7.2-3,7.8c0,0-2.4,7.5-3.1,8.7
		c-0.7,1.2-3.1,7.2-3.7,11.1c-0.6,3.9-7.2,10.7-11.8,14.5s-8.1,3-9.8,5.8c0,0-8.7,8.3-10.9,11s-22.3,33.3-44.9,44.4
		c0,0-3.6,6.8-6.9,3.6c0,0-5.9-6.5-9.9-9.6c-5-4-30.3-27.2-39.1-49.5c-8.8-22.4-16.6-54,1.1-60.6c0,0,7.1-4.6,8.9-5.1
		c1.8-0.5,30.1,10.3,28.9,44.3c0,0-0.2,17.6-3.4,22.5c0,0,7.1,9.6,9.2,13.1c2.1,3.7,7.5,15.8,7.5,15.8c4.4-6.1,22.1-13.6,29.8-19.3
		s21.2-20.7,21.2-20.7s2-3.4,2.3-4.5c0.3-1,1.6-10.4,2.4-11.5s0.7-5.6,1.5-8.3c0.9-2.7,2.7-4.8,4-7.2c1.3-2.4,2.6-7.8,2.4-9.1
		c-0.2-1.3-0.7-2.7,0.8-2.9c1.5-0.1,3.9,1.1,4.3,1.8c0,0,0.7-2.1,2.7-3.3c2.1-1.1,8.2-7.2,9.3-8c1-0.8,2.4-2,4.6-0.4
		c0,0,3.4-3,4.2-2.8c0.8,0.2,2.1,0.5,2.3,3.1c0,0,0.2,1.1,0.3,1.7C240.2,193.4,240.8,194.9,240.4,197.6z"/>
	<path fill="#F59D76" d="M206.5,217.2c-0.5,0.8-0.9,1.7-1.2,2.6c-0.8,2.7-0.7,7.2-1.5,8.3s-2.2,10.5-2.4,11.5
		c-0.1,0.5-0.6,1.4-1,2.3l-0.7-0.3c0,0,1.2-1.3,1.2-1.8c0-0.4,1.4-7.9,1.6-8.5c0.2-0.6,0.4-2.6,0.7-3c0.3-0.4,0.8-0.9,0.8-1.4
		s0.6-5.3,0.6-6.1c0.1-0.8,0.4-1.8,0.7-2.2c0.3-0.4,1.1-1.9,1.1-1.9L206.5,217.2z"/>
	<path fill="#F59D76" d="M131.4,255.2c0,0-5.8-11.5-9.3-16.7s-0.6-6.8-0.6-6.8s-0.8,1.1,0.8,5.3c1.5,4.1,7.8,14.3,9.7,17.3
		L131.4,255.2z"/>
	<path fill="#F59D76" d="M216.7,202.5c0,0-3,3-4.7,7c0,0-2,1.2-2.1,2.6c0,0,1.2-1.8,2.2-2.4c0.9-0.5,0.9-2.8,4.5-7V202.5z"/>
	<path fill="#FFB292" d="M240.6,198.2c0,0,2.4,0.6,0.6,10.3c0,0,0.1,4.4,0.7,6.2c0.6,1.9,1,4.9,0.3,6.4c-0.6,1.4-3,4.5-3.6,6.2
		c-0.6,1.7-1.4,7.6-2.8,11.1c-1.4,3.5-2.4,6-3.8,7.9c-1.4,1.9-3.4,4-2.1,6.5c0,0,2.4,4.7,6.1,7l6.1,3.2c0,0,0.6-5.6,0.1-8.4
		c2.2,1.9,15.5,20.4,17.2,32.6s-5.6,15.2-5.6,15.2c-1,4.9-5.1,1.7-5.1,1.7c-9.6-1.3-24.7-22.9-27.5-33.4s-7.8-22-7.8-22
		c-1.2-4.5,15.4-46.8,18.6-50.6C235.2,194.5,240.6,198.2,240.6,198.2"/>
	<path fill="#F59D76" d="M242.1,263c0,0,4.6,2.6,5.8,3.9c0,0-4.1-4.2-5.8-4.4"/>
	<path fill="#F59D76" d="M240,205.2c0,0.6-0.6,2.4-0.8,3.3c-0.3,0.9-1.9,5.3-2.2,5.5c-0.3,0.2-1.2,2.2-1.3,3.4c-0.2,1.3-2,6-2.7,7.2
		c-0.7,1.2-2.1,5.3-2.4,6.2c-0.3,0.9-0.4,3-0.5,4c-0.2,0.9-2.9,5-2.9,5s-4,4.7-4.8,5.5c-0.7,0.9-4.5,3.7-5.1,4.2
		c-0.5,0.4-1.8,0.6-2.5,0.8c0.8-0.4,1.7-1,2.6-1.8c4.6-3.8,11.2-10.6,11.8-14.5c0.6-3.9,3-9.9,3.7-11.1c0.7-1.2,3.1-8.7,3.1-8.7
		c0.8-0.6,2.5-6.5,3-7.8c0.5-1.4-0.6-4.2-0.6-4.2c0.1-0.1,0.3-0.5,0.5-0.9C239,201.6,240,204.7,240,205.2z"/>
</g>
</svg>
