<?xml version="1.0" encoding="utf-8"?>
<!-- Generator: Adobe Illustrator 18.1.1, SVG Export Plug-In . SVG Version: 6.00 Build 0)  -->
<svg version="1.1" id="Calque_2" xmlns="http://www.w3.org/2000/svg" xmlns:xlink="http://www.w3.org/1999/xlink" x="0px" y="0px"
	 viewBox="0 0 181.3 143.6" enable-background="new 0 0 181.3 143.6" xml:space="preserve">
<path fill="none" stroke="#000000" stroke-width="6" stroke-miterlimit="10" d="M3,95.9c0,0,47.5,72.9,127.7,30.5
	C207.3,85.9,166.3,1.5,166.3,1.5"/>
<path d="M156.2,6.6L12.6,89.7c11.3,19.2,61,59.6,118.1,22.3C187.8,74.7,156.2,6.6,156.2,6.6z M70.4,97c-3.1,0-5.7-2.5-5.7-5.7
	c0-3.1,2.5-5.7,5.7-5.7c3.1,0,5.7,2.5,5.7,5.7C76.1,94.5,73.5,97,70.4,97z M109,66c0-3.1,2.5-5.7,5.7-5.7c3.1,0,5.7,2.5,5.7,5.7
	c0,3.1-2.5,5.7-5.7,5.7C111.6,71.7,109,69.2,109,66z M119.7,97c-3.1,0-5.7-2.5-5.7-5.7c0-3.1,2.5-5.7,5.7-5.7c3.1,0,5.7,2.5,5.7,5.7
	C125.3,94.5,122.8,97,119.7,97z M135.6,39.3c-3.1,0-5.7-2.5-5.7-5.7s2.5-5.7,5.7-5.7s5.7,2.5,5.7,5.7S138.7,39.3,135.6,39.3z"/>
</svg>
